<?xml version="1.0" encoding="utf-8" standalone="no"?>
<!DOCTYPE svg PUBLIC "-//W3C//DTD SVG 1.1//EN"
  "http://www.w3.org/Graphics/SVG/1.1/DTD/svg11.dtd">
<svg xmlns:xlink="http://www.w3.org/1999/xlink" width="857.368125pt" height="334.150312pt" viewBox="0 0 857.368125 334.150312" xmlns="http://www.w3.org/2000/svg" version="1.1">
 <metadata>
  <rdf:RDF xmlns:dc="http://purl.org/dc/elements/1.1/" xmlns:cc="http://creativecommons.org/ns#" xmlns:rdf="http://www.w3.org/1999/02/22-rdf-syntax-ns#">
   <cc:Work>
    <dc:type rdf:resource="http://purl.org/dc/dcmitype/StillImage"/>
    <dc:date>2026-05-22T12:14:09.831805</dc:date>
    <dc:format>image/svg+xml</dc:format>
    <dc:creator>
     <cc:Agent>
      <dc:title>Matplotlib v3.6.3, https://matplotlib.org/</dc:title>
     </cc:Agent>
    </dc:creator>
   </cc:Work>
  </rdf:RDF>
 </metadata>
 <defs>
  <style type="text/css">*{stroke-linejoin: round; stroke-linecap: butt}</style>
 </defs>
 <g id="figure_1">
  <g id="patch_1">
   <path d="M 0 334.150312 
L 857.368125 334.150312 
L 857.368125 0 
L 0 0 
z
" style="fill: #ffffff"/>
  </g>
  <g id="axes_1">
   <g id="patch_2">
    <path d="M 53.328125 311.24 
L 426.748125 311.24 
L 426.748125 61.44 
L 53.328125 61.44 
z
" style="fill: #ffffff"/>
   </g>
   <g id="patch_3">
    <path d="M 70.301761 109131.945395 
L 88.168747 109131.945395 
L 88.168747 228.947626 
L 70.301761 228.947626 
z
" clip-path="url(#pb173061023)" style="fill: #4472c4; opacity: 0.9"/>
   </g>
   <g id="patch_4">
    <path d="M 159.63669 109131.945395 
L 177.503675 109131.945395 
L 177.503675 152.944095 
L 159.63669 152.944095 
z
" clip-path="url(#pb173061023)" style="fill: #4472c4; opacity: 0.9"/>
   </g>
   <g id="patch_5">
    <path d="M 248.971618 109131.945395 
L 266.838603 109131.945395 
L 266.838603 72.794545 
L 248.971618 72.794545 
z
" clip-path="url(#pb173061023)" style="fill: #4472c4; opacity: 0.9"/>
   </g>
   <g id="patch_6">
    <path d="M 338.306546 109131.945395 
L 356.173532 109131.945395 
L 356.173532 169.000508 
L 338.306546 169.000508 
z
" clip-path="url(#pb173061023)" style="fill: #4472c4; opacity: 0.9"/>
   </g>
   <g id="patch_7">
    <path d="M 88.168747 109131.945395 
L 106.035733 109131.945395 
L 106.035733 226.248397 
L 88.168747 226.248397 
z
" clip-path="url(#pb173061023)" style="fill: #5b9bd5; opacity: 0.9"/>
   </g>
   <g id="patch_8">
    <path d="M 177.503675 109131.945395 
L 195.370661 109131.945395 
L 195.370661 109131.945395 
L 177.503675 109131.945395 
z
" clip-path="url(#pb173061023)" style="fill: #5b9bd5; opacity: 0.9"/>
   </g>
   <g id="patch_9">
    <path d="M 266.838603 109131.945395 
L 284.705589 109131.945395 
L 284.705589 109131.945395 
L 266.838603 109131.945395 
z
" clip-path="url(#pb173061023)" style="fill: #5b9bd5; opacity: 0.9"/>
   </g>
   <g id="patch_10">
    <path d="M 356.173532 109131.945395 
L 374.040517 109131.945395 
L 374.040517 166.160555 
L 356.173532 166.160555 
z
" clip-path="url(#pb173061023)" style="fill: #5b9bd5; opacity: 0.9"/>
   </g>
   <g id="patch_11">
    <path d="M 106.035733 109131.945395 
L 123.902718 109131.945395 
L 123.902718 299.885455 
L 106.035733 299.885455 
z
" clip-path="url(#pb173061023)" style="fill: #ed7d31; opacity: 0.9"/>
   </g>
   <g id="patch_12">
    <path d="M 195.370661 109131.945395 
L 213.237647 109131.945395 
L 213.237647 187.743895 
L 195.370661 187.743895 
z
" clip-path="url(#pb173061023)" style="fill: #ed7d31; opacity: 0.9"/>
   </g>
   <g id="patch_13">
    <path d="M 284.705589 109131.945395 
L 302.572575 109131.945395 
L 302.572575 110.88278 
L 284.705589 110.88278 
z
" clip-path="url(#pb173061023)" style="fill: #ed7d31; opacity: 0.9"/>
   </g>
   <g id="patch_14">
    <path d="M 374.040517 109131.945395 
L 391.907503 109131.945395 
L 391.907503 265.137497 
L 374.040517 265.137497 
z
" clip-path="url(#pb173061023)" style="fill: #ed7d31; opacity: 0.9"/>
   </g>
   <g id="patch_15">
    <path d="M 123.902718 109131.945395 
L 141.769704 109131.945395 
L 141.769704 299.543591 
L 123.902718 299.543591 
z
" clip-path="url(#pb173061023)" style="fill: #f4b183; opacity: 0.9"/>
   </g>
   <g id="patch_16">
    <path d="M 213.237647 109131.945395 
L 231.104632 109131.945395 
L 231.104632 187.935826 
L 213.237647 187.935826 
z
" clip-path="url(#pb173061023)" style="fill: #f4b183; opacity: 0.9"/>
   </g>
   <g id="patch_17">
    <path d="M 302.572575 109131.945395 
L 320.43956 109131.945395 
L 320.43956 110.813862 
L 302.572575 110.813862 
z
" clip-path="url(#pb173061023)" style="fill: #f4b183; opacity: 0.9"/>
   </g>
   <g id="patch_18">
    <path d="M 391.907503 109131.945395 
L 409.774489 109131.945395 
L 409.774489 270.765068 
L 391.907503 270.765068 
z
" clip-path="url(#pb173061023)" style="fill: #f4b183; opacity: 0.9"/>
   </g>
   <g id="matplotlib.axis_1">
    <g id="xtick_1">
     <g id="line2d_1">
      <defs>
       <path id="mce05d29069" d="M 0 0 
L 0 3.5 
" style="stroke: #000000; stroke-width: 0.8"/>
      </defs>
      <g>
       <use xlink:href="#mce05d29069" x="106.035733" y="311.24" style="stroke: #000000; stroke-width: 0.8"/>
      </g>
     </g>
     <g id="text_1">
      <!-- Ideal -->
      <g transform="translate(94.59167 325.078594) scale(0.09 -0.09)">
       <defs>
        <path id="DejaVuSerif-49" d="M 1581 331 
L 2175 331 
L 2175 0 
L 353 0 
L 353 331 
L 947 331 
L 947 4331 
L 353 4331 
L 353 4666 
L 2175 4666 
L 2175 4331 
L 1581 4331 
L 1581 331 
z
" transform="scale(0.015625)"/>
        <path id="DejaVuSerif-64" d="M 3359 331 
L 3909 331 
L 3909 0 
L 2784 0 
L 2784 519 
Q 2616 206 2355 57 
Q 2094 -91 1709 -91 
Q 1097 -91 708 395 
Q 319 881 319 1663 
Q 319 2444 706 2928 
Q 1094 3413 1709 3413 
Q 2094 3413 2355 3264 
Q 2616 3116 2784 2803 
L 2784 4531 
L 2241 4531 
L 2241 4863 
L 3359 4863 
L 3359 331 
z
M 2784 1497 
L 2784 1825 
Q 2784 2422 2554 2737 
Q 2325 3053 1888 3053 
Q 1444 3053 1217 2703 
Q 991 2353 991 1663 
Q 991 975 1217 622 
Q 1444 269 1888 269 
Q 2325 269 2554 583 
Q 2784 897 2784 1497 
z
" transform="scale(0.015625)"/>
        <path id="DejaVuSerif-65" d="M 3469 1600 
L 991 1600 
L 991 1575 
Q 991 903 1244 561 
Q 1497 219 1991 219 
Q 2369 219 2611 417 
Q 2853 616 2950 1006 
L 3413 1006 
Q 3275 459 2904 184 
Q 2534 -91 1931 -91 
Q 1203 -91 761 389 
Q 319 869 319 1663 
Q 319 2450 753 2931 
Q 1188 3413 1894 3413 
Q 2647 3413 3050 2948 
Q 3453 2484 3469 1600 
z
M 2791 1931 
Q 2772 2513 2545 2808 
Q 2319 3103 1894 3103 
Q 1497 3103 1269 2806 
Q 1041 2509 991 1931 
L 2791 1931 
z
" transform="scale(0.015625)"/>
        <path id="DejaVuSerif-61" d="M 2547 1044 
L 2547 1747 
L 1806 1747 
Q 1378 1747 1168 1562 
Q 959 1378 959 997 
Q 959 650 1171 447 
Q 1384 244 1747 244 
Q 2106 244 2326 466 
Q 2547 688 2547 1044 
z
M 3122 2075 
L 3122 331 
L 3634 331 
L 3634 0 
L 2547 0 
L 2547 359 
Q 2356 128 2106 18 
Q 1856 -91 1522 -91 
Q 969 -91 644 203 
Q 319 497 319 997 
Q 319 1513 691 1797 
Q 1063 2081 1741 2081 
L 2547 2081 
L 2547 2309 
Q 2547 2688 2317 2895 
Q 2088 3103 1672 3103 
Q 1328 3103 1125 2947 
Q 922 2791 872 2484 
L 575 2484 
L 575 3156 
Q 875 3284 1158 3348 
Q 1441 3413 1709 3413 
Q 2400 3413 2761 3070 
Q 3122 2728 3122 2075 
z
" transform="scale(0.015625)"/>
        <path id="DejaVuSerif-6c" d="M 1313 331 
L 1856 331 
L 1856 0 
L 184 0 
L 184 331 
L 738 331 
L 738 4531 
L 184 4531 
L 184 4863 
L 1313 4863 
L 1313 331 
z
" transform="scale(0.015625)"/>
       </defs>
       <use xlink:href="#DejaVuSerif-49"/>
       <use xlink:href="#DejaVuSerif-64" x="39.501953"/>
       <use xlink:href="#DejaVuSerif-65" x="103.515625"/>
       <use xlink:href="#DejaVuSerif-61" x="162.695312"/>
       <use xlink:href="#DejaVuSerif-6c" x="222.314453"/>
      </g>
     </g>
    </g>
    <g id="xtick_2">
     <g id="line2d_2">
      <g>
       <use xlink:href="#mce05d29069" x="195.370661" y="311.24" style="stroke: #000000; stroke-width: 0.8"/>
      </g>
     </g>
     <g id="text_2">
      <!-- 35ms/2% -->
      <g transform="translate(174.413317 325.078594) scale(0.09 -0.09)">
       <defs>
        <path id="DejaVuSerif-33" d="M 622 4469 
Q 988 4606 1323 4678 
Q 1659 4750 1953 4750 
Q 2638 4750 3022 4454 
Q 3406 4159 3406 3634 
Q 3406 3213 3140 2930 
Q 2875 2647 2388 2547 
Q 2963 2466 3280 2130 
Q 3597 1794 3597 1259 
Q 3597 606 3158 257 
Q 2719 -91 1894 -91 
Q 1528 -91 1179 -12 
Q 831 66 488 225 
L 488 1131 
L 838 1131 
Q 869 681 1141 450 
Q 1413 219 1906 219 
Q 2384 219 2661 495 
Q 2938 772 2938 1253 
Q 2938 1803 2653 2086 
Q 2369 2369 1819 2369 
L 1522 2369 
L 1522 2688 
L 1678 2688 
Q 2225 2688 2498 2914 
Q 2772 3141 2772 3597 
Q 2772 4006 2547 4223 
Q 2322 4441 1900 4441 
Q 1478 4441 1245 4241 
Q 1013 4041 972 3647 
L 622 3647 
L 622 4469 
z
" transform="scale(0.015625)"/>
        <path id="DejaVuSerif-35" d="M 3219 4666 
L 3219 4153 
L 1081 4153 
L 1081 2816 
Q 1244 2928 1461 2984 
Q 1678 3041 1947 3041 
Q 2703 3041 3140 2622 
Q 3578 2203 3578 1478 
Q 3578 738 3136 323 
Q 2694 -91 1894 -91 
Q 1572 -91 1234 -12 
Q 897 66 544 225 
L 544 1131 
L 897 1131 
Q 925 688 1179 453 
Q 1434 219 1894 219 
Q 2388 219 2653 544 
Q 2919 869 2919 1478 
Q 2919 2084 2655 2407 
Q 2391 2731 1894 2731 
Q 1613 2731 1398 2631 
Q 1184 2531 1019 2322 
L 750 2322 
L 750 4666 
L 3219 4666 
z
" transform="scale(0.015625)"/>
        <path id="DejaVuSerif-6d" d="M 3316 2675 
Q 3481 3041 3739 3227 
Q 3997 3413 4341 3413 
Q 4863 3413 5119 3089 
Q 5375 2766 5375 2113 
L 5375 331 
L 5894 331 
L 5894 0 
L 4300 0 
L 4300 331 
L 4800 331 
L 4800 2047 
Q 4800 2556 4650 2772 
Q 4500 2988 4153 2988 
Q 3769 2988 3567 2697 
Q 3366 2406 3366 1850 
L 3366 331 
L 3866 331 
L 3866 0 
L 2291 0 
L 2291 331 
L 2791 331 
L 2791 2069 
Q 2791 2566 2641 2777 
Q 2491 2988 2144 2988 
Q 1759 2988 1557 2697 
Q 1356 2406 1356 1850 
L 1356 331 
L 1856 331 
L 1856 0 
L 263 0 
L 263 331 
L 781 331 
L 781 2994 
L 231 2994 
L 231 3322 
L 1356 3322 
L 1356 2731 
Q 1516 3063 1762 3238 
Q 2009 3413 2322 3413 
Q 2709 3413 2968 3220 
Q 3228 3028 3316 2675 
z
" transform="scale(0.015625)"/>
        <path id="DejaVuSerif-73" d="M 359 184 
L 359 959 
L 691 959 
Q 703 588 923 403 
Q 1144 219 1575 219 
Q 1963 219 2166 364 
Q 2369 509 2369 788 
Q 2369 1006 2220 1140 
Q 2072 1275 1594 1428 
L 1178 1569 
Q 750 1706 558 1912 
Q 366 2119 366 2438 
Q 366 2894 700 3153 
Q 1034 3413 1625 3413 
Q 1888 3413 2178 3344 
Q 2469 3275 2778 3144 
L 2778 2419 
L 2447 2419 
Q 2434 2741 2221 2922 
Q 2009 3103 1644 3103 
Q 1281 3103 1095 2975 
Q 909 2847 909 2591 
Q 909 2381 1050 2254 
Q 1191 2128 1613 1997 
L 2069 1856 
Q 2541 1709 2748 1489 
Q 2956 1269 2956 922 
Q 2956 450 2595 179 
Q 2234 -91 1600 -91 
Q 1278 -91 972 -22 
Q 666 47 359 184 
z
" transform="scale(0.015625)"/>
        <path id="DejaVuSerif-2f" d="M 1656 4666 
L 2156 4666 
L 500 -594 
L 0 -594 
L 1656 4666 
z
" transform="scale(0.015625)"/>
        <path id="DejaVuSerif-32" d="M 819 3553 
L 469 3553 
L 469 4384 
Q 803 4563 1142 4656 
Q 1481 4750 1806 4750 
Q 2534 4750 2956 4397 
Q 3378 4044 3378 3438 
Q 3378 2753 2422 1800 
Q 2347 1728 2309 1691 
L 1131 513 
L 3078 513 
L 3078 1088 
L 3444 1088 
L 3444 0 
L 434 0 
L 434 341 
L 1850 1753 
Q 2319 2222 2519 2614 
Q 2719 3006 2719 3438 
Q 2719 3909 2473 4175 
Q 2228 4441 1797 4441 
Q 1350 4441 1106 4219 
Q 863 3997 819 3553 
z
" transform="scale(0.015625)"/>
        <path id="DejaVuSerif-25" d="M 1434 4459 
Q 1159 4459 1004 4200 
Q 850 3941 850 3475 
Q 850 3016 1008 2753 
Q 1166 2491 1434 2491 
Q 1700 2491 1854 2752 
Q 2009 3013 2009 3475 
Q 2009 3938 1854 4198 
Q 1700 4459 1434 4459 
z
M 4653 2169 
Q 4381 2169 4226 1906 
Q 4072 1644 4072 1178 
Q 4072 719 4228 458 
Q 4384 197 4653 197 
Q 4922 197 5075 458 
Q 5228 719 5228 1178 
Q 5228 1641 5073 1905 
Q 4919 2169 4653 2169 
z
M 4653 2450 
Q 5147 2450 5437 2106 
Q 5728 1763 5728 1178 
Q 5728 594 5436 251 
Q 5144 -91 4653 -91 
Q 4153 -91 3862 251 
Q 3572 594 3572 1178 
Q 3572 1766 3864 2108 
Q 4156 2450 4653 2450 
z
M 4263 4750 
L 4738 4750 
L 1819 -91 
L 1344 -91 
L 4263 4750 
z
M 1428 4750 
Q 1922 4750 2215 4408 
Q 2509 4066 2509 3481 
Q 2509 2891 2217 2550 
Q 1925 2209 1428 2209 
Q 931 2209 642 2551 
Q 353 2894 353 3481 
Q 353 4063 643 4406 
Q 934 4750 1428 4750 
z
" transform="scale(0.015625)"/>
       </defs>
       <use xlink:href="#DejaVuSerif-33"/>
       <use xlink:href="#DejaVuSerif-35" x="63.623047"/>
       <use xlink:href="#DejaVuSerif-6d" x="127.246094"/>
       <use xlink:href="#DejaVuSerif-73" x="222.070312"/>
       <use xlink:href="#DejaVuSerif-2f" x="273.388672"/>
       <use xlink:href="#DejaVuSerif-32" x="307.080078"/>
       <use xlink:href="#DejaVuSerif-25" x="370.703125"/>
      </g>
     </g>
    </g>
    <g id="xtick_3">
     <g id="line2d_3">
      <g>
       <use xlink:href="#mce05d29069" x="284.705589" y="311.24" style="stroke: #000000; stroke-width: 0.8"/>
      </g>
     </g>
     <g id="text_3">
      <!-- 200ms/10% -->
      <g transform="translate(258.021995 325.078594) scale(0.09 -0.09)">
       <defs>
        <path id="DejaVuSerif-30" d="M 2034 219 
Q 2513 219 2750 744 
Q 2988 1269 2988 2328 
Q 2988 3391 2750 3916 
Q 2513 4441 2034 4441 
Q 1556 4441 1318 3916 
Q 1081 3391 1081 2328 
Q 1081 1269 1318 744 
Q 1556 219 2034 219 
z
M 2034 -91 
Q 1275 -91 848 546 
Q 422 1184 422 2328 
Q 422 3475 848 4112 
Q 1275 4750 2034 4750 
Q 2797 4750 3222 4112 
Q 3647 3475 3647 2328 
Q 3647 1184 3222 546 
Q 2797 -91 2034 -91 
z
" transform="scale(0.015625)"/>
        <path id="DejaVuSerif-31" d="M 909 0 
L 909 331 
L 1722 331 
L 1722 4213 
L 781 3603 
L 781 4013 
L 1919 4750 
L 2350 4750 
L 2350 331 
L 3163 331 
L 3163 0 
L 909 0 
z
" transform="scale(0.015625)"/>
       </defs>
       <use xlink:href="#DejaVuSerif-32"/>
       <use xlink:href="#DejaVuSerif-30" x="63.623047"/>
       <use xlink:href="#DejaVuSerif-30" x="127.246094"/>
       <use xlink:href="#DejaVuSerif-6d" x="190.869141"/>
       <use xlink:href="#DejaVuSerif-73" x="285.693359"/>
       <use xlink:href="#DejaVuSerif-2f" x="337.011719"/>
       <use xlink:href="#DejaVuSerif-31" x="370.703125"/>
       <use xlink:href="#DejaVuSerif-30" x="434.326172"/>
       <use xlink:href="#DejaVuSerif-25" x="497.949219"/>
      </g>
     </g>
    </g>
    <g id="xtick_4">
     <g id="line2d_4">
      <g>
       <use xlink:href="#mce05d29069" x="374.040517" y="311.24" style="stroke: #000000; stroke-width: 0.8"/>
      </g>
     </g>
     <g id="text_4">
      <!-- GE Stable -->
      <g transform="translate(351.172783 325.078594) scale(0.09 -0.09)">
       <defs>
        <path id="DejaVuSerif-47" d="M 4097 3272 
Q 3988 3856 3641 4136 
Q 3294 4416 2675 4416 
Q 1869 4416 1472 3897 
Q 1075 3378 1075 2328 
Q 1075 1300 1484 772 
Q 1894 244 2688 244 
Q 3041 244 3362 331 
Q 3684 419 3975 594 
L 3975 1797 
L 3097 1797 
L 3097 2131 
L 4609 2131 
L 4609 391 
Q 4194 150 3714 29 
Q 3234 -91 2688 -91 
Q 1631 -91 995 570 
Q 359 1231 359 2328 
Q 359 3434 996 4092 
Q 1634 4750 2713 4750 
Q 3113 4750 3539 4658 
Q 3966 4566 4447 4378 
L 4447 3272 
L 4097 3272 
z
" transform="scale(0.015625)"/>
        <path id="DejaVuSerif-45" d="M 353 0 
L 353 331 
L 947 331 
L 947 4331 
L 353 4331 
L 353 4666 
L 4109 4666 
L 4109 3628 
L 3725 3628 
L 3725 4281 
L 1581 4281 
L 1581 2719 
L 3109 2719 
L 3109 3303 
L 3494 3303 
L 3494 1753 
L 3109 1753 
L 3109 2338 
L 1581 2338 
L 1581 384 
L 3775 384 
L 3775 1038 
L 4159 1038 
L 4159 0 
L 353 0 
z
" transform="scale(0.015625)"/>
        <path id="DejaVuSerif-20" transform="scale(0.015625)"/>
        <path id="DejaVuSerif-53" d="M 594 225 
L 594 1288 
L 953 1284 
Q 969 753 1261 498 
Q 1553 244 2150 244 
Q 2706 244 2998 464 
Q 3291 684 3291 1106 
Q 3291 1444 3114 1625 
Q 2938 1806 2369 1978 
L 1753 2163 
Q 1084 2366 811 2669 
Q 538 2972 538 3500 
Q 538 4094 959 4422 
Q 1381 4750 2144 4750 
Q 2469 4750 2856 4679 
Q 3244 4609 3681 4475 
L 3681 3481 
L 3328 3481 
Q 3275 3975 2998 4195 
Q 2722 4416 2156 4416 
Q 1663 4416 1405 4214 
Q 1147 4013 1147 3628 
Q 1147 3294 1340 3103 
Q 1534 2913 2163 2725 
L 2741 2553 
Q 3375 2363 3645 2067 
Q 3916 1772 3916 1275 
Q 3916 597 3481 253 
Q 3047 -91 2188 -91 
Q 1803 -91 1404 -12 
Q 1006 66 594 225 
z
" transform="scale(0.015625)"/>
        <path id="DejaVuSerif-74" d="M 691 2988 
L 184 2988 
L 184 3322 
L 691 3322 
L 691 4353 
L 1269 4353 
L 1269 3322 
L 2350 3322 
L 2350 2988 
L 1269 2988 
L 1269 878 
Q 1269 456 1350 337 
Q 1431 219 1650 219 
Q 1875 219 1978 351 
Q 2081 484 2088 781 
L 2522 781 
Q 2497 328 2275 118 
Q 2053 -91 1600 -91 
Q 1103 -91 897 129 
Q 691 350 691 878 
L 691 2988 
z
" transform="scale(0.015625)"/>
        <path id="DejaVuSerif-62" d="M 738 331 
L 738 4531 
L 184 4531 
L 184 4863 
L 1313 4863 
L 1313 2803 
Q 1481 3116 1742 3264 
Q 2003 3413 2388 3413 
Q 3000 3413 3387 2928 
Q 3775 2444 3775 1663 
Q 3775 881 3387 395 
Q 3000 -91 2388 -91 
Q 2003 -91 1742 57 
Q 1481 206 1313 519 
L 1313 0 
L 184 0 
L 184 331 
L 738 331 
z
M 1313 1497 
Q 1313 897 1542 583 
Q 1772 269 2209 269 
Q 2650 269 2876 622 
Q 3103 975 3103 1663 
Q 3103 2353 2876 2703 
Q 2650 3053 2209 3053 
Q 1772 3053 1542 2737 
Q 1313 2422 1313 1825 
L 1313 1497 
z
" transform="scale(0.015625)"/>
       </defs>
       <use xlink:href="#DejaVuSerif-47"/>
       <use xlink:href="#DejaVuSerif-45" x="79.882812"/>
       <use xlink:href="#DejaVuSerif-20" x="152.880859"/>
       <use xlink:href="#DejaVuSerif-53" x="184.667969"/>
       <use xlink:href="#DejaVuSerif-74" x="253.173828"/>
       <use xlink:href="#DejaVuSerif-61" x="293.359375"/>
       <use xlink:href="#DejaVuSerif-62" x="352.978516"/>
       <use xlink:href="#DejaVuSerif-6c" x="416.992188"/>
       <use xlink:href="#DejaVuSerif-65" x="448.974609"/>
      </g>
     </g>
    </g>
   </g>
   <g id="matplotlib.axis_2">
    <g id="ytick_1">
     <g id="line2d_5">
      <defs>
       <path id="mcc097b66d3" d="M 0 0 
L -3.5 0 
" style="stroke: #000000; stroke-width: 0.8"/>
      </defs>
      <g>
       <use xlink:href="#mcc097b66d3" x="53.328125" y="286.738767" style="stroke: #000000; stroke-width: 0.8"/>
      </g>
     </g>
     <g id="text_5">
      <!-- 10 -->
      <g transform="translate(33.603125 290.537986) scale(0.1 -0.1)">
       <use xlink:href="#DejaVuSerif-31"/>
       <use xlink:href="#DejaVuSerif-30" x="63.623047"/>
      </g>
     </g>
    </g>
    <g id="ytick_2">
     <g id="line2d_6">
      <g>
       <use xlink:href="#mcc097b66d3" x="53.328125" y="178.002297" style="stroke: #000000; stroke-width: 0.8"/>
      </g>
     </g>
     <g id="text_6">
      <!-- 100 -->
      <g transform="translate(27.240625 181.801516) scale(0.1 -0.1)">
       <use xlink:href="#DejaVuSerif-31"/>
       <use xlink:href="#DejaVuSerif-30" x="63.623047"/>
       <use xlink:href="#DejaVuSerif-30" x="127.246094"/>
      </g>
     </g>
    </g>
    <g id="ytick_3">
     <g id="line2d_7">
      <g>
       <use xlink:href="#mcc097b66d3" x="53.328125" y="69.265827" style="stroke: #000000; stroke-width: 0.8"/>
      </g>
     </g>
     <g id="text_7">
      <!-- 1000 -->
      <g transform="translate(20.878125 73.065046) scale(0.1 -0.1)">
       <use xlink:href="#DejaVuSerif-31"/>
       <use xlink:href="#DejaVuSerif-30" x="63.623047"/>
       <use xlink:href="#DejaVuSerif-30" x="127.246094"/>
       <use xlink:href="#DejaVuSerif-30" x="190.869141"/>
      </g>
     </g>
    </g>
    <g id="ytick_4">
     <g id="line2d_8">
      <defs>
       <path id="mf44d86e896" d="M 0 0 
L -2 0 
" style="stroke: #000000; stroke-width: 0.6"/>
      </defs>
      <g>
       <use xlink:href="#mf44d86e896" x="53.328125" y="310.861817" style="stroke: #000000; stroke-width: 0.6"/>
      </g>
     </g>
    </g>
    <g id="ytick_5">
     <g id="line2d_9">
      <g>
       <use xlink:href="#mf44d86e896" x="53.328125" y="303.58226" style="stroke: #000000; stroke-width: 0.6"/>
      </g>
     </g>
    </g>
    <g id="ytick_6">
     <g id="line2d_10">
      <g>
       <use xlink:href="#mf44d86e896" x="53.328125" y="297.27642" style="stroke: #000000; stroke-width: 0.6"/>
      </g>
     </g>
    </g>
    <g id="ytick_7">
     <g id="line2d_11">
      <g>
       <use xlink:href="#mf44d86e896" x="53.328125" y="291.714275" style="stroke: #000000; stroke-width: 0.6"/>
      </g>
     </g>
    </g>
    <g id="ytick_8">
     <g id="line2d_12">
      <g>
       <use xlink:href="#mf44d86e896" x="53.328125" y="254.005828" style="stroke: #000000; stroke-width: 0.6"/>
      </g>
     </g>
    </g>
    <g id="ytick_9">
     <g id="line2d_13">
      <g>
       <use xlink:href="#mf44d86e896" x="53.328125" y="234.858286" style="stroke: #000000; stroke-width: 0.6"/>
      </g>
     </g>
    </g>
    <g id="ytick_10">
     <g id="line2d_14">
      <g>
       <use xlink:href="#mf44d86e896" x="53.328125" y="221.272889" style="stroke: #000000; stroke-width: 0.6"/>
      </g>
     </g>
    </g>
    <g id="ytick_11">
     <g id="line2d_15">
      <g>
       <use xlink:href="#mf44d86e896" x="53.328125" y="210.735236" style="stroke: #000000; stroke-width: 0.6"/>
      </g>
     </g>
    </g>
    <g id="ytick_12">
     <g id="line2d_16">
      <g>
       <use xlink:href="#mf44d86e896" x="53.328125" y="202.125347" style="stroke: #000000; stroke-width: 0.6"/>
      </g>
     </g>
    </g>
    <g id="ytick_13">
     <g id="line2d_17">
      <g>
       <use xlink:href="#mf44d86e896" x="53.328125" y="194.845789" style="stroke: #000000; stroke-width: 0.6"/>
      </g>
     </g>
    </g>
    <g id="ytick_14">
     <g id="line2d_18">
      <g>
       <use xlink:href="#mf44d86e896" x="53.328125" y="188.53995" style="stroke: #000000; stroke-width: 0.6"/>
      </g>
     </g>
    </g>
    <g id="ytick_15">
     <g id="line2d_19">
      <g>
       <use xlink:href="#mf44d86e896" x="53.328125" y="182.977805" style="stroke: #000000; stroke-width: 0.6"/>
      </g>
     </g>
    </g>
    <g id="ytick_16">
     <g id="line2d_20">
      <g>
       <use xlink:href="#mf44d86e896" x="53.328125" y="145.269358" style="stroke: #000000; stroke-width: 0.6"/>
      </g>
     </g>
    </g>
    <g id="ytick_17">
     <g id="line2d_21">
      <g>
       <use xlink:href="#mf44d86e896" x="53.328125" y="126.121816" style="stroke: #000000; stroke-width: 0.6"/>
      </g>
     </g>
    </g>
    <g id="ytick_18">
     <g id="line2d_22">
      <g>
       <use xlink:href="#mf44d86e896" x="53.328125" y="112.536419" style="stroke: #000000; stroke-width: 0.6"/>
      </g>
     </g>
    </g>
    <g id="ytick_19">
     <g id="line2d_23">
      <g>
       <use xlink:href="#mf44d86e896" x="53.328125" y="101.998766" style="stroke: #000000; stroke-width: 0.6"/>
      </g>
     </g>
    </g>
    <g id="ytick_20">
     <g id="line2d_24">
      <g>
       <use xlink:href="#mf44d86e896" x="53.328125" y="93.388877" style="stroke: #000000; stroke-width: 0.6"/>
      </g>
     </g>
    </g>
    <g id="ytick_21">
     <g id="line2d_25">
      <g>
       <use xlink:href="#mf44d86e896" x="53.328125" y="86.109319" style="stroke: #000000; stroke-width: 0.6"/>
      </g>
     </g>
    </g>
    <g id="ytick_22">
     <g id="line2d_26">
      <g>
       <use xlink:href="#mf44d86e896" x="53.328125" y="79.80348" style="stroke: #000000; stroke-width: 0.6"/>
      </g>
     </g>
    </g>
    <g id="ytick_23">
     <g id="line2d_27">
      <g>
       <use xlink:href="#mf44d86e896" x="53.328125" y="74.241335" style="stroke: #000000; stroke-width: 0.6"/>
      </g>
     </g>
    </g>
    <g id="text_8">
     <!-- Median Duration (ms) -->
     <g transform="translate(14.798438 242.24625) rotate(-90) scale(0.1 -0.1)">
      <defs>
       <path id="DejaVuSerif-4d" d="M 353 0 
L 353 331 
L 947 331 
L 947 4331 
L 319 4331 
L 319 4666 
L 1678 4666 
L 3316 1344 
L 4953 4666 
L 6228 4666 
L 6228 4331 
L 5606 4331 
L 5606 331 
L 6203 331 
L 6203 0 
L 4378 0 
L 4378 331 
L 4972 331 
L 4972 3938 
L 3372 684 
L 2931 684 
L 1331 3938 
L 1331 331 
L 1925 331 
L 1925 0 
L 353 0 
z
" transform="scale(0.015625)"/>
       <path id="DejaVuSerif-69" d="M 622 4353 
Q 622 4497 726 4603 
Q 831 4709 978 4709 
Q 1122 4709 1226 4603 
Q 1331 4497 1331 4353 
Q 1331 4206 1228 4103 
Q 1125 4000 978 4000 
Q 831 4000 726 4103 
Q 622 4206 622 4353 
z
M 1356 331 
L 1900 331 
L 1900 0 
L 231 0 
L 231 331 
L 781 331 
L 781 2988 
L 231 2988 
L 231 3322 
L 1356 3322 
L 1356 331 
z
" transform="scale(0.015625)"/>
       <path id="DejaVuSerif-6e" d="M 263 0 
L 263 331 
L 781 331 
L 781 2988 
L 231 2988 
L 231 3322 
L 1356 3322 
L 1356 2731 
Q 1516 3069 1770 3241 
Q 2025 3413 2363 3413 
Q 2913 3413 3172 3097 
Q 3431 2781 3431 2113 
L 3431 331 
L 3944 331 
L 3944 0 
L 2356 0 
L 2356 331 
L 2853 331 
L 2853 1931 
Q 2853 2541 2703 2767 
Q 2553 2994 2175 2994 
Q 1775 2994 1565 2701 
Q 1356 2409 1356 1850 
L 1356 331 
L 1856 331 
L 1856 0 
L 263 0 
z
" transform="scale(0.015625)"/>
       <path id="DejaVuSerif-44" d="M 1581 331 
L 2163 331 
Q 3072 331 3558 850 
Q 4044 1369 4044 2338 
Q 4044 3306 3559 3818 
Q 3075 4331 2163 4331 
L 1581 4331 
L 1581 331 
z
M 353 0 
L 353 331 
L 947 331 
L 947 4331 
L 353 4331 
L 353 4666 
L 2209 4666 
Q 3416 4666 4089 4050 
Q 4763 3434 4763 2338 
Q 4763 1238 4088 619 
Q 3413 0 2209 0 
L 353 0 
z
" transform="scale(0.015625)"/>
       <path id="DejaVuSerif-75" d="M 2266 3322 
L 3341 3322 
L 3341 331 
L 3884 331 
L 3884 0 
L 2766 0 
L 2766 588 
Q 2606 256 2353 82 
Q 2100 -91 1766 -91 
Q 1213 -91 952 223 
Q 691 538 691 1209 
L 691 2988 
L 172 2988 
L 172 3322 
L 1269 3322 
L 1269 1388 
Q 1269 781 1417 556 
Q 1566 331 1947 331 
Q 2347 331 2556 625 
Q 2766 919 2766 1478 
L 2766 2988 
L 2266 2988 
L 2266 3322 
z
" transform="scale(0.015625)"/>
       <path id="DejaVuSerif-72" d="M 3059 3328 
L 3059 2497 
L 2728 2497 
Q 2713 2744 2591 2866 
Q 2469 2988 2234 2988 
Q 1809 2988 1582 2694 
Q 1356 2400 1356 1850 
L 1356 331 
L 2022 331 
L 2022 0 
L 263 0 
L 263 331 
L 781 331 
L 781 2994 
L 231 2994 
L 231 3322 
L 1356 3322 
L 1356 2731 
Q 1525 3078 1790 3245 
Q 2056 3413 2438 3413 
Q 2578 3413 2733 3391 
Q 2888 3369 3059 3328 
z
" transform="scale(0.015625)"/>
       <path id="DejaVuSerif-6f" d="M 1925 219 
Q 2388 219 2623 584 
Q 2859 950 2859 1663 
Q 2859 2375 2623 2739 
Q 2388 3103 1925 3103 
Q 1463 3103 1227 2739 
Q 991 2375 991 1663 
Q 991 950 1228 584 
Q 1466 219 1925 219 
z
M 1925 -91 
Q 1200 -91 759 389 
Q 319 869 319 1663 
Q 319 2456 758 2934 
Q 1197 3413 1925 3413 
Q 2653 3413 3092 2934 
Q 3531 2456 3531 1663 
Q 3531 869 3092 389 
Q 2653 -91 1925 -91 
z
" transform="scale(0.015625)"/>
       <path id="DejaVuSerif-28" d="M 2041 -997 
Q 1281 -656 893 83 
Q 506 822 506 1931 
Q 506 3044 893 3783 
Q 1281 4522 2041 4863 
L 2041 4556 
Q 1559 4225 1350 3623 
Q 1141 3022 1141 1931 
Q 1141 844 1350 242 
Q 1559 -359 2041 -691 
L 2041 -997 
z
" transform="scale(0.015625)"/>
       <path id="DejaVuSerif-29" d="M 453 -997 
L 453 -691 
Q 934 -359 1145 242 
Q 1356 844 1356 1931 
Q 1356 3022 1145 3623 
Q 934 4225 453 4556 
L 453 4863 
Q 1216 4522 1603 3783 
Q 1991 3044 1991 1931 
Q 1991 822 1603 83 
Q 1216 -656 453 -997 
z
" transform="scale(0.015625)"/>
      </defs>
      <use xlink:href="#DejaVuSerif-4d"/>
      <use xlink:href="#DejaVuSerif-65" x="102.392578"/>
      <use xlink:href="#DejaVuSerif-64" x="161.572266"/>
      <use xlink:href="#DejaVuSerif-69" x="225.585938"/>
      <use xlink:href="#DejaVuSerif-61" x="257.568359"/>
      <use xlink:href="#DejaVuSerif-6e" x="317.1875"/>
      <use xlink:href="#DejaVuSerif-20" x="381.591797"/>
      <use xlink:href="#DejaVuSerif-44" x="413.378906"/>
      <use xlink:href="#DejaVuSerif-75" x="493.554688"/>
      <use xlink:href="#DejaVuSerif-72" x="557.958984"/>
      <use xlink:href="#DejaVuSerif-61" x="605.761719"/>
      <use xlink:href="#DejaVuSerif-74" x="665.380859"/>
      <use xlink:href="#DejaVuSerif-69" x="705.566406"/>
      <use xlink:href="#DejaVuSerif-6f" x="737.548828"/>
      <use xlink:href="#DejaVuSerif-6e" x="797.753906"/>
      <use xlink:href="#DejaVuSerif-20" x="862.158203"/>
      <use xlink:href="#DejaVuSerif-28" x="893.945312"/>
      <use xlink:href="#DejaVuSerif-6d" x="932.958984"/>
      <use xlink:href="#DejaVuSerif-73" x="1027.783203"/>
      <use xlink:href="#DejaVuSerif-29" x="1079.101562"/>
     </g>
    </g>
   </g>
   <g id="patch_19">
    <path d="M 53.328125 311.24 
L 53.328125 61.44 
" style="fill: none; stroke: #000000; stroke-width: 0.8; stroke-linejoin: miter; stroke-linecap: square"/>
   </g>
   <g id="patch_20">
    <path d="M 53.328125 311.24 
L 426.748125 311.24 
" style="fill: none; stroke: #000000; stroke-width: 0.8; stroke-linejoin: miter; stroke-linecap: square"/>
   </g>
   <g id="text_9">
    <!-- ML-DSA65 + ML-KEM768 — Full vs Resumed -->
    <g transform="translate(111.195469 55.44) scale(0.11 -0.11)">
     <defs>
      <path id="DejaVuSerif-4c" d="M 353 0 
L 353 331 
L 947 331 
L 947 4331 
L 353 4331 
L 353 4666 
L 2175 4666 
L 2175 4331 
L 1581 4331 
L 1581 384 
L 3713 384 
L 3713 1166 
L 4097 1166 
L 4097 0 
L 353 0 
z
" transform="scale(0.015625)"/>
      <path id="DejaVuSerif-2d" d="M 281 1959 
L 1881 1959 
L 1881 1472 
L 281 1472 
L 281 1959 
z
" transform="scale(0.015625)"/>
      <path id="DejaVuSerif-41" d="M 1281 1691 
L 2994 1691 
L 2138 3909 
L 1281 1691 
z
M -38 0 
L -38 331 
L 372 331 
L 2034 4666 
L 2559 4666 
L 4225 331 
L 4684 331 
L 4684 0 
L 2988 0 
L 2988 331 
L 3506 331 
L 3116 1356 
L 1153 1356 
L 763 331 
L 1275 331 
L 1275 0 
L -38 0 
z
" transform="scale(0.015625)"/>
      <path id="DejaVuSerif-36" d="M 2094 219 
Q 2534 219 2771 542 
Q 3009 866 3009 1472 
Q 3009 2078 2771 2401 
Q 2534 2725 2094 2725 
Q 1647 2725 1412 2412 
Q 1178 2100 1178 1509 
Q 1178 888 1415 553 
Q 1653 219 2094 219 
z
M 1075 2569 
Q 1288 2803 1556 2918 
Q 1825 3034 2163 3034 
Q 2859 3034 3264 2615 
Q 3669 2197 3669 1472 
Q 3669 763 3233 336 
Q 2797 -91 2069 -91 
Q 1278 -91 853 498 
Q 428 1088 428 2181 
Q 428 3406 931 4078 
Q 1434 4750 2350 4750 
Q 2597 4750 2869 4703 
Q 3141 4656 3425 4563 
L 3425 3794 
L 3072 3794 
Q 3034 4109 2831 4275 
Q 2628 4441 2284 4441 
Q 1678 4441 1381 3981 
Q 1084 3522 1075 2569 
z
" transform="scale(0.015625)"/>
      <path id="DejaVuSerif-2b" d="M 2931 4013 
L 2931 2259 
L 4684 2259 
L 4684 1753 
L 2931 1753 
L 2931 0 
L 2431 0 
L 2431 1753 
L 678 1753 
L 678 2259 
L 2431 2259 
L 2431 4013 
L 2931 4013 
z
" transform="scale(0.015625)"/>
      <path id="DejaVuSerif-4b" d="M 353 0 
L 353 331 
L 947 331 
L 947 4331 
L 353 4331 
L 353 4666 
L 2175 4666 
L 2175 4331 
L 1581 4331 
L 1581 2566 
L 3591 4331 
L 3084 4331 
L 3084 4666 
L 4634 4666 
L 4634 4331 
L 4109 4331 
L 2106 2572 
L 4347 331 
L 4878 331 
L 4878 0 
L 3794 0 
L 1581 2216 
L 1581 331 
L 2175 331 
L 2175 0 
L 353 0 
z
" transform="scale(0.015625)"/>
      <path id="DejaVuSerif-37" d="M 3609 4347 
L 1784 0 
L 1319 0 
L 3059 4153 
L 903 4153 
L 903 3578 
L 538 3578 
L 538 4666 
L 3609 4666 
L 3609 4347 
z
" transform="scale(0.015625)"/>
      <path id="DejaVuSerif-38" d="M 2981 1275 
Q 2981 1775 2732 2051 
Q 2484 2328 2034 2328 
Q 1584 2328 1336 2051 
Q 1088 1775 1088 1275 
Q 1088 772 1336 495 
Q 1584 219 2034 219 
Q 2484 219 2732 495 
Q 2981 772 2981 1275 
z
M 2853 3541 
Q 2853 3966 2637 4203 
Q 2422 4441 2034 4441 
Q 1650 4441 1433 4203 
Q 1216 3966 1216 3541 
Q 1216 3113 1433 2875 
Q 1650 2638 2034 2638 
Q 2422 2638 2637 2875 
Q 2853 3113 2853 3541 
z
M 2516 2484 
Q 3047 2413 3344 2092 
Q 3641 1772 3641 1275 
Q 3641 619 3225 264 
Q 2809 -91 2034 -91 
Q 1263 -91 845 264 
Q 428 619 428 1275 
Q 428 1772 725 2092 
Q 1022 2413 1556 2484 
Q 1084 2569 832 2842 
Q 581 3116 581 3541 
Q 581 4103 968 4426 
Q 1356 4750 2034 4750 
Q 2713 4750 3100 4426 
Q 3488 4103 3488 3541 
Q 3488 3116 3236 2842 
Q 2984 2569 2516 2484 
z
" transform="scale(0.015625)"/>
      <path id="DejaVuSerif-2014" d="M 281 1906 
L 6119 1906 
L 6119 1491 
L 281 1491 
L 281 1906 
z
" transform="scale(0.015625)"/>
      <path id="DejaVuSerif-46" d="M 353 0 
L 353 331 
L 947 331 
L 947 4331 
L 353 4331 
L 353 4666 
L 4172 4666 
L 4172 3628 
L 3788 3628 
L 3788 4281 
L 1581 4281 
L 1581 2719 
L 3175 2719 
L 3175 3303 
L 3559 3303 
L 3559 1753 
L 3175 1753 
L 3175 2338 
L 1581 2338 
L 1581 331 
L 2328 331 
L 2328 0 
L 353 0 
z
" transform="scale(0.015625)"/>
      <path id="DejaVuSerif-76" d="M 1581 0 
L 359 2988 
L -19 2988 
L -19 3322 
L 1509 3322 
L 1509 2988 
L 978 2988 
L 1913 703 
L 2847 2988 
L 2350 2988 
L 2350 3322 
L 3597 3322 
L 3597 2988 
L 3225 2988 
L 2003 0 
L 1581 0 
z
" transform="scale(0.015625)"/>
      <path id="DejaVuSerif-52" d="M 3066 2316 
Q 3284 2256 3442 2114 
Q 3600 1972 3725 1716 
L 4403 331 
L 4972 331 
L 4972 0 
L 3872 0 
L 3144 1484 
Q 2934 1916 2759 2042 
Q 2584 2169 2278 2169 
L 1581 2169 
L 1581 331 
L 2241 331 
L 2241 0 
L 353 0 
L 353 331 
L 947 331 
L 947 4331 
L 353 4331 
L 353 4666 
L 2719 4666 
Q 3400 4666 3770 4341 
Q 4141 4016 4141 3419 
Q 4141 2938 3870 2661 
Q 3600 2384 3066 2316 
z
M 1581 2503 
L 2503 2503 
Q 2975 2503 3200 2726 
Q 3425 2950 3425 3419 
Q 3425 3888 3200 4109 
Q 2975 4331 2503 4331 
L 1581 4331 
L 1581 2503 
z
" transform="scale(0.015625)"/>
     </defs>
     <use xlink:href="#DejaVuSerif-4d"/>
     <use xlink:href="#DejaVuSerif-4c" x="102.392578"/>
     <use xlink:href="#DejaVuSerif-2d" x="168.798828"/>
     <use xlink:href="#DejaVuSerif-44" x="202.587891"/>
     <use xlink:href="#DejaVuSerif-53" x="282.763672"/>
     <use xlink:href="#DejaVuSerif-41" x="351.269531"/>
     <use xlink:href="#DejaVuSerif-36" x="423.486328"/>
     <use xlink:href="#DejaVuSerif-35" x="487.109375"/>
     <use xlink:href="#DejaVuSerif-20" x="550.732422"/>
     <use xlink:href="#DejaVuSerif-2b" x="582.519531"/>
     <use xlink:href="#DejaVuSerif-20" x="666.308594"/>
     <use xlink:href="#DejaVuSerif-4d" x="698.095703"/>
     <use xlink:href="#DejaVuSerif-4c" x="800.488281"/>
     <use xlink:href="#DejaVuSerif-2d" x="866.894531"/>
     <use xlink:href="#DejaVuSerif-4b" x="900.683594"/>
     <use xlink:href="#DejaVuSerif-45" x="975.390625"/>
     <use xlink:href="#DejaVuSerif-4d" x="1048.388672"/>
     <use xlink:href="#DejaVuSerif-37" x="1150.78125"/>
     <use xlink:href="#DejaVuSerif-36" x="1214.404297"/>
     <use xlink:href="#DejaVuSerif-38" x="1278.027344"/>
     <use xlink:href="#DejaVuSerif-20" x="1341.650391"/>
     <use xlink:href="#DejaVuSerif-2014" x="1373.4375"/>
     <use xlink:href="#DejaVuSerif-20" x="1473.4375"/>
     <use xlink:href="#DejaVuSerif-46" x="1505.224609"/>
     <use xlink:href="#DejaVuSerif-75" x="1574.609375"/>
     <use xlink:href="#DejaVuSerif-6c" x="1639.013672"/>
     <use xlink:href="#DejaVuSerif-6c" x="1670.996094"/>
     <use xlink:href="#DejaVuSerif-20" x="1702.978516"/>
     <use xlink:href="#DejaVuSerif-76" x="1734.765625"/>
     <use xlink:href="#DejaVuSerif-73" x="1791.259766"/>
     <use xlink:href="#DejaVuSerif-20" x="1842.578125"/>
     <use xlink:href="#DejaVuSerif-52" x="1874.365234"/>
     <use xlink:href="#DejaVuSerif-65" x="1949.658203"/>
     <use xlink:href="#DejaVuSerif-73" x="2008.837891"/>
     <use xlink:href="#DejaVuSerif-75" x="2060.15625"/>
     <use xlink:href="#DejaVuSerif-6d" x="2124.560547"/>
     <use xlink:href="#DejaVuSerif-65" x="2219.384766"/>
     <use xlink:href="#DejaVuSerif-64" x="2278.564453"/>
    </g>
   </g>
   <g id="legend_1">
    <g id="patch_21">
     <path d="M 334.564375 74.71875 
L 350.564375 74.71875 
L 350.564375 69.11875 
L 334.564375 69.11875 
z
" style="fill: #4472c4; opacity: 0.9"/>
    </g>
    <g id="text_10">
     <!-- TLS Full -->
     <g transform="translate(356.964375 74.71875) scale(0.08 -0.08)">
      <defs>
       <path id="DejaVuSerif-54" d="M 1222 0 
L 1222 331 
L 1819 331 
L 1819 4294 
L 447 4294 
L 447 3566 
L 63 3566 
L 63 4666 
L 4206 4666 
L 4206 3566 
L 3822 3566 
L 3822 4294 
L 2450 4294 
L 2450 331 
L 3047 331 
L 3047 0 
L 1222 0 
z
" transform="scale(0.015625)"/>
      </defs>
      <use xlink:href="#DejaVuSerif-54"/>
      <use xlink:href="#DejaVuSerif-4c" x="66.699219"/>
      <use xlink:href="#DejaVuSerif-53" x="133.105469"/>
      <use xlink:href="#DejaVuSerif-20" x="201.611328"/>
      <use xlink:href="#DejaVuSerif-46" x="233.398438"/>
      <use xlink:href="#DejaVuSerif-75" x="302.783203"/>
      <use xlink:href="#DejaVuSerif-6c" x="367.1875"/>
      <use xlink:href="#DejaVuSerif-6c" x="399.169922"/>
     </g>
    </g>
    <g id="patch_22">
     <path d="M 334.564375 86.46125 
L 350.564375 86.46125 
L 350.564375 80.86125 
L 334.564375 80.86125 
z
" style="fill: #5b9bd5; opacity: 0.9"/>
    </g>
    <g id="text_11">
     <!-- TLS Resumed -->
     <g transform="translate(356.964375 86.46125) scale(0.08 -0.08)">
      <use xlink:href="#DejaVuSerif-54"/>
      <use xlink:href="#DejaVuSerif-4c" x="66.699219"/>
      <use xlink:href="#DejaVuSerif-53" x="133.105469"/>
      <use xlink:href="#DejaVuSerif-20" x="201.611328"/>
      <use xlink:href="#DejaVuSerif-52" x="233.398438"/>
      <use xlink:href="#DejaVuSerif-65" x="308.691406"/>
      <use xlink:href="#DejaVuSerif-73" x="367.871094"/>
      <use xlink:href="#DejaVuSerif-75" x="419.189453"/>
      <use xlink:href="#DejaVuSerif-6d" x="483.59375"/>
      <use xlink:href="#DejaVuSerif-65" x="578.417969"/>
      <use xlink:href="#DejaVuSerif-64" x="637.597656"/>
     </g>
    </g>
    <g id="patch_23">
     <path d="M 334.564375 98.20375 
L 350.564375 98.20375 
L 350.564375 92.60375 
L 334.564375 92.60375 
z
" style="fill: #ed7d31; opacity: 0.9"/>
    </g>
    <g id="text_12">
     <!-- QUIC Full -->
     <g transform="translate(356.964375 98.20375) scale(0.08 -0.08)">
      <defs>
       <path id="DejaVuSerif-51" d="M 2700 -91 
Q 1628 -91 993 567 
Q 359 1225 359 2328 
Q 359 2894 529 3339 
Q 700 3784 1050 4134 
Q 1356 4441 1750 4595 
Q 2144 4750 2625 4750 
Q 3641 4750 4266 4084 
Q 4891 3419 4891 2328 
Q 4891 1403 4422 773 
Q 3953 144 3128 -38 
Q 3297 -247 3539 -347 
Q 3781 -447 4122 -447 
L 4219 -447 
L 4219 -1025 
Q 3691 -1000 3314 -767 
Q 2938 -534 2700 -91 
z
M 2625 244 
Q 3391 244 3781 770 
Q 4172 1297 4172 2328 
Q 4172 3363 3781 3889 
Q 3391 4416 2625 4416 
Q 1856 4416 1465 3889 
Q 1075 3363 1075 2328 
Q 1075 1297 1465 770 
Q 1856 244 2625 244 
z
" transform="scale(0.015625)"/>
       <path id="DejaVuSerif-55" d="M 897 4331 
L 300 4331 
L 300 4666 
L 2125 4666 
L 2125 4331 
L 1528 4331 
L 1528 1919 
Q 1528 1025 1820 672 
Q 2113 319 2828 319 
Q 3544 319 3836 672 
Q 4128 1025 4128 1919 
L 4128 4331 
L 3531 4331 
L 3531 4666 
L 5106 4666 
L 5106 4331 
L 4513 4331 
L 4513 1856 
Q 4513 791 4103 350 
Q 3694 -91 2713 -91 
Q 1731 -91 1314 353 
Q 897 797 897 1856 
L 897 4331 
z
" transform="scale(0.015625)"/>
       <path id="DejaVuSerif-43" d="M 4513 1234 
Q 4306 581 3820 245 
Q 3334 -91 2591 -91 
Q 2134 -91 1743 65 
Q 1353 222 1050 525 
Q 700 875 529 1320 
Q 359 1766 359 2328 
Q 359 3416 987 4083 
Q 1616 4750 2644 4750 
Q 3025 4750 3456 4650 
Q 3888 4550 4384 4347 
L 4384 3272 
L 4031 3272 
Q 3916 3859 3567 4137 
Q 3219 4416 2591 4416 
Q 1844 4416 1459 3886 
Q 1075 3356 1075 2328 
Q 1075 1303 1459 773 
Q 1844 244 2591 244 
Q 3113 244 3450 492 
Q 3788 741 3938 1234 
L 4513 1234 
z
" transform="scale(0.015625)"/>
      </defs>
      <use xlink:href="#DejaVuSerif-51"/>
      <use xlink:href="#DejaVuSerif-55" x="81.982422"/>
      <use xlink:href="#DejaVuSerif-49" x="166.259766"/>
      <use xlink:href="#DejaVuSerif-43" x="205.761719"/>
      <use xlink:href="#DejaVuSerif-20" x="282.275391"/>
      <use xlink:href="#DejaVuSerif-46" x="314.0625"/>
      <use xlink:href="#DejaVuSerif-75" x="383.447266"/>
      <use xlink:href="#DejaVuSerif-6c" x="447.851562"/>
      <use xlink:href="#DejaVuSerif-6c" x="479.833984"/>
     </g>
    </g>
    <g id="patch_24">
     <path d="M 334.564375 109.94625 
L 350.564375 109.94625 
L 350.564375 104.34625 
L 334.564375 104.34625 
z
" style="fill: #f4b183; opacity: 0.9"/>
    </g>
    <g id="text_13">
     <!-- QUIC Resumed -->
     <g transform="translate(356.964375 109.94625) scale(0.08 -0.08)">
      <use xlink:href="#DejaVuSerif-51"/>
      <use xlink:href="#DejaVuSerif-55" x="81.982422"/>
      <use xlink:href="#DejaVuSerif-49" x="166.259766"/>
      <use xlink:href="#DejaVuSerif-43" x="205.761719"/>
      <use xlink:href="#DejaVuSerif-20" x="282.275391"/>
      <use xlink:href="#DejaVuSerif-52" x="314.0625"/>
      <use xlink:href="#DejaVuSerif-65" x="389.355469"/>
      <use xlink:href="#DejaVuSerif-73" x="448.535156"/>
      <use xlink:href="#DejaVuSerif-75" x="499.853516"/>
      <use xlink:href="#DejaVuSerif-6d" x="564.257812"/>
      <use xlink:href="#DejaVuSerif-65" x="659.082031"/>
      <use xlink:href="#DejaVuSerif-64" x="718.261719"/>
     </g>
    </g>
   </g>
  </g>
  <g id="axes_2">
   <g id="patch_25">
    <path d="M 476.748125 311.24 
L 850.168125 311.24 
L 850.168125 61.44 
L 476.748125 61.44 
z
" style="fill: #ffffff"/>
   </g>
   <g id="patch_26">
    <path d="M 493.721761 311.24 
L 513.690745 311.24 
L 513.690745 84.149091 
L 493.721761 84.149091 
z
" clip-path="url(#p7b072db9c3)" style="fill: #4472c4; opacity: 0.9"/>
   </g>
   <g id="patch_27">
    <path d="M 593.566681 311.24 
L 613.535665 311.24 
L 613.535665 311.24 
L 593.566681 311.24 
z
" clip-path="url(#p7b072db9c3)" style="fill: #4472c4; opacity: 0.9"/>
   </g>
   <g id="patch_28">
    <path d="M 693.411601 311.24 
L 713.380585 311.24 
L 713.380585 311.24 
L 693.411601 311.24 
z
" clip-path="url(#p7b072db9c3)" style="fill: #4472c4; opacity: 0.9"/>
   </g>
   <g id="patch_29">
    <path d="M 793.256521 311.24 
L 813.225505 311.24 
L 813.225505 84.149091 
L 793.256521 84.149091 
z
" clip-path="url(#p7b072db9c3)" style="fill: #4472c4; opacity: 0.9"/>
   </g>
   <g id="patch_30">
    <path d="M 513.690745 311.24 
L 533.659729 311.24 
L 533.659729 84.149091 
L 513.690745 84.149091 
z
" clip-path="url(#p7b072db9c3)" style="fill: #ed7d31; opacity: 0.9"/>
   </g>
   <g id="patch_31">
    <path d="M 613.535665 311.24 
L 633.504649 311.24 
L 633.504649 84.149091 
L 613.535665 84.149091 
z
" clip-path="url(#p7b072db9c3)" style="fill: #ed7d31; opacity: 0.9"/>
   </g>
   <g id="patch_32">
    <path d="M 713.380585 311.24 
L 733.349569 311.24 
L 733.349569 84.149091 
L 713.380585 84.149091 
z
" clip-path="url(#p7b072db9c3)" style="fill: #ed7d31; opacity: 0.9"/>
   </g>
   <g id="patch_33">
    <path d="M 813.225505 311.24 
L 833.194489 311.24 
L 833.194489 84.149091 
L 813.225505 84.149091 
z
" clip-path="url(#p7b072db9c3)" style="fill: #ed7d31; opacity: 0.9"/>
   </g>
   <g id="matplotlib.axis_3">
    <g id="xtick_5">
     <g id="line2d_28">
      <g>
       <use xlink:href="#mce05d29069" x="513.690745" y="311.24" style="stroke: #000000; stroke-width: 0.8"/>
      </g>
     </g>
     <g id="text_14">
      <!-- Ideal -->
      <g transform="translate(502.246683 325.078594) scale(0.09 -0.09)">
       <use xlink:href="#DejaVuSerif-49"/>
       <use xlink:href="#DejaVuSerif-64" x="39.501953"/>
       <use xlink:href="#DejaVuSerif-65" x="103.515625"/>
       <use xlink:href="#DejaVuSerif-61" x="162.695312"/>
       <use xlink:href="#DejaVuSerif-6c" x="222.314453"/>
      </g>
     </g>
    </g>
    <g id="xtick_6">
     <g id="line2d_29">
      <g>
       <use xlink:href="#mce05d29069" x="613.535665" y="311.24" style="stroke: #000000; stroke-width: 0.8"/>
      </g>
     </g>
     <g id="text_15">
      <!-- 35ms/2% -->
      <g transform="translate(592.578321 325.078594) scale(0.09 -0.09)">
       <use xlink:href="#DejaVuSerif-33"/>
       <use xlink:href="#DejaVuSerif-35" x="63.623047"/>
       <use xlink:href="#DejaVuSerif-6d" x="127.246094"/>
       <use xlink:href="#DejaVuSerif-73" x="222.070312"/>
       <use xlink:href="#DejaVuSerif-2f" x="273.388672"/>
       <use xlink:href="#DejaVuSerif-32" x="307.080078"/>
       <use xlink:href="#DejaVuSerif-25" x="370.703125"/>
      </g>
     </g>
    </g>
    <g id="xtick_7">
     <g id="line2d_30">
      <g>
       <use xlink:href="#mce05d29069" x="713.380585" y="311.24" style="stroke: #000000; stroke-width: 0.8"/>
      </g>
     </g>
     <g id="text_16">
      <!-- 200ms/10% -->
      <g transform="translate(686.696991 325.078594) scale(0.09 -0.09)">
       <use xlink:href="#DejaVuSerif-32"/>
       <use xlink:href="#DejaVuSerif-30" x="63.623047"/>
       <use xlink:href="#DejaVuSerif-30" x="127.246094"/>
       <use xlink:href="#DejaVuSerif-6d" x="190.869141"/>
       <use xlink:href="#DejaVuSerif-73" x="285.693359"/>
       <use xlink:href="#DejaVuSerif-2f" x="337.011719"/>
       <use xlink:href="#DejaVuSerif-31" x="370.703125"/>
       <use xlink:href="#DejaVuSerif-30" x="434.326172"/>
       <use xlink:href="#DejaVuSerif-25" x="497.949219"/>
      </g>
     </g>
    </g>
    <g id="xtick_8">
     <g id="line2d_31">
      <g>
       <use xlink:href="#mce05d29069" x="813.225505" y="311.24" style="stroke: #000000; stroke-width: 0.8"/>
      </g>
     </g>
     <g id="text_17">
      <!-- GE Stable -->
      <g transform="translate(790.35777 325.078594) scale(0.09 -0.09)">
       <use xlink:href="#DejaVuSerif-47"/>
       <use xlink:href="#DejaVuSerif-45" x="79.882812"/>
       <use xlink:href="#DejaVuSerif-20" x="152.880859"/>
       <use xlink:href="#DejaVuSerif-53" x="184.667969"/>
       <use xlink:href="#DejaVuSerif-74" x="253.173828"/>
       <use xlink:href="#DejaVuSerif-61" x="293.359375"/>
       <use xlink:href="#DejaVuSerif-62" x="352.978516"/>
       <use xlink:href="#DejaVuSerif-6c" x="416.992188"/>
       <use xlink:href="#DejaVuSerif-65" x="448.974609"/>
      </g>
     </g>
    </g>
   </g>
   <g id="matplotlib.axis_4">
    <g id="ytick_24">
     <g id="line2d_32">
      <g>
       <use xlink:href="#mcc097b66d3" x="476.748125" y="311.24" style="stroke: #000000; stroke-width: 0.8"/>
      </g>
     </g>
     <g id="text_18">
      <!-- 0 -->
      <g transform="translate(463.385625 315.039219) scale(0.1 -0.1)">
       <use xlink:href="#DejaVuSerif-30"/>
      </g>
     </g>
    </g>
    <g id="ytick_25">
     <g id="line2d_33">
      <g>
       <use xlink:href="#mcc097b66d3" x="476.748125" y="265.821818" style="stroke: #000000; stroke-width: 0.8"/>
      </g>
     </g>
     <g id="text_19">
      <!-- 20 -->
      <g transform="translate(457.023125 269.621037) scale(0.1 -0.1)">
       <use xlink:href="#DejaVuSerif-32"/>
       <use xlink:href="#DejaVuSerif-30" x="63.623047"/>
      </g>
     </g>
    </g>
    <g id="ytick_26">
     <g id="line2d_34">
      <g>
       <use xlink:href="#mcc097b66d3" x="476.748125" y="220.403636" style="stroke: #000000; stroke-width: 0.8"/>
      </g>
     </g>
     <g id="text_20">
      <!-- 40 -->
      <g transform="translate(457.023125 224.202855) scale(0.1 -0.1)">
       <defs>
        <path id="DejaVuSerif-34" d="M 2234 1581 
L 2234 4063 
L 641 1581 
L 2234 1581 
z
M 3609 0 
L 1484 0 
L 1484 331 
L 2234 331 
L 2234 1247 
L 197 1247 
L 197 1588 
L 2241 4750 
L 2859 4750 
L 2859 1581 
L 3750 1581 
L 3750 1247 
L 2859 1247 
L 2859 331 
L 3609 331 
L 3609 0 
z
" transform="scale(0.015625)"/>
       </defs>
       <use xlink:href="#DejaVuSerif-34"/>
       <use xlink:href="#DejaVuSerif-30" x="63.623047"/>
      </g>
     </g>
    </g>
    <g id="ytick_27">
     <g id="line2d_35">
      <g>
       <use xlink:href="#mcc097b66d3" x="476.748125" y="174.985455" style="stroke: #000000; stroke-width: 0.8"/>
      </g>
     </g>
     <g id="text_21">
      <!-- 60 -->
      <g transform="translate(457.023125 178.784673) scale(0.1 -0.1)">
       <use xlink:href="#DejaVuSerif-36"/>
       <use xlink:href="#DejaVuSerif-30" x="63.623047"/>
      </g>
     </g>
    </g>
    <g id="ytick_28">
     <g id="line2d_36">
      <g>
       <use xlink:href="#mcc097b66d3" x="476.748125" y="129.567273" style="stroke: #000000; stroke-width: 0.8"/>
      </g>
     </g>
     <g id="text_22">
      <!-- 80 -->
      <g transform="translate(457.023125 133.366491) scale(0.1 -0.1)">
       <use xlink:href="#DejaVuSerif-38"/>
       <use xlink:href="#DejaVuSerif-30" x="63.623047"/>
      </g>
     </g>
    </g>
    <g id="ytick_29">
     <g id="line2d_37">
      <g>
       <use xlink:href="#mcc097b66d3" x="476.748125" y="84.149091" style="stroke: #000000; stroke-width: 0.8"/>
      </g>
     </g>
     <g id="text_23">
      <!-- 100 -->
      <g transform="translate(450.660625 87.94831) scale(0.1 -0.1)">
       <use xlink:href="#DejaVuSerif-31"/>
       <use xlink:href="#DejaVuSerif-30" x="63.623047"/>
       <use xlink:href="#DejaVuSerif-30" x="127.246094"/>
      </g>
     </g>
    </g>
    <g id="text_24">
     <!-- Resumed Success Rate (%) -->
     <g transform="translate(444.580938 255.334531) rotate(-90) scale(0.1 -0.1)">
      <defs>
       <path id="DejaVuSerif-63" d="M 3291 997 
Q 3169 466 2822 187 
Q 2475 -91 1925 -91 
Q 1200 -91 759 389 
Q 319 869 319 1663 
Q 319 2459 759 2936 
Q 1200 3413 1925 3413 
Q 2241 3413 2553 3339 
Q 2866 3266 3181 3116 
L 3181 2266 
L 2847 2266 
Q 2781 2703 2561 2903 
Q 2341 3103 1931 3103 
Q 1466 3103 1228 2742 
Q 991 2381 991 1663 
Q 991 944 1227 581 
Q 1463 219 1931 219 
Q 2303 219 2525 412 
Q 2747 606 2828 997 
L 3291 997 
z
" transform="scale(0.015625)"/>
      </defs>
      <use xlink:href="#DejaVuSerif-52"/>
      <use xlink:href="#DejaVuSerif-65" x="75.292969"/>
      <use xlink:href="#DejaVuSerif-73" x="134.472656"/>
      <use xlink:href="#DejaVuSerif-75" x="185.791016"/>
      <use xlink:href="#DejaVuSerif-6d" x="250.195312"/>
      <use xlink:href="#DejaVuSerif-65" x="345.019531"/>
      <use xlink:href="#DejaVuSerif-64" x="404.199219"/>
      <use xlink:href="#DejaVuSerif-20" x="468.212891"/>
      <use xlink:href="#DejaVuSerif-53" x="500"/>
      <use xlink:href="#DejaVuSerif-75" x="568.505859"/>
      <use xlink:href="#DejaVuSerif-63" x="632.910156"/>
      <use xlink:href="#DejaVuSerif-63" x="688.916016"/>
      <use xlink:href="#DejaVuSerif-65" x="744.921875"/>
      <use xlink:href="#DejaVuSerif-73" x="804.101562"/>
      <use xlink:href="#DejaVuSerif-73" x="855.419922"/>
      <use xlink:href="#DejaVuSerif-20" x="906.738281"/>
      <use xlink:href="#DejaVuSerif-52" x="938.525391"/>
      <use xlink:href="#DejaVuSerif-61" x="1016.068359"/>
      <use xlink:href="#DejaVuSerif-74" x="1075.6875"/>
      <use xlink:href="#DejaVuSerif-65" x="1115.873047"/>
      <use xlink:href="#DejaVuSerif-20" x="1175.052734"/>
      <use xlink:href="#DejaVuSerif-28" x="1206.839844"/>
      <use xlink:href="#DejaVuSerif-25" x="1245.853516"/>
      <use xlink:href="#DejaVuSerif-29" x="1340.873047"/>
     </g>
    </g>
   </g>
   <g id="patch_34">
    <path d="M 476.748125 311.24 
L 476.748125 61.44 
" style="fill: none; stroke: #000000; stroke-width: 0.8; stroke-linejoin: miter; stroke-linecap: square"/>
   </g>
   <g id="patch_35">
    <path d="M 476.748125 311.24 
L 850.168125 311.24 
" style="fill: none; stroke: #000000; stroke-width: 0.8; stroke-linejoin: miter; stroke-linecap: square"/>
   </g>
   <g id="text_25">
    <!-- 100% -->
    <g transform="translate(493.075003 79.607273) scale(0.07 -0.07)">
     <defs>
      <path id="DejaVuSerif-Bold-31" d="M 878 0 
L 878 378 
L 1753 378 
L 1753 4153 
L 781 3578 
L 781 4044 
L 1953 4750 
L 2938 4750 
L 2938 378 
L 3816 378 
L 3816 0 
L 878 0 
z
" transform="scale(0.015625)"/>
      <path id="DejaVuSerif-Bold-30" d="M 2228 275 
Q 2603 275 2742 615 
Q 2881 956 2881 2328 
Q 2881 3691 2742 4037 
Q 2603 4384 2228 4384 
Q 1853 4384 1714 4043 
Q 1575 3703 1575 2328 
Q 1575 956 1714 615 
Q 1853 275 2228 275 
z
M 2228 -91 
Q 1294 -91 797 532 
Q 300 1156 300 2328 
Q 300 3500 797 4125 
Q 1294 4750 2228 4750 
Q 3159 4750 3656 4125 
Q 4153 3500 4153 2328 
Q 4153 1156 3656 532 
Q 3159 -91 2228 -91 
z
" transform="scale(0.015625)"/>
      <path id="DejaVuSerif-Bold-25" d="M 1381 4434 
Q 1181 4434 1093 4217 
Q 1006 4000 1006 3481 
Q 1006 2959 1093 2740 
Q 1181 2522 1381 2522 
Q 1584 2522 1671 2740 
Q 1759 2959 1759 3481 
Q 1759 4000 1671 4217 
Q 1584 4434 1381 4434 
z
M 1381 4750 
Q 1978 4750 2295 4423 
Q 2613 4097 2613 3481 
Q 2613 2866 2295 2537 
Q 1978 2209 1381 2209 
Q 788 2209 470 2537 
Q 153 2866 153 3481 
Q 153 4097 470 4423 
Q 788 4750 1381 4750 
z
M 4231 4750 
L 4769 4750 
L 1850 -91 
L 1313 -91 
L 4231 4750 
z
M 4697 2450 
Q 5294 2450 5609 2123 
Q 5925 1797 5925 1184 
Q 5925 569 5609 239 
Q 5294 -91 4697 -91 
Q 4103 -91 3786 239 
Q 3469 569 3469 1184 
Q 3469 1797 3786 2123 
Q 4103 2450 4697 2450 
z
M 4697 2138 
Q 4494 2138 4406 1920 
Q 4319 1703 4319 1184 
Q 4319 663 4408 444 
Q 4497 225 4697 225 
Q 4900 225 4987 444 
Q 5075 663 5075 1184 
Q 5075 1703 4987 1920 
Q 4900 2138 4697 2138 
z
" transform="scale(0.015625)"/>
     </defs>
     <use xlink:href="#DejaVuSerif-Bold-31"/>
     <use xlink:href="#DejaVuSerif-Bold-30" x="69.580078"/>
     <use xlink:href="#DejaVuSerif-Bold-30" x="139.160156"/>
     <use xlink:href="#DejaVuSerif-Bold-25" x="208.740234"/>
    </g>
   </g>
   <g id="text_26">
    <!-- 100% -->
    <g transform="translate(513.043987 79.607273) scale(0.07 -0.07)">
     <use xlink:href="#DejaVuSerif-Bold-31"/>
     <use xlink:href="#DejaVuSerif-Bold-30" x="69.580078"/>
     <use xlink:href="#DejaVuSerif-Bold-30" x="139.160156"/>
     <use xlink:href="#DejaVuSerif-Bold-25" x="208.740234"/>
    </g>
   </g>
   <g id="text_27">
    <!-- 100% -->
    <g transform="translate(612.888907 79.607273) scale(0.07 -0.07)">
     <use xlink:href="#DejaVuSerif-Bold-31"/>
     <use xlink:href="#DejaVuSerif-Bold-30" x="69.580078"/>
     <use xlink:href="#DejaVuSerif-Bold-30" x="139.160156"/>
     <use xlink:href="#DejaVuSerif-Bold-25" x="208.740234"/>
    </g>
   </g>
   <g id="text_28">
    <!-- 100% -->
    <g transform="translate(712.733827 79.607273) scale(0.07 -0.07)">
     <use xlink:href="#DejaVuSerif-Bold-31"/>
     <use xlink:href="#DejaVuSerif-Bold-30" x="69.580078"/>
     <use xlink:href="#DejaVuSerif-Bold-30" x="139.160156"/>
     <use xlink:href="#DejaVuSerif-Bold-25" x="208.740234"/>
    </g>
   </g>
   <g id="text_29">
    <!-- 100% -->
    <g transform="translate(792.609763 79.607273) scale(0.07 -0.07)">
     <use xlink:href="#DejaVuSerif-Bold-31"/>
     <use xlink:href="#DejaVuSerif-Bold-30" x="69.580078"/>
     <use xlink:href="#DejaVuSerif-Bold-30" x="139.160156"/>
     <use xlink:href="#DejaVuSerif-Bold-25" x="208.740234"/>
    </g>
   </g>
   <g id="text_30">
    <!-- 100% -->
    <g transform="translate(812.578747 79.607273) scale(0.07 -0.07)">
     <use xlink:href="#DejaVuSerif-Bold-31"/>
     <use xlink:href="#DejaVuSerif-Bold-30" x="69.580078"/>
     <use xlink:href="#DejaVuSerif-Bold-30" x="139.160156"/>
     <use xlink:href="#DejaVuSerif-Bold-25" x="208.740234"/>
    </g>
   </g>
   <g id="text_31">
    <!-- Session Resumption Success Rate -->
    <g transform="translate(568.234219 55.44) scale(0.11 -0.11)">
     <defs>
      <path id="DejaVuSerif-70" d="M 1313 1825 
L 1313 1497 
Q 1313 897 1542 583 
Q 1772 269 2209 269 
Q 2650 269 2876 622 
Q 3103 975 3103 1663 
Q 3103 2353 2876 2703 
Q 2650 3053 2209 3053 
Q 1772 3053 1542 2737 
Q 1313 2422 1313 1825 
z
M 738 2988 
L 184 2988 
L 184 3322 
L 1313 3322 
L 1313 2803 
Q 1481 3116 1742 3264 
Q 2003 3413 2388 3413 
Q 3000 3413 3387 2928 
Q 3775 2444 3775 1663 
Q 3775 881 3387 395 
Q 3000 -91 2388 -91 
Q 2003 -91 1742 57 
Q 1481 206 1313 519 
L 1313 -997 
L 1856 -997 
L 1856 -1331 
L 184 -1331 
L 184 -997 
L 738 -997 
L 738 2988 
z
" transform="scale(0.015625)"/>
     </defs>
     <use xlink:href="#DejaVuSerif-53"/>
     <use xlink:href="#DejaVuSerif-65" x="68.505859"/>
     <use xlink:href="#DejaVuSerif-73" x="127.685547"/>
     <use xlink:href="#DejaVuSerif-73" x="179.003906"/>
     <use xlink:href="#DejaVuSerif-69" x="230.322266"/>
     <use xlink:href="#DejaVuSerif-6f" x="262.304688"/>
     <use xlink:href="#DejaVuSerif-6e" x="322.509766"/>
     <use xlink:href="#DejaVuSerif-20" x="386.914062"/>
     <use xlink:href="#DejaVuSerif-52" x="418.701172"/>
     <use xlink:href="#DejaVuSerif-65" x="493.994141"/>
     <use xlink:href="#DejaVuSerif-73" x="553.173828"/>
     <use xlink:href="#DejaVuSerif-75" x="604.492188"/>
     <use xlink:href="#DejaVuSerif-6d" x="668.896484"/>
     <use xlink:href="#DejaVuSerif-70" x="763.720703"/>
     <use xlink:href="#DejaVuSerif-74" x="827.734375"/>
     <use xlink:href="#DejaVuSerif-69" x="867.919922"/>
     <use xlink:href="#DejaVuSerif-6f" x="899.902344"/>
     <use xlink:href="#DejaVuSerif-6e" x="960.107422"/>
     <use xlink:href="#DejaVuSerif-20" x="1024.511719"/>
     <use xlink:href="#DejaVuSerif-53" x="1056.298828"/>
     <use xlink:href="#DejaVuSerif-75" x="1124.804688"/>
     <use xlink:href="#DejaVuSerif-63" x="1189.208984"/>
     <use xlink:href="#DejaVuSerif-63" x="1245.214844"/>
     <use xlink:href="#DejaVuSerif-65" x="1301.220703"/>
     <use xlink:href="#DejaVuSerif-73" x="1360.400391"/>
     <use xlink:href="#DejaVuSerif-73" x="1411.71875"/>
     <use xlink:href="#DejaVuSerif-20" x="1463.037109"/>
     <use xlink:href="#DejaVuSerif-52" x="1494.824219"/>
     <use xlink:href="#DejaVuSerif-61" x="1572.367188"/>
     <use xlink:href="#DejaVuSerif-74" x="1631.986328"/>
     <use xlink:href="#DejaVuSerif-65" x="1672.171875"/>
    </g>
   </g>
   <g id="legend_2">
    <g id="patch_36">
     <path d="M 640.966875 290.63375 
L 656.966875 290.63375 
L 656.966875 285.03375 
L 640.966875 285.03375 
z
" style="fill: #4472c4; opacity: 0.9"/>
    </g>
    <g id="text_32">
     <!-- TLS -->
     <g transform="translate(663.366875 290.63375) scale(0.08 -0.08)">
      <use xlink:href="#DejaVuSerif-54"/>
      <use xlink:href="#DejaVuSerif-4c" x="66.699219"/>
      <use xlink:href="#DejaVuSerif-53" x="133.105469"/>
     </g>
    </g>
    <g id="patch_37">
     <path d="M 640.966875 302.37625 
L 656.966875 302.37625 
L 656.966875 296.77625 
L 640.966875 296.77625 
z
" style="fill: #ed7d31; opacity: 0.9"/>
    </g>
    <g id="text_33">
     <!-- QUIC -->
     <g transform="translate(663.366875 302.37625) scale(0.08 -0.08)">
      <use xlink:href="#DejaVuSerif-51"/>
      <use xlink:href="#DejaVuSerif-55" x="81.982422"/>
      <use xlink:href="#DejaVuSerif-49" x="166.259766"/>
      <use xlink:href="#DejaVuSerif-43" x="205.761719"/>
     </g>
    </g>
   </g>
  </g>
  <g id="text_34">
   <!-- Post-Quantum TLS 1.3 vs QUIC — Session Resumption (Batch Séparés) -->
   <g transform="translate(189.425625 16.798125) scale(0.12 -0.12)">
    <defs>
     <path id="DejaVuSerif-Bold-50" d="M 300 0 
L 300 378 
L 897 378 
L 897 4288 
L 300 4288 
L 300 4666 
L 2956 4666 
Q 3734 4666 4193 4295 
Q 4653 3925 4653 3303 
Q 4653 2678 4192 2304 
Q 3731 1931 2956 1931 
L 2100 1931 
L 2100 378 
L 2853 378 
L 2853 0 
L 300 0 
z
M 2100 2309 
L 2450 2309 
Q 2856 2309 3098 2579 
Q 3341 2850 3341 3303 
Q 3341 3753 3100 4020 
Q 2859 4288 2450 4288 
L 2100 4288 
L 2100 2309 
z
" transform="scale(0.015625)"/>
     <path id="DejaVuSerif-Bold-6f" d="M 2138 263 
Q 2488 263 2630 563 
Q 2772 863 2772 1663 
Q 2772 2463 2631 2761 
Q 2491 3059 2138 3059 
Q 1784 3059 1640 2757 
Q 1497 2456 1497 1663 
Q 1497 869 1640 566 
Q 1784 263 2138 263 
z
M 2138 -91 
Q 1259 -91 761 376 
Q 263 844 263 1663 
Q 263 2484 761 2948 
Q 1259 3413 2138 3413 
Q 3019 3413 3516 2948 
Q 4013 2484 4013 1663 
Q 4013 844 3514 376 
Q 3016 -91 2138 -91 
z
" transform="scale(0.015625)"/>
     <path id="DejaVuSerif-Bold-73" d="M 300 97 
L 300 1025 
L 653 1025 
Q 697 653 931 458 
Q 1166 263 1569 263 
Q 1906 263 2086 380 
Q 2266 497 2266 716 
Q 2266 916 2152 1025 
Q 2038 1134 1709 1216 
L 1253 1331 
Q 738 1459 506 1698 
Q 275 1938 275 2344 
Q 275 2884 650 3148 
Q 1025 3413 1806 3413 
Q 2100 3413 2433 3364 
Q 2766 3316 3169 3213 
L 3169 2375 
L 2816 2375 
Q 2788 2716 2573 2887 
Q 2359 3059 1959 3059 
Q 1622 3059 1448 2951 
Q 1275 2844 1275 2638 
Q 1275 2469 1375 2372 
Q 1475 2275 1734 2209 
L 2188 2094 
Q 2841 1928 3091 1684 
Q 3341 1441 3341 1006 
Q 3341 444 2939 176 
Q 2538 -91 1691 -91 
Q 1381 -91 1034 -44 
Q 688 3 300 97 
z
" transform="scale(0.015625)"/>
     <path id="DejaVuSerif-Bold-74" d="M 634 2944 
L 153 2944 
L 153 3322 
L 634 3322 
L 634 4353 
L 1741 4353 
L 1741 3322 
L 2663 3322 
L 2663 2944 
L 1741 2944 
L 1741 909 
Q 1741 475 1809 369 
Q 1878 263 2059 263 
Q 2259 263 2356 397 
Q 2453 531 2459 813 
L 2925 813 
Q 2897 313 2651 111 
Q 2406 -91 1806 -91 
Q 1122 -91 878 123 
Q 634 338 634 909 
L 634 2944 
z
" transform="scale(0.015625)"/>
     <path id="DejaVuSerif-Bold-2d" d="M 347 2138 
L 2309 2138 
L 2309 1294 
L 347 1294 
L 347 2138 
z
" transform="scale(0.015625)"/>
     <path id="DejaVuSerif-Bold-51" d="M 2766 -91 
Q 1584 -72 926 565 
Q 269 1203 269 2328 
Q 269 3459 939 4104 
Q 1609 4750 2784 4750 
Q 3963 4750 4631 4106 
Q 5300 3463 5300 2328 
Q 5300 1334 4786 715 
Q 4272 97 3322 -50 
Q 3488 -228 3725 -306 
Q 3963 -384 4341 -384 
L 4500 -384 
L 4500 -1153 
L 4409 -1153 
Q 3816 -1153 3419 -897 
Q 3022 -641 2766 -91 
z
M 2784 288 
Q 3381 288 3672 791 
Q 3963 1294 3963 2328 
Q 3963 3366 3672 3869 
Q 3381 4372 2784 4372 
Q 2191 4372 1898 3864 
Q 1606 3356 1606 2328 
Q 1606 1303 1898 795 
Q 2191 288 2784 288 
z
" transform="scale(0.015625)"/>
     <path id="DejaVuSerif-Bold-75" d="M 3963 3322 
L 3963 378 
L 4434 378 
L 4434 0 
L 2853 0 
L 2853 469 
Q 2656 172 2400 40 
Q 2144 -91 1753 -91 
Q 1194 -91 908 239 
Q 622 569 622 1209 
L 622 2944 
L 147 2944 
L 147 3322 
L 1728 3322 
L 1728 1381 
Q 1728 763 1831 595 
Q 1934 428 2209 428 
Q 2544 428 2698 675 
Q 2853 922 2853 1459 
L 2853 2944 
L 2450 2944 
L 2450 3322 
L 3963 3322 
z
" transform="scale(0.015625)"/>
     <path id="DejaVuSerif-Bold-61" d="M 3525 2041 
L 3525 378 
L 4000 378 
L 4000 0 
L 2419 0 
L 2419 422 
Q 2200 159 1931 34 
Q 1663 -91 1319 -91 
Q 809 -91 536 182 
Q 263 456 263 966 
Q 263 1525 655 1803 
Q 1047 2081 1838 2081 
L 2419 2081 
L 2419 2278 
Q 2419 2681 2228 2873 
Q 2038 3066 1638 3066 
Q 1306 3066 1126 2930 
Q 947 2794 872 2484 
L 519 2484 
L 519 3200 
Q 816 3306 1134 3359 
Q 1453 3413 1806 3413 
Q 2697 3413 3111 3081 
Q 3525 2750 3525 2041 
z
M 2419 1044 
L 2419 1709 
L 2003 1709 
Q 1694 1709 1528 1540 
Q 1363 1372 1363 1056 
Q 1363 741 1483 584 
Q 1603 428 1850 428 
Q 2106 428 2262 597 
Q 2419 766 2419 1044 
z
" transform="scale(0.015625)"/>
     <path id="DejaVuSerif-Bold-6e" d="M 219 0 
L 219 378 
L 691 378 
L 691 2944 
L 219 2944 
L 219 3322 
L 1797 3322 
L 1797 2853 
Q 1997 3150 2253 3281 
Q 2509 3413 2900 3413 
Q 3459 3413 3745 3083 
Q 4031 2753 4031 2113 
L 4031 378 
L 4506 378 
L 4506 0 
L 2522 0 
L 2522 378 
L 2925 378 
L 2925 2144 
Q 2925 2566 2817 2730 
Q 2709 2894 2444 2894 
Q 2109 2894 1953 2648 
Q 1797 2403 1797 1869 
L 1797 378 
L 2203 378 
L 2203 0 
L 219 0 
z
" transform="scale(0.015625)"/>
     <path id="DejaVuSerif-Bold-6d" d="M 3884 2778 
Q 4116 3109 4384 3261 
Q 4653 3413 5013 3413 
Q 5584 3413 5867 3089 
Q 6150 2766 6150 2113 
L 6150 378 
L 6625 378 
L 6625 0 
L 4647 0 
L 4647 378 
L 5044 378 
L 5044 1947 
Q 5044 2569 4948 2731 
Q 4853 2894 4594 2894 
Q 4300 2894 4137 2667 
Q 3975 2441 3975 2022 
L 3975 378 
L 4372 378 
L 4372 0 
L 2472 0 
L 2472 378 
L 2869 378 
L 2869 1947 
Q 2869 2569 2772 2731 
Q 2675 2894 2419 2894 
Q 2122 2894 1959 2667 
Q 1797 2441 1797 2022 
L 1797 378 
L 2194 378 
L 2194 0 
L 219 0 
L 219 378 
L 691 378 
L 691 2944 
L 219 2944 
L 219 3322 
L 1797 3322 
L 1797 2853 
Q 1991 3144 2241 3278 
Q 2491 3413 2834 3413 
Q 3241 3413 3494 3258 
Q 3747 3103 3884 2778 
z
" transform="scale(0.015625)"/>
     <path id="DejaVuSerif-Bold-20" transform="scale(0.015625)"/>
     <path id="DejaVuSerif-Bold-54" d="M 1159 0 
L 1159 378 
L 1778 378 
L 1778 4238 
L 500 4238 
L 500 3500 
L 72 3500 
L 72 4666 
L 4697 4666 
L 4697 3500 
L 4275 3500 
L 4275 4238 
L 2988 4238 
L 2988 378 
L 3609 378 
L 3609 0 
L 1159 0 
z
" transform="scale(0.015625)"/>
     <path id="DejaVuSerif-Bold-4c" d="M 300 0 
L 300 378 
L 897 378 
L 897 4288 
L 300 4288 
L 300 4666 
L 2700 4666 
L 2700 4288 
L 2100 4288 
L 2100 428 
L 3938 428 
L 3938 1166 
L 4359 1166 
L 4359 0 
L 300 0 
z
" transform="scale(0.015625)"/>
     <path id="DejaVuSerif-Bold-53" d="M 494 225 
L 494 1331 
L 891 1331 
Q 981 806 1318 547 
Q 1656 288 2253 288 
Q 2738 288 2991 472 
Q 3244 656 3244 1013 
Q 3244 1294 3072 1450 
Q 2900 1606 2363 1741 
L 1663 1913 
Q 978 2088 700 2398 
Q 422 2709 422 3284 
Q 422 3978 883 4364 
Q 1344 4750 2175 4750 
Q 2584 4750 3026 4681 
Q 3469 4613 3944 4475 
L 3944 3444 
L 3547 3444 
Q 3456 3925 3150 4148 
Q 2844 4372 2278 4372 
Q 1816 4372 1580 4211 
Q 1344 4050 1344 3731 
Q 1344 3441 1506 3289 
Q 1669 3138 2303 2975 
L 3003 2803 
Q 3653 2641 3945 2297 
Q 4238 1953 4238 1350 
Q 4238 644 3750 276 
Q 3263 -91 2316 -91 
Q 1859 -91 1409 -12 
Q 959 66 494 225 
z
" transform="scale(0.015625)"/>
     <path id="DejaVuSerif-Bold-2e" d="M 519 506 
Q 519 750 694 925 
Q 869 1100 1113 1100 
Q 1359 1100 1534 925 
Q 1709 750 1709 506 
Q 1709 259 1534 84 
Q 1359 -91 1113 -91 
Q 869 -91 694 84 
Q 519 259 519 506 
z
" transform="scale(0.015625)"/>
     <path id="DejaVuSerif-Bold-33" d="M 550 4531 
Q 963 4641 1350 4695 
Q 1738 4750 2106 4750 
Q 2950 4750 3401 4448 
Q 3853 4147 3853 3584 
Q 3853 3163 3593 2900 
Q 3334 2638 2834 2547 
Q 3444 2450 3744 2131 
Q 4044 1813 4044 1259 
Q 4044 606 3526 257 
Q 3009 -91 2028 -91 
Q 1659 -91 1267 -28 
Q 875 34 447 159 
L 447 1184 
L 825 1184 
Q 859 741 1103 508 
Q 1347 275 1778 275 
Q 2253 275 2512 539 
Q 2772 803 2772 1288 
Q 2772 1794 2501 2069 
Q 2231 2344 1734 2344 
L 1528 2344 
L 1528 2719 
L 1691 2719 
Q 2150 2719 2381 2931 
Q 2613 3144 2613 3566 
Q 2613 3963 2395 4173 
Q 2178 4384 1772 4384 
Q 1403 4384 1187 4182 
Q 972 3981 928 3597 
L 550 3597 
L 550 4531 
z
" transform="scale(0.015625)"/>
     <path id="DejaVuSerif-Bold-76" d="M 1428 0 
L 250 2944 
L -116 2944 
L -116 3322 
L 1791 3322 
L 1791 2944 
L 1388 2944 
L 2228 844 
L 3066 2944 
L 2631 2944 
L 2631 3322 
L 3878 3322 
L 3878 2944 
L 3494 2944 
L 2316 0 
L 1428 0 
z
" transform="scale(0.015625)"/>
     <path id="DejaVuSerif-Bold-55" d="M 813 4288 
L 219 4288 
L 219 4666 
L 2619 4666 
L 2619 4288 
L 2022 4288 
L 2022 1953 
Q 2022 1081 2294 732 
Q 2566 384 3225 384 
Q 3869 384 4139 736 
Q 4409 1088 4409 1953 
L 4409 4288 
L 3816 4288 
L 3816 4666 
L 5441 4666 
L 5441 4288 
L 4844 4288 
L 4844 1888 
Q 4844 819 4381 364 
Q 3919 -91 2828 -91 
Q 1744 -91 1278 368 
Q 813 828 813 1894 
L 813 4288 
z
" transform="scale(0.015625)"/>
     <path id="DejaVuSerif-Bold-49" d="M 300 0 
L 300 378 
L 897 378 
L 897 4288 
L 300 4288 
L 300 4666 
L 2700 4666 
L 2700 4288 
L 2100 4288 
L 2100 378 
L 2700 378 
L 2700 0 
L 300 0 
z
" transform="scale(0.015625)"/>
     <path id="DejaVuSerif-Bold-43" d="M 4769 1331 
Q 4584 609 4106 259 
Q 3628 -91 2822 -91 
Q 1641 -91 955 561 
Q 269 1213 269 2328 
Q 269 3447 955 4098 
Q 1641 4750 2822 4750 
Q 3238 4750 3688 4650 
Q 4138 4550 4641 4347 
L 4641 3200 
L 4244 3200 
Q 4122 3788 3800 4080 
Q 3478 4372 2950 4372 
Q 2269 4372 1937 3870 
Q 1606 3369 1606 2328 
Q 1606 1288 1937 788 
Q 2269 288 2956 288 
Q 3422 288 3717 547 
Q 4013 806 4147 1331 
L 4769 1331 
z
" transform="scale(0.015625)"/>
     <path id="DejaVuSerif-Bold-2014" d="M 344 2075 
L 6056 2075 
L 6056 1325 
L 344 1325 
L 344 2075 
z
" transform="scale(0.015625)"/>
     <path id="DejaVuSerif-Bold-65" d="M 2566 1875 
Q 2566 2531 2444 2795 
Q 2322 3059 2028 3059 
Q 1744 3059 1620 2800 
Q 1497 2541 1497 1931 
L 1497 1875 
L 2566 1875 
z
M 3781 1503 
L 1497 1503 
L 1497 1478 
Q 1497 834 1690 548 
Q 1884 263 2316 263 
Q 2675 263 2897 453 
Q 3119 644 3181 1006 
L 3700 1006 
Q 3566 441 3166 175 
Q 2766 -91 2047 -91 
Q 1184 -91 723 364 
Q 263 819 263 1663 
Q 263 2488 734 2950 
Q 1206 3413 2047 3413 
Q 2872 3413 3312 2927 
Q 3753 2441 3781 1503 
z
" transform="scale(0.015625)"/>
     <path id="DejaVuSerif-Bold-69" d="M 588 4263 
Q 588 4516 763 4689 
Q 938 4863 1191 4863 
Q 1438 4863 1611 4689 
Q 1784 4516 1784 4263 
Q 1784 4016 1611 3842 
Q 1438 3669 1191 3669 
Q 938 3669 763 3841 
Q 588 4013 588 4263 
z
M 1797 378 
L 2272 378 
L 2272 0 
L 219 0 
L 219 378 
L 691 378 
L 691 2944 
L 219 2944 
L 219 3322 
L 1797 3322 
L 1797 378 
z
" transform="scale(0.015625)"/>
     <path id="DejaVuSerif-Bold-52" d="M 3397 2278 
Q 3675 2238 3865 2094 
Q 4056 1950 4197 1678 
L 4878 378 
L 5356 378 
L 5356 0 
L 3822 0 
L 3078 1409 
Q 2863 1847 2711 1967 
Q 2559 2088 2291 2088 
L 2100 2088 
L 2100 378 
L 2700 378 
L 2700 0 
L 300 0 
L 300 378 
L 897 378 
L 897 4288 
L 300 4288 
L 300 4666 
L 2963 4666 
Q 3775 4666 4217 4339 
Q 4659 4013 4659 3413 
Q 4659 2925 4345 2642 
Q 4031 2359 3397 2278 
z
M 2100 2463 
L 2509 2463 
Q 2947 2463 3183 2700 
Q 3419 2938 3419 3378 
Q 3419 3819 3183 4053 
Q 2947 4288 2509 4288 
L 2100 4288 
L 2100 2463 
z
" transform="scale(0.015625)"/>
     <path id="DejaVuSerif-Bold-70" d="M 1728 1825 
L 1728 1497 
Q 1728 916 1876 656 
Q 2025 397 2356 397 
Q 2697 397 2836 672 
Q 2975 947 2975 1663 
Q 2975 2378 2836 2651 
Q 2697 2925 2356 2925 
Q 2025 2925 1876 2665 
Q 1728 2406 1728 1825 
z
M 622 2944 
L 147 2944 
L 147 3322 
L 1728 3322 
L 1728 2900 
Q 1869 3159 2106 3286 
Q 2344 3413 2694 3413 
Q 3403 3413 3811 2945 
Q 4219 2478 4219 1663 
Q 4219 847 3811 378 
Q 3403 -91 2694 -91 
Q 2344 -91 2106 36 
Q 1869 163 1728 422 
L 1728 -953 
L 2241 -953 
L 2241 -1331 
L 147 -1331 
L 147 -953 
L 622 -953 
L 622 2944 
z
" transform="scale(0.015625)"/>
     <path id="DejaVuSerif-Bold-28" d="M 2694 -997 
Q 1641 -606 1122 122 
Q 603 850 603 1931 
Q 603 3013 1115 3731 
Q 1628 4450 2694 4863 
L 2694 4488 
Q 2200 4188 1983 3598 
Q 1766 3009 1766 1931 
Q 1766 856 1983 267 
Q 2200 -322 2694 -622 
L 2694 -997 
z
" transform="scale(0.015625)"/>
     <path id="DejaVuSerif-Bold-42" d="M 300 0 
L 300 378 
L 897 378 
L 897 4288 
L 300 4288 
L 300 4666 
L 3066 4666 
Q 3919 4666 4347 4378 
Q 4775 4091 4775 3513 
Q 4775 3097 4479 2853 
Q 4184 2609 3603 2547 
Q 4306 2481 4681 2172 
Q 5056 1863 5056 1350 
Q 5056 656 4532 328 
Q 4009 0 2894 0 
L 300 0 
z
M 2100 2719 
L 2509 2719 
Q 3047 2719 3306 2914 
Q 3566 3109 3566 3513 
Q 3566 3919 3314 4103 
Q 3063 4288 2509 4288 
L 2100 4288 
L 2100 2719 
z
M 2100 378 
L 2547 378 
Q 3144 378 3431 615 
Q 3719 853 3719 1350 
Q 3719 1850 3428 2097 
Q 3138 2344 2547 2344 
L 2100 2344 
L 2100 378 
z
" transform="scale(0.015625)"/>
     <path id="DejaVuSerif-Bold-63" d="M 3609 1038 
Q 3491 469 3123 189 
Q 2756 -91 2125 -91 
Q 1238 -91 750 368 
Q 263 828 263 1663 
Q 263 2488 744 2950 
Q 1225 3413 2081 3413 
Q 2428 3413 2781 3347 
Q 3134 3281 3500 3150 
L 3500 2228 
L 3150 2228 
Q 3100 2650 2903 2854 
Q 2706 3059 2350 3059 
Q 1888 3059 1692 2746 
Q 1497 2434 1497 1663 
Q 1497 909 1687 586 
Q 1878 263 2309 263 
Q 2644 263 2845 463 
Q 3047 663 3091 1038 
L 3609 1038 
z
" transform="scale(0.015625)"/>
     <path id="DejaVuSerif-Bold-68" d="M 219 0 
L 219 378 
L 691 378 
L 691 4488 
L 197 4488 
L 197 4863 
L 1797 4863 
L 1797 2853 
Q 1997 3150 2253 3281 
Q 2509 3413 2900 3413 
Q 3459 3413 3745 3083 
Q 4031 2753 4031 2113 
L 4031 378 
L 4506 378 
L 4506 0 
L 2522 0 
L 2522 378 
L 2925 378 
L 2925 2144 
Q 2925 2566 2817 2730 
Q 2709 2894 2444 2894 
Q 2109 2894 1953 2648 
Q 1797 2403 1797 1869 
L 1797 378 
L 2203 378 
L 2203 0 
L 219 0 
z
" transform="scale(0.015625)"/>
     <path id="DejaVuSerif-Bold-e9" d="M 2566 1875 
Q 2566 2531 2444 2795 
Q 2322 3059 2028 3059 
Q 1744 3059 1620 2800 
Q 1497 2541 1497 1931 
L 1497 1875 
L 2566 1875 
z
M 3781 1503 
L 1497 1503 
L 1497 1478 
Q 1497 834 1690 548 
Q 1884 263 2316 263 
Q 2675 263 2897 453 
Q 3119 644 3181 1006 
L 3700 1006 
Q 3566 441 3166 175 
Q 2766 -91 2047 -91 
Q 1184 -91 723 364 
Q 263 819 263 1663 
Q 263 2488 734 2950 
Q 1206 3413 2047 3413 
Q 2872 3413 3312 2927 
Q 3753 2441 3781 1503 
z
M 2322 5119 
L 3194 5119 
L 2028 3944 
L 1516 3944 
L 2322 5119 
z
" transform="scale(0.015625)"/>
     <path id="DejaVuSerif-Bold-72" d="M 3438 3359 
L 3438 2369 
L 3084 2369 
Q 3066 2634 2941 2764 
Q 2816 2894 2578 2894 
Q 2216 2894 2006 2575 
Q 1797 2256 1797 1691 
L 1797 378 
L 2400 378 
L 2400 0 
L 219 0 
L 219 378 
L 691 378 
L 691 2944 
L 184 2944 
L 184 3322 
L 1797 3322 
L 1797 2731 
Q 1959 3078 2226 3245 
Q 2494 3413 2881 3413 
Q 2978 3413 3117 3398 
Q 3256 3384 3438 3359 
z
" transform="scale(0.015625)"/>
     <path id="DejaVuSerif-Bold-29" d="M 325 -997 
L 325 -622 
Q 819 -322 1036 267 
Q 1253 856 1253 1931 
Q 1253 3009 1036 3598 
Q 819 4188 325 4488 
L 325 4863 
Q 1391 4450 1905 3731 
Q 2419 3013 2419 1931 
Q 2419 850 1898 122 
Q 1378 -606 325 -997 
z
" transform="scale(0.015625)"/>
    </defs>
    <use xlink:href="#DejaVuSerif-Bold-50"/>
    <use xlink:href="#DejaVuSerif-Bold-6f" x="72.570312"/>
    <use xlink:href="#DejaVuSerif-Bold-73" x="139.269531"/>
    <use xlink:href="#DejaVuSerif-Bold-74" x="195.568359"/>
    <use xlink:href="#DejaVuSerif-Bold-2d" x="241.759766"/>
    <use xlink:href="#DejaVuSerif-Bold-51" x="283.263672"/>
    <use xlink:href="#DejaVuSerif-Bold-75" x="370.373047"/>
    <use xlink:href="#DejaVuSerif-Bold-61" x="443.078125"/>
    <use xlink:href="#DejaVuSerif-Bold-6e" x="507.873047"/>
    <use xlink:href="#DejaVuSerif-Bold-74" x="580.578125"/>
    <use xlink:href="#DejaVuSerif-Bold-75" x="626.769531"/>
    <use xlink:href="#DejaVuSerif-Bold-6d" x="699.474609"/>
    <use xlink:href="#DejaVuSerif-Bold-20" x="805.285156"/>
    <use xlink:href="#DejaVuSerif-Bold-54" x="840.099609"/>
    <use xlink:href="#DejaVuSerif-Bold-4c" x="914.513672"/>
    <use xlink:href="#DejaVuSerif-Bold-53" x="984.826172"/>
    <use xlink:href="#DejaVuSerif-Bold-20" x="1057.042969"/>
    <use xlink:href="#DejaVuSerif-Bold-31" x="1091.857422"/>
    <use xlink:href="#DejaVuSerif-Bold-2e" x="1161.4375"/>
    <use xlink:href="#DejaVuSerif-Bold-33" x="1196.251953"/>
    <use xlink:href="#DejaVuSerif-Bold-20" x="1265.832031"/>
    <use xlink:href="#DejaVuSerif-Bold-76" x="1300.646484"/>
    <use xlink:href="#DejaVuSerif-Bold-73" x="1358.751953"/>
    <use xlink:href="#DejaVuSerif-Bold-20" x="1415.050781"/>
    <use xlink:href="#DejaVuSerif-Bold-51" x="1449.865234"/>
    <use xlink:href="#DejaVuSerif-Bold-55" x="1536.974609"/>
    <use xlink:href="#DejaVuSerif-Bold-49" x="1624.181641"/>
    <use xlink:href="#DejaVuSerif-Bold-43" x="1670.958984"/>
    <use xlink:href="#DejaVuSerif-Bold-20" x="1750.548828"/>
    <use xlink:href="#DejaVuSerif-Bold-2014" x="1785.363281"/>
    <use xlink:href="#DejaVuSerif-Bold-20" x="1885.363281"/>
    <use xlink:href="#DejaVuSerif-Bold-53" x="1920.177734"/>
    <use xlink:href="#DejaVuSerif-Bold-65" x="1992.394531"/>
    <use xlink:href="#DejaVuSerif-Bold-73" x="2056.017578"/>
    <use xlink:href="#DejaVuSerif-Bold-73" x="2112.316406"/>
    <use xlink:href="#DejaVuSerif-Bold-69" x="2168.615234"/>
    <use xlink:href="#DejaVuSerif-Bold-6f" x="2206.603516"/>
    <use xlink:href="#DejaVuSerif-Bold-6e" x="2273.302734"/>
    <use xlink:href="#DejaVuSerif-Bold-20" x="2346.007812"/>
    <use xlink:href="#DejaVuSerif-Bold-52" x="2380.822266"/>
    <use xlink:href="#DejaVuSerif-Bold-65" x="2463.927734"/>
    <use xlink:href="#DejaVuSerif-Bold-73" x="2527.550781"/>
    <use xlink:href="#DejaVuSerif-Bold-75" x="2583.849609"/>
    <use xlink:href="#DejaVuSerif-Bold-6d" x="2656.554688"/>
    <use xlink:href="#DejaVuSerif-Bold-70" x="2762.365234"/>
    <use xlink:href="#DejaVuSerif-Bold-74" x="2832.287109"/>
    <use xlink:href="#DejaVuSerif-Bold-69" x="2878.478516"/>
    <use xlink:href="#DejaVuSerif-Bold-6f" x="2916.466797"/>
    <use xlink:href="#DejaVuSerif-Bold-6e" x="2983.166016"/>
    <use xlink:href="#DejaVuSerif-Bold-20" x="3055.871094"/>
    <use xlink:href="#DejaVuSerif-Bold-28" x="3090.685547"/>
    <use xlink:href="#DejaVuSerif-Bold-42" x="3138"/>
    <use xlink:href="#DejaVuSerif-Bold-61" x="3222.521484"/>
    <use xlink:href="#DejaVuSerif-Bold-74" x="3287.316406"/>
    <use xlink:href="#DejaVuSerif-Bold-63" x="3333.507812"/>
    <use xlink:href="#DejaVuSerif-Bold-68" x="3394.396484"/>
    <use xlink:href="#DejaVuSerif-Bold-20" x="3467.101562"/>
    <use xlink:href="#DejaVuSerif-Bold-53" x="3501.916016"/>
    <use xlink:href="#DejaVuSerif-Bold-e9" x="3574.132812"/>
    <use xlink:href="#DejaVuSerif-Bold-70" x="3637.755859"/>
    <use xlink:href="#DejaVuSerif-Bold-61" x="3707.677734"/>
    <use xlink:href="#DejaVuSerif-Bold-72" x="3772.472656"/>
    <use xlink:href="#DejaVuSerif-Bold-e9" x="3825.158203"/>
    <use xlink:href="#DejaVuSerif-Bold-73" x="3888.78125"/>
    <use xlink:href="#DejaVuSerif-Bold-29" x="3945.080078"/>
   </g>
  </g>
 </g>
 <defs>
  <clipPath id="pb173061023">
   <rect x="53.328125" y="61.44" width="373.42" height="249.8"/>
  </clipPath>
  <clipPath id="p7b072db9c3">
   <rect x="476.748125" y="61.44" width="373.42" height="249.8"/>
  </clipPath>
 </defs>
</svg>
