<?xml version="1.0" encoding="utf-8" standalone="no"?>
<!DOCTYPE svg PUBLIC "-//W3C//DTD SVG 1.1//EN"
  "http://www.w3.org/Graphics/SVG/1.1/DTD/svg11.dtd">
<svg xmlns:xlink="http://www.w3.org/1999/xlink" width="857.368125pt" height="335.19625pt" viewBox="0 0 857.368125 335.19625" xmlns="http://www.w3.org/2000/svg" version="1.1">
 <metadata>
  <rdf:RDF xmlns:dc="http://purl.org/dc/elements/1.1/" xmlns:cc="http://creativecommons.org/ns#" xmlns:rdf="http://www.w3.org/1999/02/22-rdf-syntax-ns#">
   <cc:Work>
    <dc:type rdf:resource="http://purl.org/dc/dcmitype/StillImage"/>
    <dc:date>2026-05-22T12:14:14.992728</dc:date>
    <dc:format>image/svg+xml</dc:format>
    <dc:creator>
     <cc:Agent>
      <dc:title>Matplotlib v3.6.3, https://matplotlib.org/</dc:title>
     </cc:Agent>
    </dc:creator>
   </cc:Work>
  </rdf:RDF>
 </metadata>
 <defs>
  <style type="text/css">*{stroke-linejoin: round; stroke-linecap: butt}</style>
 </defs>
 <g id="figure_1">
  <g id="patch_1">
   <path d="M 0 335.19625 
L 857.368125 335.19625 
L 857.368125 0 
L 0 0 
z
" style="fill: #ffffff"/>
  </g>
  <g id="axes_1">
   <g id="patch_2">
    <path d="M 53.328125 297.64 
L 423.568125 297.64 
L 423.568125 60.96 
L 53.328125 60.96 
z
" style="fill: #ffffff"/>
   </g>
   <g id="matplotlib.axis_1">
    <g id="xtick_1">
     <g id="line2d_1">
      <defs>
       <path id="m1c5eb87841" d="M 0 0 
L 0 3.5 
" style="stroke: #000000; stroke-width: 0.8"/>
      </defs>
      <g>
       <use xlink:href="#m1c5eb87841" x="70.157216" y="297.64" style="stroke: #000000; stroke-width: 0.8"/>
      </g>
     </g>
     <g id="text_1">
      <!-- 50 -->
      <g transform="translate(63.794716 312.238437) scale(0.1 -0.1)">
       <defs>
        <path id="DejaVuSerif-35" d="M 3219 4666 
L 3219 4153 
L 1081 4153 
L 1081 2816 
Q 1244 2928 1461 2984 
Q 1678 3041 1947 3041 
Q 2703 3041 3140 2622 
Q 3578 2203 3578 1478 
Q 3578 738 3136 323 
Q 2694 -91 1894 -91 
Q 1572 -91 1234 -12 
Q 897 66 544 225 
L 544 1131 
L 897 1131 
Q 925 688 1179 453 
Q 1434 219 1894 219 
Q 2388 219 2653 544 
Q 2919 869 2919 1478 
Q 2919 2084 2655 2407 
Q 2391 2731 1894 2731 
Q 1613 2731 1398 2631 
Q 1184 2531 1019 2322 
L 750 2322 
L 750 4666 
L 3219 4666 
z
" transform="scale(0.015625)"/>
        <path id="DejaVuSerif-30" d="M 2034 219 
Q 2513 219 2750 744 
Q 2988 1269 2988 2328 
Q 2988 3391 2750 3916 
Q 2513 4441 2034 4441 
Q 1556 4441 1318 3916 
Q 1081 3391 1081 2328 
Q 1081 1269 1318 744 
Q 1556 219 2034 219 
z
M 2034 -91 
Q 1275 -91 848 546 
Q 422 1184 422 2328 
Q 422 3475 848 4112 
Q 1275 4750 2034 4750 
Q 2797 4750 3222 4112 
Q 3647 3475 3647 2328 
Q 3647 1184 3222 546 
Q 2797 -91 2034 -91 
z
" transform="scale(0.015625)"/>
       </defs>
       <use xlink:href="#DejaVuSerif-35"/>
       <use xlink:href="#DejaVuSerif-30" x="63.623047"/>
      </g>
     </g>
    </g>
    <g id="xtick_2">
     <g id="line2d_2">
      <g>
       <use xlink:href="#m1c5eb87841" x="344.917884" y="297.64" style="stroke: #000000; stroke-width: 0.8"/>
      </g>
     </g>
     <g id="text_2">
      <!-- 90 -->
      <g transform="translate(338.555384 312.238437) scale(0.1 -0.1)">
       <defs>
        <path id="DejaVuSerif-39" d="M 2994 2091 
Q 2784 1856 2512 1740 
Q 2241 1625 1900 1625 
Q 1206 1625 804 2044 
Q 403 2463 403 3188 
Q 403 3897 839 4323 
Q 1275 4750 2003 4750 
Q 2794 4750 3217 4161 
Q 3641 3572 3641 2478 
Q 3641 1253 3137 581 
Q 2634 -91 1722 -91 
Q 1475 -91 1203 -44 
Q 931 3 647 97 
L 647 872 
L 997 872 
Q 1038 556 1241 387 
Q 1444 219 1784 219 
Q 2391 219 2687 676 
Q 2984 1134 2994 2091 
z
M 1978 4441 
Q 1534 4441 1298 4117 
Q 1063 3794 1063 3188 
Q 1063 2581 1298 2256 
Q 1534 1931 1978 1931 
Q 2422 1931 2658 2245 
Q 2894 2559 2894 3150 
Q 2894 3772 2656 4106 
Q 2419 4441 1978 4441 
z
" transform="scale(0.015625)"/>
       </defs>
       <use xlink:href="#DejaVuSerif-39"/>
       <use xlink:href="#DejaVuSerif-30" x="63.623047"/>
      </g>
     </g>
    </g>
    <g id="xtick_3">
     <g id="line2d_3">
      <g>
       <use xlink:href="#m1c5eb87841" x="379.262967" y="297.64" style="stroke: #000000; stroke-width: 0.8"/>
      </g>
     </g>
     <g id="text_3">
      <!-- 95 -->
      <g transform="translate(372.900467 312.238437) scale(0.1 -0.1)">
       <use xlink:href="#DejaVuSerif-39"/>
       <use xlink:href="#DejaVuSerif-35" x="63.623047"/>
      </g>
     </g>
    </g>
    <g id="xtick_4">
     <g id="line2d_4">
      <g>
       <use xlink:href="#m1c5eb87841" x="406.739034" y="297.64" style="stroke: #000000; stroke-width: 0.8"/>
      </g>
     </g>
     <g id="text_4">
      <!-- 99 -->
      <g transform="translate(400.376534 312.238437) scale(0.1 -0.1)">
       <use xlink:href="#DejaVuSerif-39"/>
       <use xlink:href="#DejaVuSerif-39" x="63.623047"/>
      </g>
     </g>
    </g>
    <g id="text_5">
     <!-- Percentile -->
     <g transform="translate(212.812969 325.916562) scale(0.1 -0.1)">
      <defs>
       <path id="DejaVuSerif-50" d="M 1581 2375 
L 2406 2375 
Q 2872 2375 3115 2626 
Q 3359 2878 3359 3353 
Q 3359 3831 3115 4081 
Q 2872 4331 2406 4331 
L 1581 4331 
L 1581 2375 
z
M 353 0 
L 353 331 
L 947 331 
L 947 4331 
L 353 4331 
L 353 4666 
L 2559 4666 
Q 3259 4666 3668 4311 
Q 4078 3956 4078 3353 
Q 4078 2753 3668 2397 
Q 3259 2041 2559 2041 
L 1581 2041 
L 1581 331 
L 2303 331 
L 2303 0 
L 353 0 
z
" transform="scale(0.015625)"/>
       <path id="DejaVuSerif-65" d="M 3469 1600 
L 991 1600 
L 991 1575 
Q 991 903 1244 561 
Q 1497 219 1991 219 
Q 2369 219 2611 417 
Q 2853 616 2950 1006 
L 3413 1006 
Q 3275 459 2904 184 
Q 2534 -91 1931 -91 
Q 1203 -91 761 389 
Q 319 869 319 1663 
Q 319 2450 753 2931 
Q 1188 3413 1894 3413 
Q 2647 3413 3050 2948 
Q 3453 2484 3469 1600 
z
M 2791 1931 
Q 2772 2513 2545 2808 
Q 2319 3103 1894 3103 
Q 1497 3103 1269 2806 
Q 1041 2509 991 1931 
L 2791 1931 
z
" transform="scale(0.015625)"/>
       <path id="DejaVuSerif-72" d="M 3059 3328 
L 3059 2497 
L 2728 2497 
Q 2713 2744 2591 2866 
Q 2469 2988 2234 2988 
Q 1809 2988 1582 2694 
Q 1356 2400 1356 1850 
L 1356 331 
L 2022 331 
L 2022 0 
L 263 0 
L 263 331 
L 781 331 
L 781 2994 
L 231 2994 
L 231 3322 
L 1356 3322 
L 1356 2731 
Q 1525 3078 1790 3245 
Q 2056 3413 2438 3413 
Q 2578 3413 2733 3391 
Q 2888 3369 3059 3328 
z
" transform="scale(0.015625)"/>
       <path id="DejaVuSerif-63" d="M 3291 997 
Q 3169 466 2822 187 
Q 2475 -91 1925 -91 
Q 1200 -91 759 389 
Q 319 869 319 1663 
Q 319 2459 759 2936 
Q 1200 3413 1925 3413 
Q 2241 3413 2553 3339 
Q 2866 3266 3181 3116 
L 3181 2266 
L 2847 2266 
Q 2781 2703 2561 2903 
Q 2341 3103 1931 3103 
Q 1466 3103 1228 2742 
Q 991 2381 991 1663 
Q 991 944 1227 581 
Q 1463 219 1931 219 
Q 2303 219 2525 412 
Q 2747 606 2828 997 
L 3291 997 
z
" transform="scale(0.015625)"/>
       <path id="DejaVuSerif-6e" d="M 263 0 
L 263 331 
L 781 331 
L 781 2988 
L 231 2988 
L 231 3322 
L 1356 3322 
L 1356 2731 
Q 1516 3069 1770 3241 
Q 2025 3413 2363 3413 
Q 2913 3413 3172 3097 
Q 3431 2781 3431 2113 
L 3431 331 
L 3944 331 
L 3944 0 
L 2356 0 
L 2356 331 
L 2853 331 
L 2853 1931 
Q 2853 2541 2703 2767 
Q 2553 2994 2175 2994 
Q 1775 2994 1565 2701 
Q 1356 2409 1356 1850 
L 1356 331 
L 1856 331 
L 1856 0 
L 263 0 
z
" transform="scale(0.015625)"/>
       <path id="DejaVuSerif-74" d="M 691 2988 
L 184 2988 
L 184 3322 
L 691 3322 
L 691 4353 
L 1269 4353 
L 1269 3322 
L 2350 3322 
L 2350 2988 
L 1269 2988 
L 1269 878 
Q 1269 456 1350 337 
Q 1431 219 1650 219 
Q 1875 219 1978 351 
Q 2081 484 2088 781 
L 2522 781 
Q 2497 328 2275 118 
Q 2053 -91 1600 -91 
Q 1103 -91 897 129 
Q 691 350 691 878 
L 691 2988 
z
" transform="scale(0.015625)"/>
       <path id="DejaVuSerif-69" d="M 622 4353 
Q 622 4497 726 4603 
Q 831 4709 978 4709 
Q 1122 4709 1226 4603 
Q 1331 4497 1331 4353 
Q 1331 4206 1228 4103 
Q 1125 4000 978 4000 
Q 831 4000 726 4103 
Q 622 4206 622 4353 
z
M 1356 331 
L 1900 331 
L 1900 0 
L 231 0 
L 231 331 
L 781 331 
L 781 2988 
L 231 2988 
L 231 3322 
L 1356 3322 
L 1356 331 
z
" transform="scale(0.015625)"/>
       <path id="DejaVuSerif-6c" d="M 1313 331 
L 1856 331 
L 1856 0 
L 184 0 
L 184 331 
L 738 331 
L 738 4531 
L 184 4531 
L 184 4863 
L 1313 4863 
L 1313 331 
z
" transform="scale(0.015625)"/>
      </defs>
      <use xlink:href="#DejaVuSerif-50"/>
      <use xlink:href="#DejaVuSerif-65" x="62.785156"/>
      <use xlink:href="#DejaVuSerif-72" x="121.964844"/>
      <use xlink:href="#DejaVuSerif-63" x="169.767578"/>
      <use xlink:href="#DejaVuSerif-65" x="225.773438"/>
      <use xlink:href="#DejaVuSerif-6e" x="284.953125"/>
      <use xlink:href="#DejaVuSerif-74" x="349.357422"/>
      <use xlink:href="#DejaVuSerif-69" x="389.542969"/>
      <use xlink:href="#DejaVuSerif-6c" x="421.525391"/>
      <use xlink:href="#DejaVuSerif-65" x="453.507812"/>
     </g>
    </g>
   </g>
   <g id="matplotlib.axis_2">
    <g id="ytick_1">
     <g id="line2d_5">
      <defs>
       <path id="mbb059bf0c1" d="M 0 0 
L -3.5 0 
" style="stroke: #000000; stroke-width: 0.8"/>
      </defs>
      <g>
       <use xlink:href="#mbb059bf0c1" x="53.328125" y="288.845802" style="stroke: #000000; stroke-width: 0.8"/>
      </g>
     </g>
     <g id="text_6">
      <!-- 0 -->
      <g transform="translate(39.965625 292.64502) scale(0.1 -0.1)">
       <use xlink:href="#DejaVuSerif-30"/>
      </g>
     </g>
    </g>
    <g id="ytick_2">
     <g id="line2d_6">
      <g>
       <use xlink:href="#mbb059bf0c1" x="53.328125" y="259.963691" style="stroke: #000000; stroke-width: 0.8"/>
      </g>
     </g>
     <g id="text_7">
      <!-- 500 -->
      <g transform="translate(27.240625 263.76291) scale(0.1 -0.1)">
       <use xlink:href="#DejaVuSerif-35"/>
       <use xlink:href="#DejaVuSerif-30" x="63.623047"/>
       <use xlink:href="#DejaVuSerif-30" x="127.246094"/>
      </g>
     </g>
    </g>
    <g id="ytick_3">
     <g id="line2d_7">
      <g>
       <use xlink:href="#mbb059bf0c1" x="53.328125" y="231.081581" style="stroke: #000000; stroke-width: 0.8"/>
      </g>
     </g>
     <g id="text_8">
      <!-- 1000 -->
      <g transform="translate(20.878125 234.880799) scale(0.1 -0.1)">
       <defs>
        <path id="DejaVuSerif-31" d="M 909 0 
L 909 331 
L 1722 331 
L 1722 4213 
L 781 3603 
L 781 4013 
L 1919 4750 
L 2350 4750 
L 2350 331 
L 3163 331 
L 3163 0 
L 909 0 
z
" transform="scale(0.015625)"/>
       </defs>
       <use xlink:href="#DejaVuSerif-31"/>
       <use xlink:href="#DejaVuSerif-30" x="63.623047"/>
       <use xlink:href="#DejaVuSerif-30" x="127.246094"/>
       <use xlink:href="#DejaVuSerif-30" x="190.869141"/>
      </g>
     </g>
    </g>
    <g id="ytick_4">
     <g id="line2d_8">
      <g>
       <use xlink:href="#mbb059bf0c1" x="53.328125" y="202.19947" style="stroke: #000000; stroke-width: 0.8"/>
      </g>
     </g>
     <g id="text_9">
      <!-- 1500 -->
      <g transform="translate(20.878125 205.998689) scale(0.1 -0.1)">
       <use xlink:href="#DejaVuSerif-31"/>
       <use xlink:href="#DejaVuSerif-35" x="63.623047"/>
       <use xlink:href="#DejaVuSerif-30" x="127.246094"/>
       <use xlink:href="#DejaVuSerif-30" x="190.869141"/>
      </g>
     </g>
    </g>
    <g id="ytick_5">
     <g id="line2d_9">
      <g>
       <use xlink:href="#mbb059bf0c1" x="53.328125" y="173.31736" style="stroke: #000000; stroke-width: 0.8"/>
      </g>
     </g>
     <g id="text_10">
      <!-- 2000 -->
      <g transform="translate(20.878125 177.116578) scale(0.1 -0.1)">
       <defs>
        <path id="DejaVuSerif-32" d="M 819 3553 
L 469 3553 
L 469 4384 
Q 803 4563 1142 4656 
Q 1481 4750 1806 4750 
Q 2534 4750 2956 4397 
Q 3378 4044 3378 3438 
Q 3378 2753 2422 1800 
Q 2347 1728 2309 1691 
L 1131 513 
L 3078 513 
L 3078 1088 
L 3444 1088 
L 3444 0 
L 434 0 
L 434 341 
L 1850 1753 
Q 2319 2222 2519 2614 
Q 2719 3006 2719 3438 
Q 2719 3909 2473 4175 
Q 2228 4441 1797 4441 
Q 1350 4441 1106 4219 
Q 863 3997 819 3553 
z
" transform="scale(0.015625)"/>
       </defs>
       <use xlink:href="#DejaVuSerif-32"/>
       <use xlink:href="#DejaVuSerif-30" x="63.623047"/>
       <use xlink:href="#DejaVuSerif-30" x="127.246094"/>
       <use xlink:href="#DejaVuSerif-30" x="190.869141"/>
      </g>
     </g>
    </g>
    <g id="ytick_6">
     <g id="line2d_10">
      <g>
       <use xlink:href="#mbb059bf0c1" x="53.328125" y="144.435249" style="stroke: #000000; stroke-width: 0.8"/>
      </g>
     </g>
     <g id="text_11">
      <!-- 2500 -->
      <g transform="translate(20.878125 148.234468) scale(0.1 -0.1)">
       <use xlink:href="#DejaVuSerif-32"/>
       <use xlink:href="#DejaVuSerif-35" x="63.623047"/>
       <use xlink:href="#DejaVuSerif-30" x="127.246094"/>
       <use xlink:href="#DejaVuSerif-30" x="190.869141"/>
      </g>
     </g>
    </g>
    <g id="ytick_7">
     <g id="line2d_11">
      <g>
       <use xlink:href="#mbb059bf0c1" x="53.328125" y="115.553139" style="stroke: #000000; stroke-width: 0.8"/>
      </g>
     </g>
     <g id="text_12">
      <!-- 3000 -->
      <g transform="translate(20.878125 119.352357) scale(0.1 -0.1)">
       <defs>
        <path id="DejaVuSerif-33" d="M 622 4469 
Q 988 4606 1323 4678 
Q 1659 4750 1953 4750 
Q 2638 4750 3022 4454 
Q 3406 4159 3406 3634 
Q 3406 3213 3140 2930 
Q 2875 2647 2388 2547 
Q 2963 2466 3280 2130 
Q 3597 1794 3597 1259 
Q 3597 606 3158 257 
Q 2719 -91 1894 -91 
Q 1528 -91 1179 -12 
Q 831 66 488 225 
L 488 1131 
L 838 1131 
Q 869 681 1141 450 
Q 1413 219 1906 219 
Q 2384 219 2661 495 
Q 2938 772 2938 1253 
Q 2938 1803 2653 2086 
Q 2369 2369 1819 2369 
L 1522 2369 
L 1522 2688 
L 1678 2688 
Q 2225 2688 2498 2914 
Q 2772 3141 2772 3597 
Q 2772 4006 2547 4223 
Q 2322 4441 1900 4441 
Q 1478 4441 1245 4241 
Q 1013 4041 972 3647 
L 622 3647 
L 622 4469 
z
" transform="scale(0.015625)"/>
       </defs>
       <use xlink:href="#DejaVuSerif-33"/>
       <use xlink:href="#DejaVuSerif-30" x="63.623047"/>
       <use xlink:href="#DejaVuSerif-30" x="127.246094"/>
       <use xlink:href="#DejaVuSerif-30" x="190.869141"/>
      </g>
     </g>
    </g>
    <g id="ytick_8">
     <g id="line2d_12">
      <g>
       <use xlink:href="#mbb059bf0c1" x="53.328125" y="86.671028" style="stroke: #000000; stroke-width: 0.8"/>
      </g>
     </g>
     <g id="text_13">
      <!-- 3500 -->
      <g transform="translate(20.878125 90.470247) scale(0.1 -0.1)">
       <use xlink:href="#DejaVuSerif-33"/>
       <use xlink:href="#DejaVuSerif-35" x="63.623047"/>
       <use xlink:href="#DejaVuSerif-30" x="127.246094"/>
       <use xlink:href="#DejaVuSerif-30" x="190.869141"/>
      </g>
     </g>
    </g>
    <g id="text_14">
     <!-- Duration (ms) -->
     <g transform="translate(14.798438 214.536719) rotate(-90) scale(0.1 -0.1)">
      <defs>
       <path id="DejaVuSerif-44" d="M 1581 331 
L 2163 331 
Q 3072 331 3558 850 
Q 4044 1369 4044 2338 
Q 4044 3306 3559 3818 
Q 3075 4331 2163 4331 
L 1581 4331 
L 1581 331 
z
M 353 0 
L 353 331 
L 947 331 
L 947 4331 
L 353 4331 
L 353 4666 
L 2209 4666 
Q 3416 4666 4089 4050 
Q 4763 3434 4763 2338 
Q 4763 1238 4088 619 
Q 3413 0 2209 0 
L 353 0 
z
" transform="scale(0.015625)"/>
       <path id="DejaVuSerif-75" d="M 2266 3322 
L 3341 3322 
L 3341 331 
L 3884 331 
L 3884 0 
L 2766 0 
L 2766 588 
Q 2606 256 2353 82 
Q 2100 -91 1766 -91 
Q 1213 -91 952 223 
Q 691 538 691 1209 
L 691 2988 
L 172 2988 
L 172 3322 
L 1269 3322 
L 1269 1388 
Q 1269 781 1417 556 
Q 1566 331 1947 331 
Q 2347 331 2556 625 
Q 2766 919 2766 1478 
L 2766 2988 
L 2266 2988 
L 2266 3322 
z
" transform="scale(0.015625)"/>
       <path id="DejaVuSerif-61" d="M 2547 1044 
L 2547 1747 
L 1806 1747 
Q 1378 1747 1168 1562 
Q 959 1378 959 997 
Q 959 650 1171 447 
Q 1384 244 1747 244 
Q 2106 244 2326 466 
Q 2547 688 2547 1044 
z
M 3122 2075 
L 3122 331 
L 3634 331 
L 3634 0 
L 2547 0 
L 2547 359 
Q 2356 128 2106 18 
Q 1856 -91 1522 -91 
Q 969 -91 644 203 
Q 319 497 319 997 
Q 319 1513 691 1797 
Q 1063 2081 1741 2081 
L 2547 2081 
L 2547 2309 
Q 2547 2688 2317 2895 
Q 2088 3103 1672 3103 
Q 1328 3103 1125 2947 
Q 922 2791 872 2484 
L 575 2484 
L 575 3156 
Q 875 3284 1158 3348 
Q 1441 3413 1709 3413 
Q 2400 3413 2761 3070 
Q 3122 2728 3122 2075 
z
" transform="scale(0.015625)"/>
       <path id="DejaVuSerif-6f" d="M 1925 219 
Q 2388 219 2623 584 
Q 2859 950 2859 1663 
Q 2859 2375 2623 2739 
Q 2388 3103 1925 3103 
Q 1463 3103 1227 2739 
Q 991 2375 991 1663 
Q 991 950 1228 584 
Q 1466 219 1925 219 
z
M 1925 -91 
Q 1200 -91 759 389 
Q 319 869 319 1663 
Q 319 2456 758 2934 
Q 1197 3413 1925 3413 
Q 2653 3413 3092 2934 
Q 3531 2456 3531 1663 
Q 3531 869 3092 389 
Q 2653 -91 1925 -91 
z
" transform="scale(0.015625)"/>
       <path id="DejaVuSerif-20" transform="scale(0.015625)"/>
       <path id="DejaVuSerif-28" d="M 2041 -997 
Q 1281 -656 893 83 
Q 506 822 506 1931 
Q 506 3044 893 3783 
Q 1281 4522 2041 4863 
L 2041 4556 
Q 1559 4225 1350 3623 
Q 1141 3022 1141 1931 
Q 1141 844 1350 242 
Q 1559 -359 2041 -691 
L 2041 -997 
z
" transform="scale(0.015625)"/>
       <path id="DejaVuSerif-6d" d="M 3316 2675 
Q 3481 3041 3739 3227 
Q 3997 3413 4341 3413 
Q 4863 3413 5119 3089 
Q 5375 2766 5375 2113 
L 5375 331 
L 5894 331 
L 5894 0 
L 4300 0 
L 4300 331 
L 4800 331 
L 4800 2047 
Q 4800 2556 4650 2772 
Q 4500 2988 4153 2988 
Q 3769 2988 3567 2697 
Q 3366 2406 3366 1850 
L 3366 331 
L 3866 331 
L 3866 0 
L 2291 0 
L 2291 331 
L 2791 331 
L 2791 2069 
Q 2791 2566 2641 2777 
Q 2491 2988 2144 2988 
Q 1759 2988 1557 2697 
Q 1356 2406 1356 1850 
L 1356 331 
L 1856 331 
L 1856 0 
L 263 0 
L 263 331 
L 781 331 
L 781 2994 
L 231 2994 
L 231 3322 
L 1356 3322 
L 1356 2731 
Q 1516 3063 1762 3238 
Q 2009 3413 2322 3413 
Q 2709 3413 2968 3220 
Q 3228 3028 3316 2675 
z
" transform="scale(0.015625)"/>
       <path id="DejaVuSerif-73" d="M 359 184 
L 359 959 
L 691 959 
Q 703 588 923 403 
Q 1144 219 1575 219 
Q 1963 219 2166 364 
Q 2369 509 2369 788 
Q 2369 1006 2220 1140 
Q 2072 1275 1594 1428 
L 1178 1569 
Q 750 1706 558 1912 
Q 366 2119 366 2438 
Q 366 2894 700 3153 
Q 1034 3413 1625 3413 
Q 1888 3413 2178 3344 
Q 2469 3275 2778 3144 
L 2778 2419 
L 2447 2419 
Q 2434 2741 2221 2922 
Q 2009 3103 1644 3103 
Q 1281 3103 1095 2975 
Q 909 2847 909 2591 
Q 909 2381 1050 2254 
Q 1191 2128 1613 1997 
L 2069 1856 
Q 2541 1709 2748 1489 
Q 2956 1269 2956 922 
Q 2956 450 2595 179 
Q 2234 -91 1600 -91 
Q 1278 -91 972 -22 
Q 666 47 359 184 
z
" transform="scale(0.015625)"/>
       <path id="DejaVuSerif-29" d="M 453 -997 
L 453 -691 
Q 934 -359 1145 242 
Q 1356 844 1356 1931 
Q 1356 3022 1145 3623 
Q 934 4225 453 4556 
L 453 4863 
Q 1216 4522 1603 3783 
Q 1991 3044 1991 1931 
Q 1991 822 1603 83 
Q 1216 -656 453 -997 
z
" transform="scale(0.015625)"/>
      </defs>
      <use xlink:href="#DejaVuSerif-44"/>
      <use xlink:href="#DejaVuSerif-75" x="80.175781"/>
      <use xlink:href="#DejaVuSerif-72" x="144.580078"/>
      <use xlink:href="#DejaVuSerif-61" x="192.382812"/>
      <use xlink:href="#DejaVuSerif-74" x="252.001953"/>
      <use xlink:href="#DejaVuSerif-69" x="292.1875"/>
      <use xlink:href="#DejaVuSerif-6f" x="324.169922"/>
      <use xlink:href="#DejaVuSerif-6e" x="384.375"/>
      <use xlink:href="#DejaVuSerif-20" x="448.779297"/>
      <use xlink:href="#DejaVuSerif-28" x="480.566406"/>
      <use xlink:href="#DejaVuSerif-6d" x="519.580078"/>
      <use xlink:href="#DejaVuSerif-73" x="614.404297"/>
      <use xlink:href="#DejaVuSerif-29" x="665.722656"/>
     </g>
    </g>
   </g>
   <g id="line2d_13">
    <path d="M 70.157216 286.881818 
L 344.917884 284.39218 
L 379.262967 282.200028 
L 406.739034 277.164721 
" clip-path="url(#paa81022b5e)" style="fill: none; stroke: #4472c4; stroke-opacity: 0.8; stroke-width: 1.5; stroke-linecap: square"/>
    <defs>
     <path id="m0554ebcd89" d="M 0 3 
C 0.795609 3 1.55874 2.683901 2.12132 2.12132 
C 2.683901 1.55874 3 0.795609 3 0 
C 3 -0.795609 2.683901 -1.55874 2.12132 -2.12132 
C 1.55874 -2.683901 0.795609 -3 0 -3 
C -0.795609 -3 -1.55874 -2.683901 -2.12132 -2.12132 
C -2.683901 -1.55874 -3 -0.795609 -3 0 
C -3 0.795609 -2.683901 1.55874 -2.12132 2.12132 
C -1.55874 2.683901 -0.795609 3 0 3 
z
" style="stroke: #4472c4; stroke-opacity: 0.8"/>
    </defs>
    <g clip-path="url(#paa81022b5e)">
     <use xlink:href="#m0554ebcd89" x="70.157216" y="286.881818" style="fill: #4472c4; fill-opacity: 0.8; stroke: #4472c4; stroke-opacity: 0.8"/>
     <use xlink:href="#m0554ebcd89" x="344.917884" y="284.39218" style="fill: #4472c4; fill-opacity: 0.8; stroke: #4472c4; stroke-opacity: 0.8"/>
     <use xlink:href="#m0554ebcd89" x="379.262967" y="282.200028" style="fill: #4472c4; fill-opacity: 0.8; stroke: #4472c4; stroke-opacity: 0.8"/>
     <use xlink:href="#m0554ebcd89" x="406.739034" y="277.164721" style="fill: #4472c4; fill-opacity: 0.8; stroke: #4472c4; stroke-opacity: 0.8"/>
    </g>
   </g>
   <g id="line2d_14">
    <path d="M 70.157216 286.76629 
L 344.917884 284.051371 
L 379.262967 281.911207 
L 406.739034 276.964857 
" clip-path="url(#paa81022b5e)" style="fill: none; stroke-dasharray: 5.55,2.4; stroke-dashoffset: 0; stroke: #4472c4; stroke-opacity: 0.5; stroke-width: 1.5"/>
    <defs>
     <path id="m23e397b2a7" d="M -3 3 
L 3 3 
L 3 -3 
L -3 -3 
z
" style="stroke: #4472c4; stroke-opacity: 0.5; stroke-linejoin: miter"/>
    </defs>
    <g clip-path="url(#paa81022b5e)">
     <use xlink:href="#m23e397b2a7" x="70.157216" y="286.76629" style="fill: #4472c4; fill-opacity: 0.5; stroke: #4472c4; stroke-opacity: 0.5; stroke-linejoin: miter"/>
     <use xlink:href="#m23e397b2a7" x="344.917884" y="284.051371" style="fill: #4472c4; fill-opacity: 0.5; stroke: #4472c4; stroke-opacity: 0.5; stroke-linejoin: miter"/>
     <use xlink:href="#m23e397b2a7" x="379.262967" y="281.911207" style="fill: #4472c4; fill-opacity: 0.5; stroke: #4472c4; stroke-opacity: 0.5; stroke-linejoin: miter"/>
     <use xlink:href="#m23e397b2a7" x="406.739034" y="276.964857" style="fill: #4472c4; fill-opacity: 0.5; stroke: #4472c4; stroke-opacity: 0.5; stroke-linejoin: miter"/>
    </g>
   </g>
   <g id="line2d_15">
    <path d="M 70.157216 279.025884 
L 344.917884 270.875353 
L 379.262967 262.849014 
L 406.739034 212.307054 
" clip-path="url(#paa81022b5e)" style="fill: none; stroke: #70ad47; stroke-opacity: 0.8; stroke-width: 1.5; stroke-linecap: square"/>
    <defs>
     <path id="m149becfdfd" d="M 0 3 
C 0.795609 3 1.55874 2.683901 2.12132 2.12132 
C 2.683901 1.55874 3 0.795609 3 0 
C 3 -0.795609 2.683901 -1.55874 2.12132 -2.12132 
C 1.55874 -2.683901 0.795609 -3 0 -3 
C -0.795609 -3 -1.55874 -2.683901 -2.12132 -2.12132 
C -2.683901 -1.55874 -3 -0.795609 -3 0 
C -3 0.795609 -2.683901 1.55874 -2.12132 2.12132 
C -1.55874 2.683901 -0.795609 3 0 3 
z
" style="stroke: #70ad47; stroke-opacity: 0.8"/>
    </defs>
    <g clip-path="url(#paa81022b5e)">
     <use xlink:href="#m149becfdfd" x="70.157216" y="279.025884" style="fill: #70ad47; fill-opacity: 0.8; stroke: #70ad47; stroke-opacity: 0.8"/>
     <use xlink:href="#m149becfdfd" x="344.917884" y="270.875353" style="fill: #70ad47; fill-opacity: 0.8; stroke: #70ad47; stroke-opacity: 0.8"/>
     <use xlink:href="#m149becfdfd" x="379.262967" y="262.849014" style="fill: #70ad47; fill-opacity: 0.8; stroke: #70ad47; stroke-opacity: 0.8"/>
     <use xlink:href="#m149becfdfd" x="406.739034" y="212.307054" style="fill: #70ad47; fill-opacity: 0.8; stroke: #70ad47; stroke-opacity: 0.8"/>
    </g>
   </g>
   <g id="line2d_16">
    <path d="M 70.157216 235.240605 
L 344.917884 152.967025 
L 379.262967 132.84197 
L 406.739034 80.728245 
" clip-path="url(#paa81022b5e)" style="fill: none; stroke: #ed7d31; stroke-opacity: 0.8; stroke-width: 1.5; stroke-linecap: square"/>
    <defs>
     <path id="m03144ddb45" d="M 0 3 
C 0.795609 3 1.55874 2.683901 2.12132 2.12132 
C 2.683901 1.55874 3 0.795609 3 0 
C 3 -0.795609 2.683901 -1.55874 2.12132 -2.12132 
C 1.55874 -2.683901 0.795609 -3 0 -3 
C -0.795609 -3 -1.55874 -2.683901 -2.12132 -2.12132 
C -2.683901 -1.55874 -3 -0.795609 -3 0 
C -3 0.795609 -2.683901 1.55874 -2.12132 2.12132 
C -1.55874 2.683901 -0.795609 3 0 3 
z
" style="stroke: #ed7d31; stroke-opacity: 0.8"/>
    </defs>
    <g clip-path="url(#paa81022b5e)">
     <use xlink:href="#m03144ddb45" x="70.157216" y="235.240605" style="fill: #ed7d31; fill-opacity: 0.8; stroke: #ed7d31; stroke-opacity: 0.8"/>
     <use xlink:href="#m03144ddb45" x="344.917884" y="152.967025" style="fill: #ed7d31; fill-opacity: 0.8; stroke: #ed7d31; stroke-opacity: 0.8"/>
     <use xlink:href="#m03144ddb45" x="379.262967" y="132.84197" style="fill: #ed7d31; fill-opacity: 0.8; stroke: #ed7d31; stroke-opacity: 0.8"/>
     <use xlink:href="#m03144ddb45" x="406.739034" y="80.728245" style="fill: #ed7d31; fill-opacity: 0.8; stroke: #ed7d31; stroke-opacity: 0.8"/>
    </g>
   </g>
   <g id="line2d_17">
    <path d="M 70.157216 281.856331 
L 344.917884 217.558977 
L 379.262967 201.153938 
L 406.739034 71.718182 
" clip-path="url(#paa81022b5e)" style="fill: none; stroke: #a5a5a5; stroke-opacity: 0.8; stroke-width: 1.5; stroke-linecap: square"/>
    <defs>
     <path id="mc428daa30b" d="M 0 3 
C 0.795609 3 1.55874 2.683901 2.12132 2.12132 
C 2.683901 1.55874 3 0.795609 3 0 
C 3 -0.795609 2.683901 -1.55874 2.12132 -2.12132 
C 1.55874 -2.683901 0.795609 -3 0 -3 
C -0.795609 -3 -1.55874 -2.683901 -2.12132 -2.12132 
C -2.683901 -1.55874 -3 -0.795609 -3 0 
C -3 0.795609 -2.683901 1.55874 -2.12132 2.12132 
C -1.55874 2.683901 -0.795609 3 0 3 
z
" style="stroke: #a5a5a5; stroke-opacity: 0.8"/>
    </defs>
    <g clip-path="url(#paa81022b5e)">
     <use xlink:href="#mc428daa30b" x="70.157216" y="281.856331" style="fill: #a5a5a5; fill-opacity: 0.8; stroke: #a5a5a5; stroke-opacity: 0.8"/>
     <use xlink:href="#mc428daa30b" x="344.917884" y="217.558977" style="fill: #a5a5a5; fill-opacity: 0.8; stroke: #a5a5a5; stroke-opacity: 0.8"/>
     <use xlink:href="#mc428daa30b" x="379.262967" y="201.153938" style="fill: #a5a5a5; fill-opacity: 0.8; stroke: #a5a5a5; stroke-opacity: 0.8"/>
     <use xlink:href="#mc428daa30b" x="406.739034" y="71.718182" style="fill: #a5a5a5; fill-opacity: 0.8; stroke: #a5a5a5; stroke-opacity: 0.8"/>
    </g>
   </g>
   <g id="line2d_18">
    <path d="M 70.157216 281.423099 
L 344.917884 223.491362 
L 379.262967 210.996961 
L 406.739034 164.53431 
" clip-path="url(#paa81022b5e)" style="fill: none; stroke-dasharray: 5.55,2.4; stroke-dashoffset: 0; stroke: #a5a5a5; stroke-opacity: 0.5; stroke-width: 1.5"/>
    <defs>
     <path id="m0fa10407eb" d="M -3 3 
L 3 3 
L 3 -3 
L -3 -3 
z
" style="stroke: #a5a5a5; stroke-opacity: 0.5; stroke-linejoin: miter"/>
    </defs>
    <g clip-path="url(#paa81022b5e)">
     <use xlink:href="#m0fa10407eb" x="70.157216" y="281.423099" style="fill: #a5a5a5; fill-opacity: 0.5; stroke: #a5a5a5; stroke-opacity: 0.5; stroke-linejoin: miter"/>
     <use xlink:href="#m0fa10407eb" x="344.917884" y="223.491362" style="fill: #a5a5a5; fill-opacity: 0.5; stroke: #a5a5a5; stroke-opacity: 0.5; stroke-linejoin: miter"/>
     <use xlink:href="#m0fa10407eb" x="379.262967" y="210.996961" style="fill: #a5a5a5; fill-opacity: 0.5; stroke: #a5a5a5; stroke-opacity: 0.5; stroke-linejoin: miter"/>
     <use xlink:href="#m0fa10407eb" x="406.739034" y="164.53431" style="fill: #a5a5a5; fill-opacity: 0.5; stroke: #a5a5a5; stroke-opacity: 0.5; stroke-linejoin: miter"/>
    </g>
   </g>
   <g id="patch_3">
    <path d="M 53.328125 297.64 
L 53.328125 60.96 
" style="fill: none; stroke: #000000; stroke-width: 0.8; stroke-linejoin: miter; stroke-linecap: square"/>
   </g>
   <g id="patch_4">
    <path d="M 53.328125 297.64 
L 423.568125 297.64 
" style="fill: none; stroke: #000000; stroke-width: 0.8; stroke-linejoin: miter; stroke-linecap: square"/>
   </g>
   <g id="text_15">
    <!-- TLS 1.3 — Percentile Comparison -->
    <g transform="translate(144.323359 54.96) scale(0.11 -0.11)">
     <defs>
      <path id="DejaVuSerif-54" d="M 1222 0 
L 1222 331 
L 1819 331 
L 1819 4294 
L 447 4294 
L 447 3566 
L 63 3566 
L 63 4666 
L 4206 4666 
L 4206 3566 
L 3822 3566 
L 3822 4294 
L 2450 4294 
L 2450 331 
L 3047 331 
L 3047 0 
L 1222 0 
z
" transform="scale(0.015625)"/>
      <path id="DejaVuSerif-4c" d="M 353 0 
L 353 331 
L 947 331 
L 947 4331 
L 353 4331 
L 353 4666 
L 2175 4666 
L 2175 4331 
L 1581 4331 
L 1581 384 
L 3713 384 
L 3713 1166 
L 4097 1166 
L 4097 0 
L 353 0 
z
" transform="scale(0.015625)"/>
      <path id="DejaVuSerif-53" d="M 594 225 
L 594 1288 
L 953 1284 
Q 969 753 1261 498 
Q 1553 244 2150 244 
Q 2706 244 2998 464 
Q 3291 684 3291 1106 
Q 3291 1444 3114 1625 
Q 2938 1806 2369 1978 
L 1753 2163 
Q 1084 2366 811 2669 
Q 538 2972 538 3500 
Q 538 4094 959 4422 
Q 1381 4750 2144 4750 
Q 2469 4750 2856 4679 
Q 3244 4609 3681 4475 
L 3681 3481 
L 3328 3481 
Q 3275 3975 2998 4195 
Q 2722 4416 2156 4416 
Q 1663 4416 1405 4214 
Q 1147 4013 1147 3628 
Q 1147 3294 1340 3103 
Q 1534 2913 2163 2725 
L 2741 2553 
Q 3375 2363 3645 2067 
Q 3916 1772 3916 1275 
Q 3916 597 3481 253 
Q 3047 -91 2188 -91 
Q 1803 -91 1404 -12 
Q 1006 66 594 225 
z
" transform="scale(0.015625)"/>
      <path id="DejaVuSerif-2e" d="M 603 325 
Q 603 500 722 622 
Q 841 744 1019 744 
Q 1191 744 1312 622 
Q 1434 500 1434 325 
Q 1434 153 1312 31 
Q 1191 -91 1019 -91 
Q 841 -91 722 29 
Q 603 150 603 325 
z
" transform="scale(0.015625)"/>
      <path id="DejaVuSerif-2014" d="M 281 1906 
L 6119 1906 
L 6119 1491 
L 281 1491 
L 281 1906 
z
" transform="scale(0.015625)"/>
      <path id="DejaVuSerif-43" d="M 4513 1234 
Q 4306 581 3820 245 
Q 3334 -91 2591 -91 
Q 2134 -91 1743 65 
Q 1353 222 1050 525 
Q 700 875 529 1320 
Q 359 1766 359 2328 
Q 359 3416 987 4083 
Q 1616 4750 2644 4750 
Q 3025 4750 3456 4650 
Q 3888 4550 4384 4347 
L 4384 3272 
L 4031 3272 
Q 3916 3859 3567 4137 
Q 3219 4416 2591 4416 
Q 1844 4416 1459 3886 
Q 1075 3356 1075 2328 
Q 1075 1303 1459 773 
Q 1844 244 2591 244 
Q 3113 244 3450 492 
Q 3788 741 3938 1234 
L 4513 1234 
z
" transform="scale(0.015625)"/>
      <path id="DejaVuSerif-70" d="M 1313 1825 
L 1313 1497 
Q 1313 897 1542 583 
Q 1772 269 2209 269 
Q 2650 269 2876 622 
Q 3103 975 3103 1663 
Q 3103 2353 2876 2703 
Q 2650 3053 2209 3053 
Q 1772 3053 1542 2737 
Q 1313 2422 1313 1825 
z
M 738 2988 
L 184 2988 
L 184 3322 
L 1313 3322 
L 1313 2803 
Q 1481 3116 1742 3264 
Q 2003 3413 2388 3413 
Q 3000 3413 3387 2928 
Q 3775 2444 3775 1663 
Q 3775 881 3387 395 
Q 3000 -91 2388 -91 
Q 2003 -91 1742 57 
Q 1481 206 1313 519 
L 1313 -997 
L 1856 -997 
L 1856 -1331 
L 184 -1331 
L 184 -997 
L 738 -997 
L 738 2988 
z
" transform="scale(0.015625)"/>
     </defs>
     <use xlink:href="#DejaVuSerif-54"/>
     <use xlink:href="#DejaVuSerif-4c" x="66.699219"/>
     <use xlink:href="#DejaVuSerif-53" x="133.105469"/>
     <use xlink:href="#DejaVuSerif-20" x="201.611328"/>
     <use xlink:href="#DejaVuSerif-31" x="233.398438"/>
     <use xlink:href="#DejaVuSerif-2e" x="297.021484"/>
     <use xlink:href="#DejaVuSerif-33" x="328.808594"/>
     <use xlink:href="#DejaVuSerif-20" x="392.431641"/>
     <use xlink:href="#DejaVuSerif-2014" x="424.21875"/>
     <use xlink:href="#DejaVuSerif-20" x="524.21875"/>
     <use xlink:href="#DejaVuSerif-50" x="556.005859"/>
     <use xlink:href="#DejaVuSerif-65" x="618.791016"/>
     <use xlink:href="#DejaVuSerif-72" x="677.970703"/>
     <use xlink:href="#DejaVuSerif-63" x="725.773438"/>
     <use xlink:href="#DejaVuSerif-65" x="781.779297"/>
     <use xlink:href="#DejaVuSerif-6e" x="840.958984"/>
     <use xlink:href="#DejaVuSerif-74" x="905.363281"/>
     <use xlink:href="#DejaVuSerif-69" x="945.548828"/>
     <use xlink:href="#DejaVuSerif-6c" x="977.53125"/>
     <use xlink:href="#DejaVuSerif-65" x="1009.513672"/>
     <use xlink:href="#DejaVuSerif-20" x="1068.693359"/>
     <use xlink:href="#DejaVuSerif-43" x="1100.480469"/>
     <use xlink:href="#DejaVuSerif-6f" x="1176.994141"/>
     <use xlink:href="#DejaVuSerif-6d" x="1237.199219"/>
     <use xlink:href="#DejaVuSerif-70" x="1332.023438"/>
     <use xlink:href="#DejaVuSerif-61" x="1396.037109"/>
     <use xlink:href="#DejaVuSerif-72" x="1455.65625"/>
     <use xlink:href="#DejaVuSerif-69" x="1503.458984"/>
     <use xlink:href="#DejaVuSerif-73" x="1535.441406"/>
     <use xlink:href="#DejaVuSerif-6f" x="1586.759766"/>
     <use xlink:href="#DejaVuSerif-6e" x="1646.964844"/>
    </g>
   </g>
   <g id="legend_1">
    <g id="line2d_19">
     <path d="M 59.628125 70.128906 
L 66.628125 70.128906 
L 73.628125 70.128906 
" style="fill: none; stroke: #4472c4; stroke-opacity: 0.8; stroke-width: 1.5; stroke-linecap: square"/>
     <g>
      <use xlink:href="#m0554ebcd89" x="66.628125" y="70.128906" style="fill: #4472c4; fill-opacity: 0.8; stroke: #4472c4; stroke-opacity: 0.8"/>
     </g>
    </g>
    <g id="text_16">
     <!-- TLS Full - Ideal -->
     <g transform="translate(79.228125 72.578906) scale(0.07 -0.07)">
      <defs>
       <path id="DejaVuSerif-46" d="M 353 0 
L 353 331 
L 947 331 
L 947 4331 
L 353 4331 
L 353 4666 
L 4172 4666 
L 4172 3628 
L 3788 3628 
L 3788 4281 
L 1581 4281 
L 1581 2719 
L 3175 2719 
L 3175 3303 
L 3559 3303 
L 3559 1753 
L 3175 1753 
L 3175 2338 
L 1581 2338 
L 1581 331 
L 2328 331 
L 2328 0 
L 353 0 
z
" transform="scale(0.015625)"/>
       <path id="DejaVuSerif-2d" d="M 281 1959 
L 1881 1959 
L 1881 1472 
L 281 1472 
L 281 1959 
z
" transform="scale(0.015625)"/>
       <path id="DejaVuSerif-49" d="M 1581 331 
L 2175 331 
L 2175 0 
L 353 0 
L 353 331 
L 947 331 
L 947 4331 
L 353 4331 
L 353 4666 
L 2175 4666 
L 2175 4331 
L 1581 4331 
L 1581 331 
z
" transform="scale(0.015625)"/>
       <path id="DejaVuSerif-64" d="M 3359 331 
L 3909 331 
L 3909 0 
L 2784 0 
L 2784 519 
Q 2616 206 2355 57 
Q 2094 -91 1709 -91 
Q 1097 -91 708 395 
Q 319 881 319 1663 
Q 319 2444 706 2928 
Q 1094 3413 1709 3413 
Q 2094 3413 2355 3264 
Q 2616 3116 2784 2803 
L 2784 4531 
L 2241 4531 
L 2241 4863 
L 3359 4863 
L 3359 331 
z
M 2784 1497 
L 2784 1825 
Q 2784 2422 2554 2737 
Q 2325 3053 1888 3053 
Q 1444 3053 1217 2703 
Q 991 2353 991 1663 
Q 991 975 1217 622 
Q 1444 269 1888 269 
Q 2325 269 2554 583 
Q 2784 897 2784 1497 
z
" transform="scale(0.015625)"/>
      </defs>
      <use xlink:href="#DejaVuSerif-54"/>
      <use xlink:href="#DejaVuSerif-4c" x="66.699219"/>
      <use xlink:href="#DejaVuSerif-53" x="133.105469"/>
      <use xlink:href="#DejaVuSerif-20" x="201.611328"/>
      <use xlink:href="#DejaVuSerif-46" x="233.398438"/>
      <use xlink:href="#DejaVuSerif-75" x="302.783203"/>
      <use xlink:href="#DejaVuSerif-6c" x="367.1875"/>
      <use xlink:href="#DejaVuSerif-6c" x="399.169922"/>
      <use xlink:href="#DejaVuSerif-20" x="431.152344"/>
      <use xlink:href="#DejaVuSerif-2d" x="462.939453"/>
      <use xlink:href="#DejaVuSerif-20" x="496.728516"/>
      <use xlink:href="#DejaVuSerif-49" x="528.515625"/>
      <use xlink:href="#DejaVuSerif-64" x="568.017578"/>
      <use xlink:href="#DejaVuSerif-65" x="632.03125"/>
      <use xlink:href="#DejaVuSerif-61" x="691.210938"/>
      <use xlink:href="#DejaVuSerif-6c" x="750.830078"/>
     </g>
    </g>
    <g id="line2d_20">
     <path d="M 59.628125 80.403594 
L 66.628125 80.403594 
L 73.628125 80.403594 
" style="fill: none; stroke-dasharray: 5.55,2.4; stroke-dashoffset: 0; stroke: #4472c4; stroke-opacity: 0.5; stroke-width: 1.5"/>
     <g>
      <use xlink:href="#m23e397b2a7" x="66.628125" y="80.403594" style="fill: #4472c4; fill-opacity: 0.5; stroke: #4472c4; stroke-opacity: 0.5; stroke-linejoin: miter"/>
     </g>
    </g>
    <g id="text_17">
     <!-- TLS Resumed - Ideal -->
     <g transform="translate(79.228125 82.853594) scale(0.07 -0.07)">
      <defs>
       <path id="DejaVuSerif-52" d="M 3066 2316 
Q 3284 2256 3442 2114 
Q 3600 1972 3725 1716 
L 4403 331 
L 4972 331 
L 4972 0 
L 3872 0 
L 3144 1484 
Q 2934 1916 2759 2042 
Q 2584 2169 2278 2169 
L 1581 2169 
L 1581 331 
L 2241 331 
L 2241 0 
L 353 0 
L 353 331 
L 947 331 
L 947 4331 
L 353 4331 
L 353 4666 
L 2719 4666 
Q 3400 4666 3770 4341 
Q 4141 4016 4141 3419 
Q 4141 2938 3870 2661 
Q 3600 2384 3066 2316 
z
M 1581 2503 
L 2503 2503 
Q 2975 2503 3200 2726 
Q 3425 2950 3425 3419 
Q 3425 3888 3200 4109 
Q 2975 4331 2503 4331 
L 1581 4331 
L 1581 2503 
z
" transform="scale(0.015625)"/>
      </defs>
      <use xlink:href="#DejaVuSerif-54"/>
      <use xlink:href="#DejaVuSerif-4c" x="66.699219"/>
      <use xlink:href="#DejaVuSerif-53" x="133.105469"/>
      <use xlink:href="#DejaVuSerif-20" x="201.611328"/>
      <use xlink:href="#DejaVuSerif-52" x="233.398438"/>
      <use xlink:href="#DejaVuSerif-65" x="308.691406"/>
      <use xlink:href="#DejaVuSerif-73" x="367.871094"/>
      <use xlink:href="#DejaVuSerif-75" x="419.189453"/>
      <use xlink:href="#DejaVuSerif-6d" x="483.59375"/>
      <use xlink:href="#DejaVuSerif-65" x="578.417969"/>
      <use xlink:href="#DejaVuSerif-64" x="637.597656"/>
      <use xlink:href="#DejaVuSerif-20" x="701.611328"/>
      <use xlink:href="#DejaVuSerif-2d" x="733.398438"/>
      <use xlink:href="#DejaVuSerif-20" x="767.1875"/>
      <use xlink:href="#DejaVuSerif-49" x="798.974609"/>
      <use xlink:href="#DejaVuSerif-64" x="838.476562"/>
      <use xlink:href="#DejaVuSerif-65" x="902.490234"/>
      <use xlink:href="#DejaVuSerif-61" x="961.669922"/>
      <use xlink:href="#DejaVuSerif-6c" x="1021.289062"/>
     </g>
    </g>
    <g id="line2d_21">
     <path d="M 59.628125 90.678281 
L 66.628125 90.678281 
L 73.628125 90.678281 
" style="fill: none; stroke: #70ad47; stroke-opacity: 0.8; stroke-width: 1.5; stroke-linecap: square"/>
     <g>
      <use xlink:href="#m149becfdfd" x="66.628125" y="90.678281" style="fill: #70ad47; fill-opacity: 0.8; stroke: #70ad47; stroke-opacity: 0.8"/>
     </g>
    </g>
    <g id="text_18">
     <!-- TLS Full - 35ms/2% -->
     <g transform="translate(79.228125 93.128281) scale(0.07 -0.07)">
      <defs>
       <path id="DejaVuSerif-2f" d="M 1656 4666 
L 2156 4666 
L 500 -594 
L 0 -594 
L 1656 4666 
z
" transform="scale(0.015625)"/>
       <path id="DejaVuSerif-25" d="M 1434 4459 
Q 1159 4459 1004 4200 
Q 850 3941 850 3475 
Q 850 3016 1008 2753 
Q 1166 2491 1434 2491 
Q 1700 2491 1854 2752 
Q 2009 3013 2009 3475 
Q 2009 3938 1854 4198 
Q 1700 4459 1434 4459 
z
M 4653 2169 
Q 4381 2169 4226 1906 
Q 4072 1644 4072 1178 
Q 4072 719 4228 458 
Q 4384 197 4653 197 
Q 4922 197 5075 458 
Q 5228 719 5228 1178 
Q 5228 1641 5073 1905 
Q 4919 2169 4653 2169 
z
M 4653 2450 
Q 5147 2450 5437 2106 
Q 5728 1763 5728 1178 
Q 5728 594 5436 251 
Q 5144 -91 4653 -91 
Q 4153 -91 3862 251 
Q 3572 594 3572 1178 
Q 3572 1766 3864 2108 
Q 4156 2450 4653 2450 
z
M 4263 4750 
L 4738 4750 
L 1819 -91 
L 1344 -91 
L 4263 4750 
z
M 1428 4750 
Q 1922 4750 2215 4408 
Q 2509 4066 2509 3481 
Q 2509 2891 2217 2550 
Q 1925 2209 1428 2209 
Q 931 2209 642 2551 
Q 353 2894 353 3481 
Q 353 4063 643 4406 
Q 934 4750 1428 4750 
z
" transform="scale(0.015625)"/>
      </defs>
      <use xlink:href="#DejaVuSerif-54"/>
      <use xlink:href="#DejaVuSerif-4c" x="66.699219"/>
      <use xlink:href="#DejaVuSerif-53" x="133.105469"/>
      <use xlink:href="#DejaVuSerif-20" x="201.611328"/>
      <use xlink:href="#DejaVuSerif-46" x="233.398438"/>
      <use xlink:href="#DejaVuSerif-75" x="302.783203"/>
      <use xlink:href="#DejaVuSerif-6c" x="367.1875"/>
      <use xlink:href="#DejaVuSerif-6c" x="399.169922"/>
      <use xlink:href="#DejaVuSerif-20" x="431.152344"/>
      <use xlink:href="#DejaVuSerif-2d" x="462.939453"/>
      <use xlink:href="#DejaVuSerif-20" x="496.728516"/>
      <use xlink:href="#DejaVuSerif-33" x="528.515625"/>
      <use xlink:href="#DejaVuSerif-35" x="592.138672"/>
      <use xlink:href="#DejaVuSerif-6d" x="655.761719"/>
      <use xlink:href="#DejaVuSerif-73" x="750.585938"/>
      <use xlink:href="#DejaVuSerif-2f" x="801.904297"/>
      <use xlink:href="#DejaVuSerif-32" x="835.595703"/>
      <use xlink:href="#DejaVuSerif-25" x="899.21875"/>
     </g>
    </g>
    <g id="line2d_22">
     <path d="M 59.628125 100.952969 
L 66.628125 100.952969 
L 73.628125 100.952969 
" style="fill: none; stroke: #ed7d31; stroke-opacity: 0.8; stroke-width: 1.5; stroke-linecap: square"/>
     <g>
      <use xlink:href="#m03144ddb45" x="66.628125" y="100.952969" style="fill: #ed7d31; fill-opacity: 0.8; stroke: #ed7d31; stroke-opacity: 0.8"/>
     </g>
    </g>
    <g id="text_19">
     <!-- TLS Full - 200ms/10% -->
     <g transform="translate(79.228125 103.402969) scale(0.07 -0.07)">
      <use xlink:href="#DejaVuSerif-54"/>
      <use xlink:href="#DejaVuSerif-4c" x="66.699219"/>
      <use xlink:href="#DejaVuSerif-53" x="133.105469"/>
      <use xlink:href="#DejaVuSerif-20" x="201.611328"/>
      <use xlink:href="#DejaVuSerif-46" x="233.398438"/>
      <use xlink:href="#DejaVuSerif-75" x="302.783203"/>
      <use xlink:href="#DejaVuSerif-6c" x="367.1875"/>
      <use xlink:href="#DejaVuSerif-6c" x="399.169922"/>
      <use xlink:href="#DejaVuSerif-20" x="431.152344"/>
      <use xlink:href="#DejaVuSerif-2d" x="462.939453"/>
      <use xlink:href="#DejaVuSerif-20" x="496.728516"/>
      <use xlink:href="#DejaVuSerif-32" x="528.515625"/>
      <use xlink:href="#DejaVuSerif-30" x="592.138672"/>
      <use xlink:href="#DejaVuSerif-30" x="655.761719"/>
      <use xlink:href="#DejaVuSerif-6d" x="719.384766"/>
      <use xlink:href="#DejaVuSerif-73" x="814.208984"/>
      <use xlink:href="#DejaVuSerif-2f" x="865.527344"/>
      <use xlink:href="#DejaVuSerif-31" x="899.21875"/>
      <use xlink:href="#DejaVuSerif-30" x="962.841797"/>
      <use xlink:href="#DejaVuSerif-25" x="1026.464844"/>
     </g>
    </g>
    <g id="line2d_23">
     <path d="M 59.628125 111.227656 
L 66.628125 111.227656 
L 73.628125 111.227656 
" style="fill: none; stroke: #a5a5a5; stroke-opacity: 0.8; stroke-width: 1.5; stroke-linecap: square"/>
     <g>
      <use xlink:href="#mc428daa30b" x="66.628125" y="111.227656" style="fill: #a5a5a5; fill-opacity: 0.8; stroke: #a5a5a5; stroke-opacity: 0.8"/>
     </g>
    </g>
    <g id="text_20">
     <!-- TLS Full - GE Stable -->
     <g transform="translate(79.228125 113.677656) scale(0.07 -0.07)">
      <defs>
       <path id="DejaVuSerif-47" d="M 4097 3272 
Q 3988 3856 3641 4136 
Q 3294 4416 2675 4416 
Q 1869 4416 1472 3897 
Q 1075 3378 1075 2328 
Q 1075 1300 1484 772 
Q 1894 244 2688 244 
Q 3041 244 3362 331 
Q 3684 419 3975 594 
L 3975 1797 
L 3097 1797 
L 3097 2131 
L 4609 2131 
L 4609 391 
Q 4194 150 3714 29 
Q 3234 -91 2688 -91 
Q 1631 -91 995 570 
Q 359 1231 359 2328 
Q 359 3434 996 4092 
Q 1634 4750 2713 4750 
Q 3113 4750 3539 4658 
Q 3966 4566 4447 4378 
L 4447 3272 
L 4097 3272 
z
" transform="scale(0.015625)"/>
       <path id="DejaVuSerif-45" d="M 353 0 
L 353 331 
L 947 331 
L 947 4331 
L 353 4331 
L 353 4666 
L 4109 4666 
L 4109 3628 
L 3725 3628 
L 3725 4281 
L 1581 4281 
L 1581 2719 
L 3109 2719 
L 3109 3303 
L 3494 3303 
L 3494 1753 
L 3109 1753 
L 3109 2338 
L 1581 2338 
L 1581 384 
L 3775 384 
L 3775 1038 
L 4159 1038 
L 4159 0 
L 353 0 
z
" transform="scale(0.015625)"/>
       <path id="DejaVuSerif-62" d="M 738 331 
L 738 4531 
L 184 4531 
L 184 4863 
L 1313 4863 
L 1313 2803 
Q 1481 3116 1742 3264 
Q 2003 3413 2388 3413 
Q 3000 3413 3387 2928 
Q 3775 2444 3775 1663 
Q 3775 881 3387 395 
Q 3000 -91 2388 -91 
Q 2003 -91 1742 57 
Q 1481 206 1313 519 
L 1313 0 
L 184 0 
L 184 331 
L 738 331 
z
M 1313 1497 
Q 1313 897 1542 583 
Q 1772 269 2209 269 
Q 2650 269 2876 622 
Q 3103 975 3103 1663 
Q 3103 2353 2876 2703 
Q 2650 3053 2209 3053 
Q 1772 3053 1542 2737 
Q 1313 2422 1313 1825 
L 1313 1497 
z
" transform="scale(0.015625)"/>
      </defs>
      <use xlink:href="#DejaVuSerif-54"/>
      <use xlink:href="#DejaVuSerif-4c" x="66.699219"/>
      <use xlink:href="#DejaVuSerif-53" x="133.105469"/>
      <use xlink:href="#DejaVuSerif-20" x="201.611328"/>
      <use xlink:href="#DejaVuSerif-46" x="233.398438"/>
      <use xlink:href="#DejaVuSerif-75" x="302.783203"/>
      <use xlink:href="#DejaVuSerif-6c" x="367.1875"/>
      <use xlink:href="#DejaVuSerif-6c" x="399.169922"/>
      <use xlink:href="#DejaVuSerif-20" x="431.152344"/>
      <use xlink:href="#DejaVuSerif-2d" x="462.939453"/>
      <use xlink:href="#DejaVuSerif-20" x="496.728516"/>
      <use xlink:href="#DejaVuSerif-47" x="528.515625"/>
      <use xlink:href="#DejaVuSerif-45" x="608.398438"/>
      <use xlink:href="#DejaVuSerif-20" x="681.396484"/>
      <use xlink:href="#DejaVuSerif-53" x="713.183594"/>
      <use xlink:href="#DejaVuSerif-74" x="781.689453"/>
      <use xlink:href="#DejaVuSerif-61" x="821.875"/>
      <use xlink:href="#DejaVuSerif-62" x="881.494141"/>
      <use xlink:href="#DejaVuSerif-6c" x="945.507812"/>
      <use xlink:href="#DejaVuSerif-65" x="977.490234"/>
     </g>
    </g>
    <g id="line2d_24">
     <path d="M 59.628125 121.502344 
L 66.628125 121.502344 
L 73.628125 121.502344 
" style="fill: none; stroke-dasharray: 5.55,2.4; stroke-dashoffset: 0; stroke: #a5a5a5; stroke-opacity: 0.5; stroke-width: 1.5"/>
     <g>
      <use xlink:href="#m0fa10407eb" x="66.628125" y="121.502344" style="fill: #a5a5a5; fill-opacity: 0.5; stroke: #a5a5a5; stroke-opacity: 0.5; stroke-linejoin: miter"/>
     </g>
    </g>
    <g id="text_21">
     <!-- TLS Resumed - GE Stable -->
     <g transform="translate(79.228125 123.952344) scale(0.07 -0.07)">
      <use xlink:href="#DejaVuSerif-54"/>
      <use xlink:href="#DejaVuSerif-4c" x="66.699219"/>
      <use xlink:href="#DejaVuSerif-53" x="133.105469"/>
      <use xlink:href="#DejaVuSerif-20" x="201.611328"/>
      <use xlink:href="#DejaVuSerif-52" x="233.398438"/>
      <use xlink:href="#DejaVuSerif-65" x="308.691406"/>
      <use xlink:href="#DejaVuSerif-73" x="367.871094"/>
      <use xlink:href="#DejaVuSerif-75" x="419.189453"/>
      <use xlink:href="#DejaVuSerif-6d" x="483.59375"/>
      <use xlink:href="#DejaVuSerif-65" x="578.417969"/>
      <use xlink:href="#DejaVuSerif-64" x="637.597656"/>
      <use xlink:href="#DejaVuSerif-20" x="701.611328"/>
      <use xlink:href="#DejaVuSerif-2d" x="733.398438"/>
      <use xlink:href="#DejaVuSerif-20" x="767.1875"/>
      <use xlink:href="#DejaVuSerif-47" x="798.974609"/>
      <use xlink:href="#DejaVuSerif-45" x="878.857422"/>
      <use xlink:href="#DejaVuSerif-20" x="951.855469"/>
      <use xlink:href="#DejaVuSerif-53" x="983.642578"/>
      <use xlink:href="#DejaVuSerif-74" x="1052.148438"/>
      <use xlink:href="#DejaVuSerif-61" x="1092.333984"/>
      <use xlink:href="#DejaVuSerif-62" x="1151.953125"/>
      <use xlink:href="#DejaVuSerif-6c" x="1215.966797"/>
      <use xlink:href="#DejaVuSerif-65" x="1247.949219"/>
     </g>
    </g>
   </g>
  </g>
  <g id="axes_2">
   <g id="patch_5">
    <path d="M 479.928125 297.64 
L 850.168125 297.64 
L 850.168125 60.96 
L 479.928125 60.96 
z
" style="fill: #ffffff"/>
   </g>
   <g id="matplotlib.axis_3">
    <g id="xtick_5">
     <g id="line2d_25">
      <g>
       <use xlink:href="#m1c5eb87841" x="496.757216" y="297.64" style="stroke: #000000; stroke-width: 0.8"/>
      </g>
     </g>
     <g id="text_22">
      <!-- 50 -->
      <g transform="translate(490.394716 312.238437) scale(0.1 -0.1)">
       <use xlink:href="#DejaVuSerif-35"/>
       <use xlink:href="#DejaVuSerif-30" x="63.623047"/>
      </g>
     </g>
    </g>
    <g id="xtick_6">
     <g id="line2d_26">
      <g>
       <use xlink:href="#m1c5eb87841" x="771.517884" y="297.64" style="stroke: #000000; stroke-width: 0.8"/>
      </g>
     </g>
     <g id="text_23">
      <!-- 90 -->
      <g transform="translate(765.155384 312.238437) scale(0.1 -0.1)">
       <use xlink:href="#DejaVuSerif-39"/>
       <use xlink:href="#DejaVuSerif-30" x="63.623047"/>
      </g>
     </g>
    </g>
    <g id="xtick_7">
     <g id="line2d_27">
      <g>
       <use xlink:href="#m1c5eb87841" x="805.862967" y="297.64" style="stroke: #000000; stroke-width: 0.8"/>
      </g>
     </g>
     <g id="text_24">
      <!-- 95 -->
      <g transform="translate(799.500467 312.238437) scale(0.1 -0.1)">
       <use xlink:href="#DejaVuSerif-39"/>
       <use xlink:href="#DejaVuSerif-35" x="63.623047"/>
      </g>
     </g>
    </g>
    <g id="xtick_8">
     <g id="line2d_28">
      <g>
       <use xlink:href="#m1c5eb87841" x="833.339034" y="297.64" style="stroke: #000000; stroke-width: 0.8"/>
      </g>
     </g>
     <g id="text_25">
      <!-- 99 -->
      <g transform="translate(826.976534 312.238437) scale(0.1 -0.1)">
       <use xlink:href="#DejaVuSerif-39"/>
       <use xlink:href="#DejaVuSerif-39" x="63.623047"/>
      </g>
     </g>
    </g>
    <g id="text_26">
     <!-- Percentile -->
     <g transform="translate(639.412969 325.916562) scale(0.1 -0.1)">
      <use xlink:href="#DejaVuSerif-50"/>
      <use xlink:href="#DejaVuSerif-65" x="62.785156"/>
      <use xlink:href="#DejaVuSerif-72" x="121.964844"/>
      <use xlink:href="#DejaVuSerif-63" x="169.767578"/>
      <use xlink:href="#DejaVuSerif-65" x="225.773438"/>
      <use xlink:href="#DejaVuSerif-6e" x="284.953125"/>
      <use xlink:href="#DejaVuSerif-74" x="349.357422"/>
      <use xlink:href="#DejaVuSerif-69" x="389.542969"/>
      <use xlink:href="#DejaVuSerif-6c" x="421.525391"/>
      <use xlink:href="#DejaVuSerif-65" x="453.507812"/>
     </g>
    </g>
   </g>
   <g id="matplotlib.axis_4">
    <g id="ytick_9">
     <g id="line2d_29">
      <g>
       <use xlink:href="#mbb059bf0c1" x="479.928125" y="287.114403" style="stroke: #000000; stroke-width: 0.8"/>
      </g>
     </g>
     <g id="text_27">
      <!-- 0 -->
      <g transform="translate(466.565625 290.913621) scale(0.1 -0.1)">
       <use xlink:href="#DejaVuSerif-30"/>
      </g>
     </g>
    </g>
    <g id="ytick_10">
     <g id="line2d_30">
      <g>
       <use xlink:href="#mbb059bf0c1" x="479.928125" y="256.389917" style="stroke: #000000; stroke-width: 0.8"/>
      </g>
     </g>
     <g id="text_28">
      <!-- 1000 -->
      <g transform="translate(447.478125 260.189136) scale(0.1 -0.1)">
       <use xlink:href="#DejaVuSerif-31"/>
       <use xlink:href="#DejaVuSerif-30" x="63.623047"/>
       <use xlink:href="#DejaVuSerif-30" x="127.246094"/>
       <use xlink:href="#DejaVuSerif-30" x="190.869141"/>
      </g>
     </g>
    </g>
    <g id="ytick_11">
     <g id="line2d_31">
      <g>
       <use xlink:href="#mbb059bf0c1" x="479.928125" y="225.665432" style="stroke: #000000; stroke-width: 0.8"/>
      </g>
     </g>
     <g id="text_29">
      <!-- 2000 -->
      <g transform="translate(447.478125 229.464651) scale(0.1 -0.1)">
       <use xlink:href="#DejaVuSerif-32"/>
       <use xlink:href="#DejaVuSerif-30" x="63.623047"/>
       <use xlink:href="#DejaVuSerif-30" x="127.246094"/>
       <use xlink:href="#DejaVuSerif-30" x="190.869141"/>
      </g>
     </g>
    </g>
    <g id="ytick_12">
     <g id="line2d_32">
      <g>
       <use xlink:href="#mbb059bf0c1" x="479.928125" y="194.940947" style="stroke: #000000; stroke-width: 0.8"/>
      </g>
     </g>
     <g id="text_30">
      <!-- 3000 -->
      <g transform="translate(447.478125 198.740166) scale(0.1 -0.1)">
       <use xlink:href="#DejaVuSerif-33"/>
       <use xlink:href="#DejaVuSerif-30" x="63.623047"/>
       <use xlink:href="#DejaVuSerif-30" x="127.246094"/>
       <use xlink:href="#DejaVuSerif-30" x="190.869141"/>
      </g>
     </g>
    </g>
    <g id="ytick_13">
     <g id="line2d_33">
      <g>
       <use xlink:href="#mbb059bf0c1" x="479.928125" y="164.216462" style="stroke: #000000; stroke-width: 0.8"/>
      </g>
     </g>
     <g id="text_31">
      <!-- 4000 -->
      <g transform="translate(447.478125 168.015681) scale(0.1 -0.1)">
       <defs>
        <path id="DejaVuSerif-34" d="M 2234 1581 
L 2234 4063 
L 641 1581 
L 2234 1581 
z
M 3609 0 
L 1484 0 
L 1484 331 
L 2234 331 
L 2234 1247 
L 197 1247 
L 197 1588 
L 2241 4750 
L 2859 4750 
L 2859 1581 
L 3750 1581 
L 3750 1247 
L 2859 1247 
L 2859 331 
L 3609 331 
L 3609 0 
z
" transform="scale(0.015625)"/>
       </defs>
       <use xlink:href="#DejaVuSerif-34"/>
       <use xlink:href="#DejaVuSerif-30" x="63.623047"/>
       <use xlink:href="#DejaVuSerif-30" x="127.246094"/>
       <use xlink:href="#DejaVuSerif-30" x="190.869141"/>
      </g>
     </g>
    </g>
    <g id="ytick_14">
     <g id="line2d_34">
      <g>
       <use xlink:href="#mbb059bf0c1" x="479.928125" y="133.491977" style="stroke: #000000; stroke-width: 0.8"/>
      </g>
     </g>
     <g id="text_32">
      <!-- 5000 -->
      <g transform="translate(447.478125 137.291196) scale(0.1 -0.1)">
       <use xlink:href="#DejaVuSerif-35"/>
       <use xlink:href="#DejaVuSerif-30" x="63.623047"/>
       <use xlink:href="#DejaVuSerif-30" x="127.246094"/>
       <use xlink:href="#DejaVuSerif-30" x="190.869141"/>
      </g>
     </g>
    </g>
    <g id="ytick_15">
     <g id="line2d_35">
      <g>
       <use xlink:href="#mbb059bf0c1" x="479.928125" y="102.767492" style="stroke: #000000; stroke-width: 0.8"/>
      </g>
     </g>
     <g id="text_33">
      <!-- 6000 -->
      <g transform="translate(447.478125 106.566711) scale(0.1 -0.1)">
       <defs>
        <path id="DejaVuSerif-36" d="M 2094 219 
Q 2534 219 2771 542 
Q 3009 866 3009 1472 
Q 3009 2078 2771 2401 
Q 2534 2725 2094 2725 
Q 1647 2725 1412 2412 
Q 1178 2100 1178 1509 
Q 1178 888 1415 553 
Q 1653 219 2094 219 
z
M 1075 2569 
Q 1288 2803 1556 2918 
Q 1825 3034 2163 3034 
Q 2859 3034 3264 2615 
Q 3669 2197 3669 1472 
Q 3669 763 3233 336 
Q 2797 -91 2069 -91 
Q 1278 -91 853 498 
Q 428 1088 428 2181 
Q 428 3406 931 4078 
Q 1434 4750 2350 4750 
Q 2597 4750 2869 4703 
Q 3141 4656 3425 4563 
L 3425 3794 
L 3072 3794 
Q 3034 4109 2831 4275 
Q 2628 4441 2284 4441 
Q 1678 4441 1381 3981 
Q 1084 3522 1075 2569 
z
" transform="scale(0.015625)"/>
       </defs>
       <use xlink:href="#DejaVuSerif-36"/>
       <use xlink:href="#DejaVuSerif-30" x="63.623047"/>
       <use xlink:href="#DejaVuSerif-30" x="127.246094"/>
       <use xlink:href="#DejaVuSerif-30" x="190.869141"/>
      </g>
     </g>
    </g>
    <g id="ytick_16">
     <g id="line2d_36">
      <g>
       <use xlink:href="#mbb059bf0c1" x="479.928125" y="72.043007" style="stroke: #000000; stroke-width: 0.8"/>
      </g>
     </g>
     <g id="text_34">
      <!-- 7000 -->
      <g transform="translate(447.478125 75.842226) scale(0.1 -0.1)">
       <defs>
        <path id="DejaVuSerif-37" d="M 3609 4347 
L 1784 0 
L 1319 0 
L 3059 4153 
L 903 4153 
L 903 3578 
L 538 3578 
L 538 4666 
L 3609 4666 
L 3609 4347 
z
" transform="scale(0.015625)"/>
       </defs>
       <use xlink:href="#DejaVuSerif-37"/>
       <use xlink:href="#DejaVuSerif-30" x="63.623047"/>
       <use xlink:href="#DejaVuSerif-30" x="127.246094"/>
       <use xlink:href="#DejaVuSerif-30" x="190.869141"/>
      </g>
     </g>
    </g>
    <g id="text_35">
     <!-- Duration (ms) -->
     <g transform="translate(441.398438 214.536719) rotate(-90) scale(0.1 -0.1)">
      <use xlink:href="#DejaVuSerif-44"/>
      <use xlink:href="#DejaVuSerif-75" x="80.175781"/>
      <use xlink:href="#DejaVuSerif-72" x="144.580078"/>
      <use xlink:href="#DejaVuSerif-61" x="192.382812"/>
      <use xlink:href="#DejaVuSerif-74" x="252.001953"/>
      <use xlink:href="#DejaVuSerif-69" x="292.1875"/>
      <use xlink:href="#DejaVuSerif-6f" x="324.169922"/>
      <use xlink:href="#DejaVuSerif-6e" x="384.375"/>
      <use xlink:href="#DejaVuSerif-20" x="448.779297"/>
      <use xlink:href="#DejaVuSerif-28" x="480.566406"/>
      <use xlink:href="#DejaVuSerif-6d" x="519.580078"/>
      <use xlink:href="#DejaVuSerif-73" x="614.404297"/>
      <use xlink:href="#DejaVuSerif-29" x="665.722656"/>
     </g>
    </g>
   </g>
   <g id="line2d_37">
    <path d="M 496.757216 286.881818 
L 771.517884 286.323462 
L 805.862967 285.920357 
L 833.339034 284.623559 
" clip-path="url(#pf1e5ed3478)" style="fill: none; stroke: #4472c4; stroke-opacity: 0.8; stroke-width: 1.5; stroke-linecap: square"/>
    <g clip-path="url(#pf1e5ed3478)">
     <use xlink:href="#m0554ebcd89" x="496.757216" y="286.881818" style="fill: #4472c4; fill-opacity: 0.8; stroke: #4472c4; stroke-opacity: 0.8"/>
     <use xlink:href="#m0554ebcd89" x="771.517884" y="286.323462" style="fill: #4472c4; fill-opacity: 0.8; stroke: #4472c4; stroke-opacity: 0.8"/>
     <use xlink:href="#m0554ebcd89" x="805.862967" y="285.920357" style="fill: #4472c4; fill-opacity: 0.8; stroke: #4472c4; stroke-opacity: 0.8"/>
     <use xlink:href="#m0554ebcd89" x="833.339034" y="284.623559" style="fill: #4472c4; fill-opacity: 0.8; stroke: #4472c4; stroke-opacity: 0.8"/>
    </g>
   </g>
   <g id="line2d_38">
    <path d="M 496.757216 286.880128 
L 771.517884 286.366353 
L 805.862967 286.085993 
L 833.339034 285.075738 
" clip-path="url(#pf1e5ed3478)" style="fill: none; stroke-dasharray: 5.55,2.4; stroke-dashoffset: 0; stroke: #4472c4; stroke-opacity: 0.5; stroke-width: 1.5"/>
    <g clip-path="url(#pf1e5ed3478)">
     <use xlink:href="#m23e397b2a7" x="496.757216" y="286.880128" style="fill: #4472c4; fill-opacity: 0.5; stroke: #4472c4; stroke-opacity: 0.5; stroke-linejoin: miter"/>
     <use xlink:href="#m23e397b2a7" x="771.517884" y="286.366353" style="fill: #4472c4; fill-opacity: 0.5; stroke: #4472c4; stroke-opacity: 0.5; stroke-linejoin: miter"/>
     <use xlink:href="#m23e397b2a7" x="805.862967" y="286.085993" style="fill: #4472c4; fill-opacity: 0.5; stroke: #4472c4; stroke-opacity: 0.5; stroke-linejoin: miter"/>
     <use xlink:href="#m23e397b2a7" x="833.339034" y="285.075738" style="fill: #4472c4; fill-opacity: 0.5; stroke: #4472c4; stroke-opacity: 0.5; stroke-linejoin: miter"/>
    </g>
   </g>
   <g id="line2d_39">
    <path d="M 496.757216 284.614658 
L 771.517884 283.657929 
L 805.862967 280.925785 
L 833.339034 223.250632 
" clip-path="url(#pf1e5ed3478)" style="fill: none; stroke: #70ad47; stroke-opacity: 0.8; stroke-width: 1.5; stroke-linecap: square"/>
    <g clip-path="url(#pf1e5ed3478)">
     <use xlink:href="#m149becfdfd" x="496.757216" y="284.614658" style="fill: #70ad47; fill-opacity: 0.8; stroke: #70ad47; stroke-opacity: 0.8"/>
     <use xlink:href="#m149becfdfd" x="771.517884" y="283.657929" style="fill: #70ad47; fill-opacity: 0.8; stroke: #70ad47; stroke-opacity: 0.8"/>
     <use xlink:href="#m149becfdfd" x="805.862967" y="280.925785" style="fill: #70ad47; fill-opacity: 0.8; stroke: #70ad47; stroke-opacity: 0.8"/>
     <use xlink:href="#m149becfdfd" x="833.339034" y="223.250632" style="fill: #70ad47; fill-opacity: 0.8; stroke: #70ad47; stroke-opacity: 0.8"/>
    </g>
   </g>
   <g id="line2d_40">
    <path d="M 496.757216 284.624798 
L 771.517884 283.84584 
L 805.862967 282.882366 
L 833.339034 245.002606 
" clip-path="url(#pf1e5ed3478)" style="fill: none; stroke-dasharray: 5.55,2.4; stroke-dashoffset: 0; stroke: #70ad47; stroke-opacity: 0.5; stroke-width: 1.5"/>
    <defs>
     <path id="m5f498aa95b" d="M -3 3 
L 3 3 
L 3 -3 
L -3 -3 
z
" style="stroke: #70ad47; stroke-opacity: 0.5; stroke-linejoin: miter"/>
    </defs>
    <g clip-path="url(#pf1e5ed3478)">
     <use xlink:href="#m5f498aa95b" x="496.757216" y="284.624798" style="fill: #70ad47; fill-opacity: 0.5; stroke: #70ad47; stroke-opacity: 0.5; stroke-linejoin: miter"/>
     <use xlink:href="#m5f498aa95b" x="771.517884" y="283.84584" style="fill: #70ad47; fill-opacity: 0.5; stroke: #70ad47; stroke-opacity: 0.5; stroke-linejoin: miter"/>
     <use xlink:href="#m5f498aa95b" x="805.862967" y="282.882366" style="fill: #70ad47; fill-opacity: 0.5; stroke: #70ad47; stroke-opacity: 0.5; stroke-linejoin: miter"/>
     <use xlink:href="#m5f498aa95b" x="833.339034" y="245.002606" style="fill: #70ad47; fill-opacity: 0.5; stroke: #70ad47; stroke-opacity: 0.5; stroke-linejoin: miter"/>
    </g>
   </g>
   <g id="line2d_41">
    <path d="M 496.757216 274.386631 
L 771.517884 243.575503 
L 805.862967 212.540148 
L 833.339034 193.979704 
" clip-path="url(#pf1e5ed3478)" style="fill: none; stroke: #ed7d31; stroke-opacity: 0.8; stroke-width: 1.5; stroke-linecap: square"/>
    <g clip-path="url(#pf1e5ed3478)">
     <use xlink:href="#m03144ddb45" x="496.757216" y="274.386631" style="fill: #ed7d31; fill-opacity: 0.8; stroke: #ed7d31; stroke-opacity: 0.8"/>
     <use xlink:href="#m03144ddb45" x="771.517884" y="243.575503" style="fill: #ed7d31; fill-opacity: 0.8; stroke: #ed7d31; stroke-opacity: 0.8"/>
     <use xlink:href="#m03144ddb45" x="805.862967" y="212.540148" style="fill: #ed7d31; fill-opacity: 0.8; stroke: #ed7d31; stroke-opacity: 0.8"/>
     <use xlink:href="#m03144ddb45" x="833.339034" y="193.979704" style="fill: #ed7d31; fill-opacity: 0.8; stroke: #ed7d31; stroke-opacity: 0.8"/>
    </g>
   </g>
   <g id="line2d_42">
    <path d="M 496.757216 274.368043 
L 771.517884 250.431303 
L 805.862967 231.422571 
L 833.339034 197.322328 
" clip-path="url(#pf1e5ed3478)" style="fill: none; stroke-dasharray: 5.55,2.4; stroke-dashoffset: 0; stroke: #ed7d31; stroke-opacity: 0.5; stroke-width: 1.5"/>
    <defs>
     <path id="me4ce63af25" d="M -3 3 
L 3 3 
L 3 -3 
L -3 -3 
z
" style="stroke: #ed7d31; stroke-opacity: 0.5; stroke-linejoin: miter"/>
    </defs>
    <g clip-path="url(#pf1e5ed3478)">
     <use xlink:href="#me4ce63af25" x="496.757216" y="274.368043" style="fill: #ed7d31; fill-opacity: 0.5; stroke: #ed7d31; stroke-opacity: 0.5; stroke-linejoin: miter"/>
     <use xlink:href="#me4ce63af25" x="771.517884" y="250.431303" style="fill: #ed7d31; fill-opacity: 0.5; stroke: #ed7d31; stroke-opacity: 0.5; stroke-linejoin: miter"/>
     <use xlink:href="#me4ce63af25" x="805.862967" y="231.422571" style="fill: #ed7d31; fill-opacity: 0.5; stroke: #ed7d31; stroke-opacity: 0.5; stroke-linejoin: miter"/>
     <use xlink:href="#me4ce63af25" x="833.339034" y="197.322328" style="fill: #ed7d31; fill-opacity: 0.5; stroke: #ed7d31; stroke-opacity: 0.5; stroke-linejoin: miter"/>
    </g>
   </g>
   <g id="line2d_43">
    <path d="M 496.757216 286.628956 
L 771.517884 225.176206 
L 805.862967 223.68143 
L 833.339034 163.104046 
" clip-path="url(#pf1e5ed3478)" style="fill: none; stroke: #a5a5a5; stroke-opacity: 0.8; stroke-width: 1.5; stroke-linecap: square"/>
    <g clip-path="url(#pf1e5ed3478)">
     <use xlink:href="#mc428daa30b" x="496.757216" y="286.628956" style="fill: #a5a5a5; fill-opacity: 0.8; stroke: #a5a5a5; stroke-opacity: 0.8"/>
     <use xlink:href="#mc428daa30b" x="771.517884" y="225.176206" style="fill: #a5a5a5; fill-opacity: 0.8; stroke: #a5a5a5; stroke-opacity: 0.8"/>
     <use xlink:href="#mc428daa30b" x="805.862967" y="223.68143" style="fill: #a5a5a5; fill-opacity: 0.8; stroke: #a5a5a5; stroke-opacity: 0.8"/>
     <use xlink:href="#mc428daa30b" x="833.339034" y="163.104046" style="fill: #a5a5a5; fill-opacity: 0.8; stroke: #a5a5a5; stroke-opacity: 0.8"/>
    </g>
   </g>
   <g id="line2d_44">
    <path d="M 496.757216 286.683492 
L 771.517884 224.833198 
L 805.862967 220.09814 
L 833.339034 71.718182 
" clip-path="url(#pf1e5ed3478)" style="fill: none; stroke-dasharray: 5.55,2.4; stroke-dashoffset: 0; stroke: #a5a5a5; stroke-opacity: 0.5; stroke-width: 1.5"/>
    <g clip-path="url(#pf1e5ed3478)">
     <use xlink:href="#m0fa10407eb" x="496.757216" y="286.683492" style="fill: #a5a5a5; fill-opacity: 0.5; stroke: #a5a5a5; stroke-opacity: 0.5; stroke-linejoin: miter"/>
     <use xlink:href="#m0fa10407eb" x="771.517884" y="224.833198" style="fill: #a5a5a5; fill-opacity: 0.5; stroke: #a5a5a5; stroke-opacity: 0.5; stroke-linejoin: miter"/>
     <use xlink:href="#m0fa10407eb" x="805.862967" y="220.09814" style="fill: #a5a5a5; fill-opacity: 0.5; stroke: #a5a5a5; stroke-opacity: 0.5; stroke-linejoin: miter"/>
     <use xlink:href="#m0fa10407eb" x="833.339034" y="71.718182" style="fill: #a5a5a5; fill-opacity: 0.5; stroke: #a5a5a5; stroke-opacity: 0.5; stroke-linejoin: miter"/>
    </g>
   </g>
   <g id="patch_6">
    <path d="M 479.928125 297.64 
L 479.928125 60.96 
" style="fill: none; stroke: #000000; stroke-width: 0.8; stroke-linejoin: miter; stroke-linecap: square"/>
   </g>
   <g id="patch_7">
    <path d="M 479.928125 297.64 
L 850.168125 297.64 
" style="fill: none; stroke: #000000; stroke-width: 0.8; stroke-linejoin: miter; stroke-linecap: square"/>
   </g>
   <g id="text_36">
    <!-- QUIC — Percentile Comparison -->
    <g transform="translate(576.981094 54.96) scale(0.11 -0.11)">
     <defs>
      <path id="DejaVuSerif-51" d="M 2700 -91 
Q 1628 -91 993 567 
Q 359 1225 359 2328 
Q 359 2894 529 3339 
Q 700 3784 1050 4134 
Q 1356 4441 1750 4595 
Q 2144 4750 2625 4750 
Q 3641 4750 4266 4084 
Q 4891 3419 4891 2328 
Q 4891 1403 4422 773 
Q 3953 144 3128 -38 
Q 3297 -247 3539 -347 
Q 3781 -447 4122 -447 
L 4219 -447 
L 4219 -1025 
Q 3691 -1000 3314 -767 
Q 2938 -534 2700 -91 
z
M 2625 244 
Q 3391 244 3781 770 
Q 4172 1297 4172 2328 
Q 4172 3363 3781 3889 
Q 3391 4416 2625 4416 
Q 1856 4416 1465 3889 
Q 1075 3363 1075 2328 
Q 1075 1297 1465 770 
Q 1856 244 2625 244 
z
" transform="scale(0.015625)"/>
      <path id="DejaVuSerif-55" d="M 897 4331 
L 300 4331 
L 300 4666 
L 2125 4666 
L 2125 4331 
L 1528 4331 
L 1528 1919 
Q 1528 1025 1820 672 
Q 2113 319 2828 319 
Q 3544 319 3836 672 
Q 4128 1025 4128 1919 
L 4128 4331 
L 3531 4331 
L 3531 4666 
L 5106 4666 
L 5106 4331 
L 4513 4331 
L 4513 1856 
Q 4513 791 4103 350 
Q 3694 -91 2713 -91 
Q 1731 -91 1314 353 
Q 897 797 897 1856 
L 897 4331 
z
" transform="scale(0.015625)"/>
     </defs>
     <use xlink:href="#DejaVuSerif-51"/>
     <use xlink:href="#DejaVuSerif-55" x="81.982422"/>
     <use xlink:href="#DejaVuSerif-49" x="166.259766"/>
     <use xlink:href="#DejaVuSerif-43" x="205.761719"/>
     <use xlink:href="#DejaVuSerif-20" x="282.275391"/>
     <use xlink:href="#DejaVuSerif-2014" x="314.0625"/>
     <use xlink:href="#DejaVuSerif-20" x="414.0625"/>
     <use xlink:href="#DejaVuSerif-50" x="445.849609"/>
     <use xlink:href="#DejaVuSerif-65" x="508.634766"/>
     <use xlink:href="#DejaVuSerif-72" x="567.814453"/>
     <use xlink:href="#DejaVuSerif-63" x="615.617188"/>
     <use xlink:href="#DejaVuSerif-65" x="671.623047"/>
     <use xlink:href="#DejaVuSerif-6e" x="730.802734"/>
     <use xlink:href="#DejaVuSerif-74" x="795.207031"/>
     <use xlink:href="#DejaVuSerif-69" x="835.392578"/>
     <use xlink:href="#DejaVuSerif-6c" x="867.375"/>
     <use xlink:href="#DejaVuSerif-65" x="899.357422"/>
     <use xlink:href="#DejaVuSerif-20" x="958.537109"/>
     <use xlink:href="#DejaVuSerif-43" x="990.324219"/>
     <use xlink:href="#DejaVuSerif-6f" x="1066.837891"/>
     <use xlink:href="#DejaVuSerif-6d" x="1127.042969"/>
     <use xlink:href="#DejaVuSerif-70" x="1221.867188"/>
     <use xlink:href="#DejaVuSerif-61" x="1285.880859"/>
     <use xlink:href="#DejaVuSerif-72" x="1345.5"/>
     <use xlink:href="#DejaVuSerif-69" x="1393.302734"/>
     <use xlink:href="#DejaVuSerif-73" x="1425.285156"/>
     <use xlink:href="#DejaVuSerif-6f" x="1476.603516"/>
     <use xlink:href="#DejaVuSerif-6e" x="1536.808594"/>
    </g>
   </g>
   <g id="legend_2">
    <g id="line2d_45">
     <path d="M 486.228125 70.128906 
L 493.228125 70.128906 
L 500.228125 70.128906 
" style="fill: none; stroke: #4472c4; stroke-opacity: 0.8; stroke-width: 1.5; stroke-linecap: square"/>
     <g>
      <use xlink:href="#m0554ebcd89" x="493.228125" y="70.128906" style="fill: #4472c4; fill-opacity: 0.8; stroke: #4472c4; stroke-opacity: 0.8"/>
     </g>
    </g>
    <g id="text_37">
     <!-- QUIC Full - Ideal -->
     <g transform="translate(505.828125 72.578906) scale(0.07 -0.07)">
      <use xlink:href="#DejaVuSerif-51"/>
      <use xlink:href="#DejaVuSerif-55" x="81.982422"/>
      <use xlink:href="#DejaVuSerif-49" x="166.259766"/>
      <use xlink:href="#DejaVuSerif-43" x="205.761719"/>
      <use xlink:href="#DejaVuSerif-20" x="282.275391"/>
      <use xlink:href="#DejaVuSerif-46" x="314.0625"/>
      <use xlink:href="#DejaVuSerif-75" x="383.447266"/>
      <use xlink:href="#DejaVuSerif-6c" x="447.851562"/>
      <use xlink:href="#DejaVuSerif-6c" x="479.833984"/>
      <use xlink:href="#DejaVuSerif-20" x="511.816406"/>
      <use xlink:href="#DejaVuSerif-2d" x="543.603516"/>
      <use xlink:href="#DejaVuSerif-20" x="577.392578"/>
      <use xlink:href="#DejaVuSerif-49" x="609.179688"/>
      <use xlink:href="#DejaVuSerif-64" x="648.681641"/>
      <use xlink:href="#DejaVuSerif-65" x="712.695312"/>
      <use xlink:href="#DejaVuSerif-61" x="771.875"/>
      <use xlink:href="#DejaVuSerif-6c" x="831.494141"/>
     </g>
    </g>
    <g id="line2d_46">
     <path d="M 486.228125 80.403594 
L 493.228125 80.403594 
L 500.228125 80.403594 
" style="fill: none; stroke-dasharray: 5.55,2.4; stroke-dashoffset: 0; stroke: #4472c4; stroke-opacity: 0.5; stroke-width: 1.5"/>
     <g>
      <use xlink:href="#m23e397b2a7" x="493.228125" y="80.403594" style="fill: #4472c4; fill-opacity: 0.5; stroke: #4472c4; stroke-opacity: 0.5; stroke-linejoin: miter"/>
     </g>
    </g>
    <g id="text_38">
     <!-- QUIC Resumed - Ideal -->
     <g transform="translate(505.828125 82.853594) scale(0.07 -0.07)">
      <use xlink:href="#DejaVuSerif-51"/>
      <use xlink:href="#DejaVuSerif-55" x="81.982422"/>
      <use xlink:href="#DejaVuSerif-49" x="166.259766"/>
      <use xlink:href="#DejaVuSerif-43" x="205.761719"/>
      <use xlink:href="#DejaVuSerif-20" x="282.275391"/>
      <use xlink:href="#DejaVuSerif-52" x="314.0625"/>
      <use xlink:href="#DejaVuSerif-65" x="389.355469"/>
      <use xlink:href="#DejaVuSerif-73" x="448.535156"/>
      <use xlink:href="#DejaVuSerif-75" x="499.853516"/>
      <use xlink:href="#DejaVuSerif-6d" x="564.257812"/>
      <use xlink:href="#DejaVuSerif-65" x="659.082031"/>
      <use xlink:href="#DejaVuSerif-64" x="718.261719"/>
      <use xlink:href="#DejaVuSerif-20" x="782.275391"/>
      <use xlink:href="#DejaVuSerif-2d" x="814.0625"/>
      <use xlink:href="#DejaVuSerif-20" x="847.851562"/>
      <use xlink:href="#DejaVuSerif-49" x="879.638672"/>
      <use xlink:href="#DejaVuSerif-64" x="919.140625"/>
      <use xlink:href="#DejaVuSerif-65" x="983.154297"/>
      <use xlink:href="#DejaVuSerif-61" x="1042.333984"/>
      <use xlink:href="#DejaVuSerif-6c" x="1101.953125"/>
     </g>
    </g>
    <g id="line2d_47">
     <path d="M 486.228125 90.678281 
L 493.228125 90.678281 
L 500.228125 90.678281 
" style="fill: none; stroke: #70ad47; stroke-opacity: 0.8; stroke-width: 1.5; stroke-linecap: square"/>
     <g>
      <use xlink:href="#m149becfdfd" x="493.228125" y="90.678281" style="fill: #70ad47; fill-opacity: 0.8; stroke: #70ad47; stroke-opacity: 0.8"/>
     </g>
    </g>
    <g id="text_39">
     <!-- QUIC Full - 35ms/2% -->
     <g transform="translate(505.828125 93.128281) scale(0.07 -0.07)">
      <use xlink:href="#DejaVuSerif-51"/>
      <use xlink:href="#DejaVuSerif-55" x="81.982422"/>
      <use xlink:href="#DejaVuSerif-49" x="166.259766"/>
      <use xlink:href="#DejaVuSerif-43" x="205.761719"/>
      <use xlink:href="#DejaVuSerif-20" x="282.275391"/>
      <use xlink:href="#DejaVuSerif-46" x="314.0625"/>
      <use xlink:href="#DejaVuSerif-75" x="383.447266"/>
      <use xlink:href="#DejaVuSerif-6c" x="447.851562"/>
      <use xlink:href="#DejaVuSerif-6c" x="479.833984"/>
      <use xlink:href="#DejaVuSerif-20" x="511.816406"/>
      <use xlink:href="#DejaVuSerif-2d" x="543.603516"/>
      <use xlink:href="#DejaVuSerif-20" x="577.392578"/>
      <use xlink:href="#DejaVuSerif-33" x="609.179688"/>
      <use xlink:href="#DejaVuSerif-35" x="672.802734"/>
      <use xlink:href="#DejaVuSerif-6d" x="736.425781"/>
      <use xlink:href="#DejaVuSerif-73" x="831.25"/>
      <use xlink:href="#DejaVuSerif-2f" x="882.568359"/>
      <use xlink:href="#DejaVuSerif-32" x="916.259766"/>
      <use xlink:href="#DejaVuSerif-25" x="979.882812"/>
     </g>
    </g>
    <g id="line2d_48">
     <path d="M 486.228125 100.952969 
L 493.228125 100.952969 
L 500.228125 100.952969 
" style="fill: none; stroke-dasharray: 5.55,2.4; stroke-dashoffset: 0; stroke: #70ad47; stroke-opacity: 0.5; stroke-width: 1.5"/>
     <g>
      <use xlink:href="#m5f498aa95b" x="493.228125" y="100.952969" style="fill: #70ad47; fill-opacity: 0.5; stroke: #70ad47; stroke-opacity: 0.5; stroke-linejoin: miter"/>
     </g>
    </g>
    <g id="text_40">
     <!-- QUIC Resumed - 35ms/2% -->
     <g transform="translate(505.828125 103.402969) scale(0.07 -0.07)">
      <use xlink:href="#DejaVuSerif-51"/>
      <use xlink:href="#DejaVuSerif-55" x="81.982422"/>
      <use xlink:href="#DejaVuSerif-49" x="166.259766"/>
      <use xlink:href="#DejaVuSerif-43" x="205.761719"/>
      <use xlink:href="#DejaVuSerif-20" x="282.275391"/>
      <use xlink:href="#DejaVuSerif-52" x="314.0625"/>
      <use xlink:href="#DejaVuSerif-65" x="389.355469"/>
      <use xlink:href="#DejaVuSerif-73" x="448.535156"/>
      <use xlink:href="#DejaVuSerif-75" x="499.853516"/>
      <use xlink:href="#DejaVuSerif-6d" x="564.257812"/>
      <use xlink:href="#DejaVuSerif-65" x="659.082031"/>
      <use xlink:href="#DejaVuSerif-64" x="718.261719"/>
      <use xlink:href="#DejaVuSerif-20" x="782.275391"/>
      <use xlink:href="#DejaVuSerif-2d" x="814.0625"/>
      <use xlink:href="#DejaVuSerif-20" x="847.851562"/>
      <use xlink:href="#DejaVuSerif-33" x="879.638672"/>
      <use xlink:href="#DejaVuSerif-35" x="943.261719"/>
      <use xlink:href="#DejaVuSerif-6d" x="1006.884766"/>
      <use xlink:href="#DejaVuSerif-73" x="1101.708984"/>
      <use xlink:href="#DejaVuSerif-2f" x="1153.027344"/>
      <use xlink:href="#DejaVuSerif-32" x="1186.71875"/>
      <use xlink:href="#DejaVuSerif-25" x="1250.341797"/>
     </g>
    </g>
    <g id="line2d_49">
     <path d="M 486.228125 111.227656 
L 493.228125 111.227656 
L 500.228125 111.227656 
" style="fill: none; stroke: #ed7d31; stroke-opacity: 0.8; stroke-width: 1.5; stroke-linecap: square"/>
     <g>
      <use xlink:href="#m03144ddb45" x="493.228125" y="111.227656" style="fill: #ed7d31; fill-opacity: 0.8; stroke: #ed7d31; stroke-opacity: 0.8"/>
     </g>
    </g>
    <g id="text_41">
     <!-- QUIC Full - 200ms/10% -->
     <g transform="translate(505.828125 113.677656) scale(0.07 -0.07)">
      <use xlink:href="#DejaVuSerif-51"/>
      <use xlink:href="#DejaVuSerif-55" x="81.982422"/>
      <use xlink:href="#DejaVuSerif-49" x="166.259766"/>
      <use xlink:href="#DejaVuSerif-43" x="205.761719"/>
      <use xlink:href="#DejaVuSerif-20" x="282.275391"/>
      <use xlink:href="#DejaVuSerif-46" x="314.0625"/>
      <use xlink:href="#DejaVuSerif-75" x="383.447266"/>
      <use xlink:href="#DejaVuSerif-6c" x="447.851562"/>
      <use xlink:href="#DejaVuSerif-6c" x="479.833984"/>
      <use xlink:href="#DejaVuSerif-20" x="511.816406"/>
      <use xlink:href="#DejaVuSerif-2d" x="543.603516"/>
      <use xlink:href="#DejaVuSerif-20" x="577.392578"/>
      <use xlink:href="#DejaVuSerif-32" x="609.179688"/>
      <use xlink:href="#DejaVuSerif-30" x="672.802734"/>
      <use xlink:href="#DejaVuSerif-30" x="736.425781"/>
      <use xlink:href="#DejaVuSerif-6d" x="800.048828"/>
      <use xlink:href="#DejaVuSerif-73" x="894.873047"/>
      <use xlink:href="#DejaVuSerif-2f" x="946.191406"/>
      <use xlink:href="#DejaVuSerif-31" x="979.882812"/>
      <use xlink:href="#DejaVuSerif-30" x="1043.505859"/>
      <use xlink:href="#DejaVuSerif-25" x="1107.128906"/>
     </g>
    </g>
    <g id="line2d_50">
     <path d="M 486.228125 121.502344 
L 493.228125 121.502344 
L 500.228125 121.502344 
" style="fill: none; stroke-dasharray: 5.55,2.4; stroke-dashoffset: 0; stroke: #ed7d31; stroke-opacity: 0.5; stroke-width: 1.5"/>
     <g>
      <use xlink:href="#me4ce63af25" x="493.228125" y="121.502344" style="fill: #ed7d31; fill-opacity: 0.5; stroke: #ed7d31; stroke-opacity: 0.5; stroke-linejoin: miter"/>
     </g>
    </g>
    <g id="text_42">
     <!-- QUIC Resumed - 200ms/10% -->
     <g transform="translate(505.828125 123.952344) scale(0.07 -0.07)">
      <use xlink:href="#DejaVuSerif-51"/>
      <use xlink:href="#DejaVuSerif-55" x="81.982422"/>
      <use xlink:href="#DejaVuSerif-49" x="166.259766"/>
      <use xlink:href="#DejaVuSerif-43" x="205.761719"/>
      <use xlink:href="#DejaVuSerif-20" x="282.275391"/>
      <use xlink:href="#DejaVuSerif-52" x="314.0625"/>
      <use xlink:href="#DejaVuSerif-65" x="389.355469"/>
      <use xlink:href="#DejaVuSerif-73" x="448.535156"/>
      <use xlink:href="#DejaVuSerif-75" x="499.853516"/>
      <use xlink:href="#DejaVuSerif-6d" x="564.257812"/>
      <use xlink:href="#DejaVuSerif-65" x="659.082031"/>
      <use xlink:href="#DejaVuSerif-64" x="718.261719"/>
      <use xlink:href="#DejaVuSerif-20" x="782.275391"/>
      <use xlink:href="#DejaVuSerif-2d" x="814.0625"/>
      <use xlink:href="#DejaVuSerif-20" x="847.851562"/>
      <use xlink:href="#DejaVuSerif-32" x="879.638672"/>
      <use xlink:href="#DejaVuSerif-30" x="943.261719"/>
      <use xlink:href="#DejaVuSerif-30" x="1006.884766"/>
      <use xlink:href="#DejaVuSerif-6d" x="1070.507812"/>
      <use xlink:href="#DejaVuSerif-73" x="1165.332031"/>
      <use xlink:href="#DejaVuSerif-2f" x="1216.650391"/>
      <use xlink:href="#DejaVuSerif-31" x="1250.341797"/>
      <use xlink:href="#DejaVuSerif-30" x="1313.964844"/>
      <use xlink:href="#DejaVuSerif-25" x="1377.587891"/>
     </g>
    </g>
    <g id="line2d_51">
     <path d="M 486.228125 131.777031 
L 493.228125 131.777031 
L 500.228125 131.777031 
" style="fill: none; stroke: #a5a5a5; stroke-opacity: 0.8; stroke-width: 1.5; stroke-linecap: square"/>
     <g>
      <use xlink:href="#mc428daa30b" x="493.228125" y="131.777031" style="fill: #a5a5a5; fill-opacity: 0.8; stroke: #a5a5a5; stroke-opacity: 0.8"/>
     </g>
    </g>
    <g id="text_43">
     <!-- QUIC Full - GE Stable -->
     <g transform="translate(505.828125 134.227031) scale(0.07 -0.07)">
      <use xlink:href="#DejaVuSerif-51"/>
      <use xlink:href="#DejaVuSerif-55" x="81.982422"/>
      <use xlink:href="#DejaVuSerif-49" x="166.259766"/>
      <use xlink:href="#DejaVuSerif-43" x="205.761719"/>
      <use xlink:href="#DejaVuSerif-20" x="282.275391"/>
      <use xlink:href="#DejaVuSerif-46" x="314.0625"/>
      <use xlink:href="#DejaVuSerif-75" x="383.447266"/>
      <use xlink:href="#DejaVuSerif-6c" x="447.851562"/>
      <use xlink:href="#DejaVuSerif-6c" x="479.833984"/>
      <use xlink:href="#DejaVuSerif-20" x="511.816406"/>
      <use xlink:href="#DejaVuSerif-2d" x="543.603516"/>
      <use xlink:href="#DejaVuSerif-20" x="577.392578"/>
      <use xlink:href="#DejaVuSerif-47" x="609.179688"/>
      <use xlink:href="#DejaVuSerif-45" x="689.0625"/>
      <use xlink:href="#DejaVuSerif-20" x="762.060547"/>
      <use xlink:href="#DejaVuSerif-53" x="793.847656"/>
      <use xlink:href="#DejaVuSerif-74" x="862.353516"/>
      <use xlink:href="#DejaVuSerif-61" x="902.539062"/>
      <use xlink:href="#DejaVuSerif-62" x="962.158203"/>
      <use xlink:href="#DejaVuSerif-6c" x="1026.171875"/>
      <use xlink:href="#DejaVuSerif-65" x="1058.154297"/>
     </g>
    </g>
    <g id="line2d_52">
     <path d="M 486.228125 142.051719 
L 493.228125 142.051719 
L 500.228125 142.051719 
" style="fill: none; stroke-dasharray: 5.55,2.4; stroke-dashoffset: 0; stroke: #a5a5a5; stroke-opacity: 0.5; stroke-width: 1.5"/>
     <g>
      <use xlink:href="#m0fa10407eb" x="493.228125" y="142.051719" style="fill: #a5a5a5; fill-opacity: 0.5; stroke: #a5a5a5; stroke-opacity: 0.5; stroke-linejoin: miter"/>
     </g>
    </g>
    <g id="text_44">
     <!-- QUIC Resumed - GE Stable -->
     <g transform="translate(505.828125 144.501719) scale(0.07 -0.07)">
      <use xlink:href="#DejaVuSerif-51"/>
      <use xlink:href="#DejaVuSerif-55" x="81.982422"/>
      <use xlink:href="#DejaVuSerif-49" x="166.259766"/>
      <use xlink:href="#DejaVuSerif-43" x="205.761719"/>
      <use xlink:href="#DejaVuSerif-20" x="282.275391"/>
      <use xlink:href="#DejaVuSerif-52" x="314.0625"/>
      <use xlink:href="#DejaVuSerif-65" x="389.355469"/>
      <use xlink:href="#DejaVuSerif-73" x="448.535156"/>
      <use xlink:href="#DejaVuSerif-75" x="499.853516"/>
      <use xlink:href="#DejaVuSerif-6d" x="564.257812"/>
      <use xlink:href="#DejaVuSerif-65" x="659.082031"/>
      <use xlink:href="#DejaVuSerif-64" x="718.261719"/>
      <use xlink:href="#DejaVuSerif-20" x="782.275391"/>
      <use xlink:href="#DejaVuSerif-2d" x="814.0625"/>
      <use xlink:href="#DejaVuSerif-20" x="847.851562"/>
      <use xlink:href="#DejaVuSerif-47" x="879.638672"/>
      <use xlink:href="#DejaVuSerif-45" x="959.521484"/>
      <use xlink:href="#DejaVuSerif-20" x="1032.519531"/>
      <use xlink:href="#DejaVuSerif-53" x="1064.306641"/>
      <use xlink:href="#DejaVuSerif-74" x="1132.8125"/>
      <use xlink:href="#DejaVuSerif-61" x="1172.998047"/>
      <use xlink:href="#DejaVuSerif-62" x="1232.617188"/>
      <use xlink:href="#DejaVuSerif-6c" x="1296.630859"/>
      <use xlink:href="#DejaVuSerif-65" x="1328.613281"/>
     </g>
    </g>
   </g>
  </g>
  <g id="text_45">
   <!-- Percentile Analysis — mldsa65 + mlkem768 -->
   <g transform="translate(281.564062 16.318125) scale(0.12 -0.12)">
    <defs>
     <path id="DejaVuSerif-Bold-50" d="M 300 0 
L 300 378 
L 897 378 
L 897 4288 
L 300 4288 
L 300 4666 
L 2956 4666 
Q 3734 4666 4193 4295 
Q 4653 3925 4653 3303 
Q 4653 2678 4192 2304 
Q 3731 1931 2956 1931 
L 2100 1931 
L 2100 378 
L 2853 378 
L 2853 0 
L 300 0 
z
M 2100 2309 
L 2450 2309 
Q 2856 2309 3098 2579 
Q 3341 2850 3341 3303 
Q 3341 3753 3100 4020 
Q 2859 4288 2450 4288 
L 2100 4288 
L 2100 2309 
z
" transform="scale(0.015625)"/>
     <path id="DejaVuSerif-Bold-65" d="M 2566 1875 
Q 2566 2531 2444 2795 
Q 2322 3059 2028 3059 
Q 1744 3059 1620 2800 
Q 1497 2541 1497 1931 
L 1497 1875 
L 2566 1875 
z
M 3781 1503 
L 1497 1503 
L 1497 1478 
Q 1497 834 1690 548 
Q 1884 263 2316 263 
Q 2675 263 2897 453 
Q 3119 644 3181 1006 
L 3700 1006 
Q 3566 441 3166 175 
Q 2766 -91 2047 -91 
Q 1184 -91 723 364 
Q 263 819 263 1663 
Q 263 2488 734 2950 
Q 1206 3413 2047 3413 
Q 2872 3413 3312 2927 
Q 3753 2441 3781 1503 
z
" transform="scale(0.015625)"/>
     <path id="DejaVuSerif-Bold-72" d="M 3438 3359 
L 3438 2369 
L 3084 2369 
Q 3066 2634 2941 2764 
Q 2816 2894 2578 2894 
Q 2216 2894 2006 2575 
Q 1797 2256 1797 1691 
L 1797 378 
L 2400 378 
L 2400 0 
L 219 0 
L 219 378 
L 691 378 
L 691 2944 
L 184 2944 
L 184 3322 
L 1797 3322 
L 1797 2731 
Q 1959 3078 2226 3245 
Q 2494 3413 2881 3413 
Q 2978 3413 3117 3398 
Q 3256 3384 3438 3359 
z
" transform="scale(0.015625)"/>
     <path id="DejaVuSerif-Bold-63" d="M 3609 1038 
Q 3491 469 3123 189 
Q 2756 -91 2125 -91 
Q 1238 -91 750 368 
Q 263 828 263 1663 
Q 263 2488 744 2950 
Q 1225 3413 2081 3413 
Q 2428 3413 2781 3347 
Q 3134 3281 3500 3150 
L 3500 2228 
L 3150 2228 
Q 3100 2650 2903 2854 
Q 2706 3059 2350 3059 
Q 1888 3059 1692 2746 
Q 1497 2434 1497 1663 
Q 1497 909 1687 586 
Q 1878 263 2309 263 
Q 2644 263 2845 463 
Q 3047 663 3091 1038 
L 3609 1038 
z
" transform="scale(0.015625)"/>
     <path id="DejaVuSerif-Bold-6e" d="M 219 0 
L 219 378 
L 691 378 
L 691 2944 
L 219 2944 
L 219 3322 
L 1797 3322 
L 1797 2853 
Q 1997 3150 2253 3281 
Q 2509 3413 2900 3413 
Q 3459 3413 3745 3083 
Q 4031 2753 4031 2113 
L 4031 378 
L 4506 378 
L 4506 0 
L 2522 0 
L 2522 378 
L 2925 378 
L 2925 2144 
Q 2925 2566 2817 2730 
Q 2709 2894 2444 2894 
Q 2109 2894 1953 2648 
Q 1797 2403 1797 1869 
L 1797 378 
L 2203 378 
L 2203 0 
L 219 0 
z
" transform="scale(0.015625)"/>
     <path id="DejaVuSerif-Bold-74" d="M 634 2944 
L 153 2944 
L 153 3322 
L 634 3322 
L 634 4353 
L 1741 4353 
L 1741 3322 
L 2663 3322 
L 2663 2944 
L 1741 2944 
L 1741 909 
Q 1741 475 1809 369 
Q 1878 263 2059 263 
Q 2259 263 2356 397 
Q 2453 531 2459 813 
L 2925 813 
Q 2897 313 2651 111 
Q 2406 -91 1806 -91 
Q 1122 -91 878 123 
Q 634 338 634 909 
L 634 2944 
z
" transform="scale(0.015625)"/>
     <path id="DejaVuSerif-Bold-69" d="M 588 4263 
Q 588 4516 763 4689 
Q 938 4863 1191 4863 
Q 1438 4863 1611 4689 
Q 1784 4516 1784 4263 
Q 1784 4016 1611 3842 
Q 1438 3669 1191 3669 
Q 938 3669 763 3841 
Q 588 4013 588 4263 
z
M 1797 378 
L 2272 378 
L 2272 0 
L 219 0 
L 219 378 
L 691 378 
L 691 2944 
L 219 2944 
L 219 3322 
L 1797 3322 
L 1797 378 
z
" transform="scale(0.015625)"/>
     <path id="DejaVuSerif-Bold-6c" d="M 1797 378 
L 2272 378 
L 2272 0 
L 219 0 
L 219 378 
L 691 378 
L 691 4488 
L 219 4488 
L 219 4863 
L 1797 4863 
L 1797 378 
z
" transform="scale(0.015625)"/>
     <path id="DejaVuSerif-Bold-20" transform="scale(0.015625)"/>
     <path id="DejaVuSerif-Bold-41" d="M -50 0 
L -50 378 
L 331 378 
L 2088 4666 
L 2834 4666 
L 4594 378 
L 5038 378 
L 5038 0 
L 2853 0 
L 2853 378 
L 3309 378 
L 2925 1331 
L 1172 1331 
L 781 378 
L 1338 378 
L 1338 0 
L -50 0 
z
M 1325 1709 
L 2772 1709 
L 2053 3494 
L 1325 1709 
z
" transform="scale(0.015625)"/>
     <path id="DejaVuSerif-Bold-61" d="M 3525 2041 
L 3525 378 
L 4000 378 
L 4000 0 
L 2419 0 
L 2419 422 
Q 2200 159 1931 34 
Q 1663 -91 1319 -91 
Q 809 -91 536 182 
Q 263 456 263 966 
Q 263 1525 655 1803 
Q 1047 2081 1838 2081 
L 2419 2081 
L 2419 2278 
Q 2419 2681 2228 2873 
Q 2038 3066 1638 3066 
Q 1306 3066 1126 2930 
Q 947 2794 872 2484 
L 519 2484 
L 519 3200 
Q 816 3306 1134 3359 
Q 1453 3413 1806 3413 
Q 2697 3413 3111 3081 
Q 3525 2750 3525 2041 
z
M 2419 1044 
L 2419 1709 
L 2003 1709 
Q 1694 1709 1528 1540 
Q 1363 1372 1363 1056 
Q 1363 741 1483 584 
Q 1603 428 1850 428 
Q 2106 428 2262 597 
Q 2419 766 2419 1044 
z
" transform="scale(0.015625)"/>
     <path id="DejaVuSerif-Bold-79" d="M 1997 -750 
Q 1847 -1116 1634 -1269 
Q 1422 -1422 1063 -1422 
Q 909 -1422 721 -1387 
Q 534 -1353 313 -1288 
L 313 -594 
L 666 -597 
Q 675 -838 779 -953 
Q 884 -1069 1094 -1069 
Q 1297 -1069 1422 -958 
Q 1547 -847 1672 -538 
L 1722 -422 
L 275 2944 
L -84 2944 
L -84 3322 
L 1831 3322 
L 1831 2944 
L 1434 2944 
L 2278 978 
L 3066 2944 
L 2625 2944 
L 2625 3322 
L 3872 3322 
L 3872 2944 
L 3469 2944 
L 1997 -750 
z
" transform="scale(0.015625)"/>
     <path id="DejaVuSerif-Bold-73" d="M 300 97 
L 300 1025 
L 653 1025 
Q 697 653 931 458 
Q 1166 263 1569 263 
Q 1906 263 2086 380 
Q 2266 497 2266 716 
Q 2266 916 2152 1025 
Q 2038 1134 1709 1216 
L 1253 1331 
Q 738 1459 506 1698 
Q 275 1938 275 2344 
Q 275 2884 650 3148 
Q 1025 3413 1806 3413 
Q 2100 3413 2433 3364 
Q 2766 3316 3169 3213 
L 3169 2375 
L 2816 2375 
Q 2788 2716 2573 2887 
Q 2359 3059 1959 3059 
Q 1622 3059 1448 2951 
Q 1275 2844 1275 2638 
Q 1275 2469 1375 2372 
Q 1475 2275 1734 2209 
L 2188 2094 
Q 2841 1928 3091 1684 
Q 3341 1441 3341 1006 
Q 3341 444 2939 176 
Q 2538 -91 1691 -91 
Q 1381 -91 1034 -44 
Q 688 3 300 97 
z
" transform="scale(0.015625)"/>
     <path id="DejaVuSerif-Bold-2014" d="M 344 2075 
L 6056 2075 
L 6056 1325 
L 344 1325 
L 344 2075 
z
" transform="scale(0.015625)"/>
     <path id="DejaVuSerif-Bold-6d" d="M 3884 2778 
Q 4116 3109 4384 3261 
Q 4653 3413 5013 3413 
Q 5584 3413 5867 3089 
Q 6150 2766 6150 2113 
L 6150 378 
L 6625 378 
L 6625 0 
L 4647 0 
L 4647 378 
L 5044 378 
L 5044 1947 
Q 5044 2569 4948 2731 
Q 4853 2894 4594 2894 
Q 4300 2894 4137 2667 
Q 3975 2441 3975 2022 
L 3975 378 
L 4372 378 
L 4372 0 
L 2472 0 
L 2472 378 
L 2869 378 
L 2869 1947 
Q 2869 2569 2772 2731 
Q 2675 2894 2419 2894 
Q 2122 2894 1959 2667 
Q 1797 2441 1797 2022 
L 1797 378 
L 2194 378 
L 2194 0 
L 219 0 
L 219 378 
L 691 378 
L 691 2944 
L 219 2944 
L 219 3322 
L 1797 3322 
L 1797 2853 
Q 1991 3144 2241 3278 
Q 2491 3413 2834 3413 
Q 3241 3413 3494 3258 
Q 3747 3103 3884 2778 
z
" transform="scale(0.015625)"/>
     <path id="DejaVuSerif-Bold-64" d="M 2747 1497 
L 2747 1825 
Q 2747 2406 2597 2665 
Q 2447 2925 2119 2925 
Q 1775 2925 1636 2651 
Q 1497 2378 1497 1663 
Q 1497 947 1637 672 
Q 1778 397 2119 397 
Q 2447 397 2597 656 
Q 2747 916 2747 1497 
z
M 3853 378 
L 4325 378 
L 4325 0 
L 2747 0 
L 2747 422 
Q 2606 163 2367 36 
Q 2128 -91 1778 -91 
Q 1072 -91 667 378 
Q 263 847 263 1663 
Q 263 2481 667 2947 
Q 1072 3413 1778 3413 
Q 2128 3413 2367 3286 
Q 2606 3159 2747 2900 
L 2747 4488 
L 2272 4488 
L 2272 4863 
L 3853 4863 
L 3853 378 
z
" transform="scale(0.015625)"/>
     <path id="DejaVuSerif-Bold-36" d="M 1575 2766 
Q 1778 2928 2029 3009 
Q 2281 3091 2578 3091 
Q 3294 3091 3701 2672 
Q 4109 2253 4109 1522 
Q 4109 750 3650 329 
Q 3191 -91 2344 -91 
Q 1388 -91 895 486 
Q 403 1063 403 2181 
Q 403 3453 950 4101 
Q 1497 4750 2572 4750 
Q 2853 4750 3175 4703 
Q 3497 4656 3866 4563 
L 3866 3738 
L 3488 3738 
Q 3409 4056 3192 4220 
Q 2975 4384 2631 4384 
Q 2075 4384 1826 4003 
Q 1578 3622 1575 2766 
z
M 2272 275 
Q 2594 275 2731 548 
Q 2869 822 2869 1497 
Q 2869 2172 2731 2445 
Q 2594 2719 2272 2719 
Q 1950 2719 1814 2445 
Q 1678 2172 1678 1497 
Q 1678 822 1814 548 
Q 1950 275 2272 275 
z
" transform="scale(0.015625)"/>
     <path id="DejaVuSerif-Bold-35" d="M 3609 4666 
L 3609 3847 
L 1113 3847 
L 1113 2822 
Q 1319 2981 1572 3062 
Q 1825 3144 2106 3144 
Q 2969 3144 3469 2708 
Q 3969 2272 3969 1522 
Q 3969 759 3469 334 
Q 2969 -91 2069 -91 
Q 1688 -91 1311 -28 
Q 934 34 525 166 
L 525 1184 
L 900 1184 
Q 919 725 1139 500 
Q 1359 275 1791 275 
Q 2250 275 2472 583 
Q 2694 891 2694 1522 
Q 2694 2144 2476 2451 
Q 2259 2759 1819 2759 
Q 1581 2759 1395 2661 
Q 1209 2563 1050 2356 
L 738 2356 
L 738 4666 
L 3609 4666 
z
" transform="scale(0.015625)"/>
     <path id="DejaVuSerif-Bold-2b" d="M 3041 4013 
L 3041 2369 
L 4684 2369 
L 4684 1650 
L 3041 1650 
L 3041 6 
L 2322 6 
L 2322 1650 
L 678 1650 
L 678 2369 
L 2322 2369 
L 2322 4013 
L 3041 4013 
z
" transform="scale(0.015625)"/>
     <path id="DejaVuSerif-Bold-6b" d="M 2216 0 
L 219 0 
L 219 378 
L 691 378 
L 691 4488 
L 219 4488 
L 219 4863 
L 1797 4863 
L 1797 1741 
L 3138 2944 
L 2741 2944 
L 2741 3322 
L 4256 3322 
L 4256 2944 
L 3641 2944 
L 2784 2175 
L 4184 378 
L 4544 378 
L 4544 0 
L 2638 0 
L 2638 378 
L 3028 378 
L 2106 1563 
L 1797 1288 
L 1797 378 
L 2216 378 
L 2216 0 
z
" transform="scale(0.015625)"/>
     <path id="DejaVuSerif-Bold-37" d="M 3922 3872 
L 1997 0 
L 1363 0 
L 3238 3781 
L 934 3781 
L 934 3150 
L 506 3150 
L 506 4666 
L 3922 4666 
L 3922 3872 
z
" transform="scale(0.015625)"/>
     <path id="DejaVuSerif-Bold-38" d="M 2975 2484 
Q 3531 2394 3820 2075 
Q 4109 1756 4109 1241 
Q 4109 597 3623 253 
Q 3138 -91 2222 -91 
Q 1306 -91 818 253 
Q 331 597 331 1241 
Q 331 1756 622 2075 
Q 913 2394 1466 2484 
Q 975 2597 731 2861 
Q 488 3125 488 3531 
Q 488 4125 931 4437 
Q 1375 4750 2222 4750 
Q 3066 4750 3511 4437 
Q 3956 4125 3956 3531 
Q 3956 3125 3711 2861 
Q 3466 2597 2975 2484 
z
M 2747 3519 
Q 2747 4013 2628 4198 
Q 2509 4384 2222 4384 
Q 1931 4384 1814 4198 
Q 1697 4013 1697 3519 
Q 1697 3028 1814 2845 
Q 1931 2663 2222 2663 
Q 2513 2663 2630 2845 
Q 2747 3028 2747 3519 
z
M 2869 1294 
Q 2869 1866 2723 2081 
Q 2578 2297 2222 2297 
Q 1863 2297 1719 2081 
Q 1575 1866 1575 1294 
Q 1575 716 1720 495 
Q 1866 275 2222 275 
Q 2575 275 2722 495 
Q 2869 716 2869 1294 
z
" transform="scale(0.015625)"/>
    </defs>
    <use xlink:href="#DejaVuSerif-Bold-50"/>
    <use xlink:href="#DejaVuSerif-Bold-65" x="72.570312"/>
    <use xlink:href="#DejaVuSerif-Bold-72" x="136.193359"/>
    <use xlink:href="#DejaVuSerif-Bold-63" x="188.878906"/>
    <use xlink:href="#DejaVuSerif-Bold-65" x="249.767578"/>
    <use xlink:href="#DejaVuSerif-Bold-6e" x="313.390625"/>
    <use xlink:href="#DejaVuSerif-Bold-74" x="386.095703"/>
    <use xlink:href="#DejaVuSerif-Bold-69" x="432.287109"/>
    <use xlink:href="#DejaVuSerif-Bold-6c" x="470.275391"/>
    <use xlink:href="#DejaVuSerif-Bold-65" x="508.263672"/>
    <use xlink:href="#DejaVuSerif-Bold-20" x="571.886719"/>
    <use xlink:href="#DejaVuSerif-Bold-41" x="606.701172"/>
    <use xlink:href="#DejaVuSerif-Bold-6e" x="684.289062"/>
    <use xlink:href="#DejaVuSerif-Bold-61" x="756.994141"/>
    <use xlink:href="#DejaVuSerif-Bold-6c" x="821.789062"/>
    <use xlink:href="#DejaVuSerif-Bold-79" x="859.777344"/>
    <use xlink:href="#DejaVuSerif-Bold-73" x="917.882812"/>
    <use xlink:href="#DejaVuSerif-Bold-69" x="974.181641"/>
    <use xlink:href="#DejaVuSerif-Bold-73" x="1012.169922"/>
    <use xlink:href="#DejaVuSerif-Bold-20" x="1068.46875"/>
    <use xlink:href="#DejaVuSerif-Bold-2014" x="1103.283203"/>
    <use xlink:href="#DejaVuSerif-Bold-20" x="1203.283203"/>
    <use xlink:href="#DejaVuSerif-Bold-6d" x="1238.097656"/>
    <use xlink:href="#DejaVuSerif-Bold-6c" x="1343.908203"/>
    <use xlink:href="#DejaVuSerif-Bold-64" x="1381.896484"/>
    <use xlink:href="#DejaVuSerif-Bold-73" x="1451.818359"/>
    <use xlink:href="#DejaVuSerif-Bold-61" x="1508.117188"/>
    <use xlink:href="#DejaVuSerif-Bold-36" x="1572.912109"/>
    <use xlink:href="#DejaVuSerif-Bold-35" x="1642.492188"/>
    <use xlink:href="#DejaVuSerif-Bold-20" x="1712.072266"/>
    <use xlink:href="#DejaVuSerif-Bold-2b" x="1746.886719"/>
    <use xlink:href="#DejaVuSerif-Bold-20" x="1830.675781"/>
    <use xlink:href="#DejaVuSerif-Bold-6d" x="1865.490234"/>
    <use xlink:href="#DejaVuSerif-Bold-6c" x="1971.300781"/>
    <use xlink:href="#DejaVuSerif-Bold-6b" x="2009.289062"/>
    <use xlink:href="#DejaVuSerif-Bold-65" x="2078.576172"/>
    <use xlink:href="#DejaVuSerif-Bold-6d" x="2142.199219"/>
    <use xlink:href="#DejaVuSerif-Bold-37" x="2248.009766"/>
    <use xlink:href="#DejaVuSerif-Bold-36" x="2317.589844"/>
    <use xlink:href="#DejaVuSerif-Bold-38" x="2387.169922"/>
   </g>
  </g>
 </g>
 <defs>
  <clipPath id="paa81022b5e">
   <rect x="53.328125" y="60.96" width="370.24" height="236.68"/>
  </clipPath>
  <clipPath id="pf1e5ed3478">
   <rect x="479.928125" y="60.96" width="370.24" height="236.68"/>
  </clipPath>
 </defs>
</svg>
